<svg width="17" height="19" viewBox="0 0 17 19" fill="none" xmlns="http://www.w3.org/2000/svg">
<g clip-path="url(#clip0_179_2882)">
<path d="M12.4807 4.39469C12.4807 6.66269 10.6798 8.49531 8.45859 8.49531C6.23735 8.49531 4.43652 6.66269 4.43652 4.39469C4.43597 2.13006 6.23735 0.296875 8.45804 0.296875C10.6787 0.296875 12.4807 2.13006 12.4807 4.39469Z" fill="#BDBDBD"/>
<path d="M15.1472 11.1077C14.0211 10.5722 11.3154 10.2499 8.50717 10.26H8.40179C5.59738 10.251 2.89172 10.5722 1.7651 11.1077C1.09366 11.4199 0.58276 12.2265 0.662208 12.9735L0.936966 18.297H15.9742L16.2495 12.9735C16.3268 12.2259 15.8153 11.4204 15.1472 11.1077Z" fill="#BDBDBD"/>
</g>
<defs>
<clipPath id="clip0_179_2882">
<rect width="16" height="18" fill="white" transform="translate(0.59375 0.296875)"/>
</clipPath>
</defs>
</svg>
