<svg width="66" height="27" viewBox="0 0 66 27" fill="none" xmlns="http://www.w3.org/2000/svg">
<g opacity="0.3">
<path d="M17.7322 7.46789L18.2175 6.98275L17.7226 6.50747C16.5001 5.33322 14.8522 4.42773 12.5593 4.42773C8.4229 4.42773 4.93628 7.79444 4.93628 11.955C4.93628 16.1156 8.4229 19.4823 12.5593 19.4823C14.7742 19.4823 16.4831 18.7482 17.8249 17.3593C19.2321 15.9491 19.6374 14.0095 19.6374 12.5073C19.6374 12.0382 19.598 11.5879 19.5213 11.2047L19.4132 10.6641H11.8869V13.8865H16.2173C16.0628 14.4214 15.8299 14.8087 15.5457 15.0934C14.982 15.6505 14.1271 16.2673 12.5593 16.2673C10.1813 16.2673 8.31327 14.3566 8.31327 11.955C8.31327 9.55347 10.1813 7.64274 12.5593 7.64274C13.8469 7.64274 14.7785 8.14544 15.4794 8.80135L15.9544 9.2458L16.4143 8.78585L17.7322 7.46789Z" fill="black" stroke="black" stroke-width="1.34483"/>
<path d="M24.3622 19.4751C27.1317 19.4751 29.3861 17.3062 29.3861 14.3924C29.3861 11.4624 27.1302 9.30957 24.3622 9.30957C21.5943 9.30957 19.3384 11.4624 19.3384 14.3924C19.3384 17.3062 21.5928 19.4751 24.3622 19.4751ZM24.3622 12.392C25.2713 12.392 26.1343 13.1424 26.1343 14.3924C26.1343 15.6301 25.2689 16.3927 24.3622 16.3927C23.4568 16.3927 22.5902 15.624 22.5902 14.3924C22.5902 13.1485 23.4544 12.392 24.3622 12.392Z" fill="black" stroke="black" stroke-width="1.34483"/>
<path d="M34.1217 16.3927H34.1179C33.2125 16.3927 32.3458 15.624 32.3458 14.3924C32.3458 13.1485 33.2101 12.392 34.1179 12.392C35.027 12.392 35.89 13.1424 35.89 14.3924C35.89 15.6337 35.0221 16.3977 34.1217 16.3927ZM34.1106 19.4751C36.88 19.4751 39.1344 17.3062 39.1344 14.3924C39.1344 11.4624 36.8785 9.30957 34.1106 9.30957C31.3426 9.30957 29.0867 11.4624 29.0867 14.3924C29.0867 17.3069 31.3492 19.4751 34.1106 19.4751Z" fill="black" stroke="black" stroke-width="1.34483"/>
<path d="M48.6475 10.2468V9.57437H45.462V9.68423C44.9689 9.44953 44.3841 9.30195 43.7414 9.30195C41.156 9.30195 38.8427 11.5594 38.8427 14.4068C38.8427 16.3137 39.8862 17.9463 41.356 18.8122L41.297 18.8367L39.6109 19.5362L38.9897 19.7939L39.2475 20.415C39.8059 21.7602 41.2895 23.4361 43.7783 23.4361C45.0428 23.4361 46.2769 23.0645 47.1977 22.1726C48.124 21.2752 48.6475 19.9344 48.6475 18.1692V10.2468ZM42.175 19.1983C42.6727 19.378 43.201 19.4749 43.7414 19.4749C44.3518 19.4749 44.9121 19.3434 45.392 19.126C45.3134 19.4749 45.1753 19.7276 45.0107 19.9044C44.7586 20.1754 44.3651 20.3537 43.7783 20.3537C42.9607 20.3537 42.4154 19.7731 42.175 19.1983ZM43.9108 12.3918C44.7824 12.3918 45.5945 13.1523 45.5945 14.4142C45.5945 15.6511 44.7915 16.3998 43.9108 16.3998C42.9758 16.3998 42.1239 15.6164 42.1239 14.4142C42.1239 13.1811 42.9842 12.3918 43.9108 12.3918ZM52.0416 5.57134V4.89893H48.7603V19.2172H52.0416V5.57134Z" fill="black" stroke="black" stroke-width="1.34483"/>
<path d="M59.37 15.2907L58.8157 14.9211L58.441 15.4721C58.032 16.0736 57.5353 16.4073 56.825 16.4073C56.4389 16.4073 56.1441 16.3194 55.9108 16.1723C55.848 16.1327 55.7868 16.087 55.7273 16.0346L60.8376 13.9165L61.4495 13.6627L61.2051 13.0471L61.0087 12.5527C60.6028 11.4701 59.3144 9.31689 56.6042 9.31689C53.9295 9.31689 51.8306 11.436 51.8306 14.3997C51.8306 17.2216 53.9125 19.4825 56.8176 19.4825C59.1525 19.4825 60.5034 18.0488 61.0568 17.2272L61.4343 16.6668L60.8721 16.292L59.37 15.2907ZM57.0689 12.4125L55.3338 13.1311C55.674 12.6162 56.2399 12.3626 56.6704 12.3626C56.8186 12.3626 56.9516 12.3811 57.0689 12.4125Z" fill="black" stroke="black" stroke-width="1.34483"/>
</g>
<path d="M12.5594 18.8098C8.78218 18.8098 5.60876 15.7321 5.60876 11.9549C5.60876 8.17779 8.78218 5.1001 12.5594 5.1001C14.6504 5.1001 16.1377 5.91739 17.2569 6.99237L15.9389 8.31033C15.1363 7.55931 14.0467 6.97028 12.5594 6.97028C9.79826 6.97028 7.64092 9.19387 7.64092 11.9549C7.64092 14.716 9.79826 16.9397 12.5594 16.9397C14.3485 16.9397 15.3646 16.2181 16.0199 15.5702C16.5574 15.0326 16.9035 14.2669 17.036 13.2141H12.5594V11.3365H18.862C18.9282 11.6678 18.9651 12.0727 18.9651 12.5072C18.9651 13.9135 18.5822 15.6511 17.3453 16.8881C16.1377 18.1398 14.6062 18.8098 12.5594 18.8098ZM28.7138 14.3921C28.7138 16.9323 26.7627 18.8024 24.3623 18.8024C21.9621 18.8024 20.0109 16.9323 20.0109 14.3921C20.0109 11.8371 21.9621 9.98171 24.3623 9.98171C26.7627 9.98171 28.7138 11.8371 28.7138 14.3921ZM26.8069 14.3921C26.8069 12.8017 25.6729 11.7193 24.3623 11.7193C23.0517 11.7193 21.9179 12.8091 21.9179 14.3921C21.9179 15.9604 23.0517 17.0648 24.3623 17.0648C25.6729 17.0648 26.8069 15.9677 26.8069 14.3921ZM38.462 14.3921C38.462 16.9323 36.5109 18.8024 34.1106 18.8024C31.7176 18.8024 29.7591 16.9323 29.7591 14.3921C29.7591 11.8371 31.7103 9.98171 34.1106 9.98171C36.5109 9.98171 38.462 11.8371 38.462 14.3921ZM36.5624 14.3921C36.5624 12.8017 35.4285 11.7193 34.118 11.7193C32.8074 11.7193 31.6734 12.8091 31.6734 14.3921C31.6734 15.9604 32.8074 17.0648 34.118 17.0648C35.4285 17.0722 36.5624 15.9677 36.5624 14.3921ZM47.9752 10.2467V18.1692C47.9752 21.431 46.0534 22.7637 43.7783 22.7637C41.6356 22.7637 40.3546 21.3279 39.8685 20.1572L41.5547 19.4577C41.8565 20.1793 42.5929 21.0261 43.7783 21.0261C45.2361 21.0261 46.1344 20.1205 46.1344 18.4343V17.8011H46.0681C45.6337 18.3386 44.7944 18.8024 43.7415 18.8024C41.5326 18.8024 39.5151 16.8808 39.5151 14.4068C39.5151 11.9182 41.54 9.97436 43.7415 9.97436C44.7944 9.97436 45.6337 10.4456 46.0681 10.9609H46.1344V10.2467H47.9752ZM46.267 14.4142C46.267 12.8606 45.2287 11.7193 43.9108 11.7193C42.5707 11.7193 41.4516 12.8532 41.4516 14.4142C41.4516 15.953 42.5707 17.0722 43.9108 17.0722C45.2287 17.0722 46.267 15.953 46.267 14.4142ZM51.3692 5.57132V18.5448H49.4328V5.57132H51.3692ZM58.9972 15.8499L60.4993 16.8513C60.0132 17.5729 58.8426 18.8099 56.8178 18.8099C54.307 18.8099 52.5031 16.8734 52.5031 14.3995C52.5031 11.7782 54.3291 9.98907 56.6043 9.98907C58.8941 9.98907 60.0132 11.8077 60.3815 12.7944L60.5802 13.295L54.6825 15.7395C55.1317 16.6231 55.8385 17.0795 56.8251 17.0795C57.8118 17.0795 58.4965 16.5863 58.9972 15.8499ZM54.366 14.2595L58.3125 12.625C58.0916 12.0727 57.4436 11.6899 56.6705 11.6899C55.6839 11.6899 54.3144 12.5588 54.366 14.2595Z" fill="white"/>
</svg>
