<svg width="16" height="17" viewBox="0 0 16 17" fill="none" xmlns="http://www.w3.org/2000/svg">
<path d="M6.29999 4.70315C6.43332 4.70315 6.55999 4.75515 6.65332 4.84982L9.98665 8.18315C10.1253 8.32049 10.202 8.50782 10.2 8.70315C10.2004 8.7996 10.1817 8.89517 10.1451 8.9844C10.1085 9.07363 10.0547 9.15476 9.98665 9.22315L6.65332 12.5565C6.55957 12.6501 6.43249 12.7027 6.29999 12.7027C6.16749 12.7027 6.0404 12.6501 5.94665 12.5565C5.89948 12.5105 5.86199 12.4556 5.83639 12.3949C5.8108 12.3342 5.79761 12.269 5.79761 12.2032C5.79761 12.1373 5.8108 12.0721 5.83639 12.0114C5.86199 11.9507 5.89948 11.8958 5.94665 11.8498L9.09332 8.70315L5.94665 5.55649C5.89948 5.51052 5.86199 5.45558 5.83639 5.39489C5.8108 5.33421 5.79761 5.26901 5.79761 5.20315C5.79761 5.13729 5.8108 5.07209 5.83639 5.01141C5.86199 4.95073 5.89948 4.89578 5.94665 4.84982C5.99259 4.80277 6.04758 4.76552 6.1083 4.74031C6.16903 4.7151 6.23424 4.70246 6.29999 4.70315Z" fill="#262626"/>
</svg>
