<svg width="24" height="25" viewBox="0 0 24 25" fill="none" xmlns="http://www.w3.org/2000/svg">
<path d="M18 10.278C18 10.478 17.922 10.668 17.78 10.808L12.78 15.808C12.678 15.9109 12.5565 15.9923 12.4225 16.0472C12.2885 16.1022 12.1448 16.1297 12 16.128C11.8553 16.1286 11.7119 16.1006 11.5781 16.0457C11.4442 15.9908 11.3225 15.91 11.22 15.808L6.21995 10.808C6.0795 10.6674 6.00061 10.4767 6.00061 10.278C6.00061 10.0792 6.0795 9.88861 6.21995 9.74798C6.2889 9.67723 6.37131 9.62099 6.46234 9.58259C6.55336 9.5442 6.65116 9.52441 6.74995 9.52441C6.84874 9.52441 6.94654 9.5442 7.03756 9.58259C7.12859 9.62099 7.211 9.67723 7.27995 9.74798L12 14.468L16.7199 9.74798C16.7889 9.67723 16.8713 9.62099 16.9623 9.58259C17.0534 9.5442 17.1512 9.52441 17.25 9.52441C17.3487 9.52441 17.4465 9.5442 17.5376 9.58259C17.6286 9.62099 17.711 9.67723 17.78 9.74798C17.8505 9.81688 17.9064 9.89937 17.9442 9.99046C17.982 10.0816 18.001 10.1794 18 10.278Z" fill="#262626"/>
</svg>
