<svg width="17" height="17" viewBox="0 0 17 17" fill="none" xmlns="http://www.w3.org/2000/svg">
<path d="M7.69745 12.7499C7.56541 12.75 7.43869 12.6978 7.34495 12.6049L3.2412 8.51486C3.18977 8.46978 3.14814 8.41463 3.11888 8.35282C3.08962 8.29101 3.07335 8.22385 3.07108 8.15551C3.0688 8.08716 3.08057 8.01907 3.10566 7.95545C3.13075 7.89183 3.16862 7.83404 3.21693 7.78564C3.26525 7.73724 3.32298 7.69927 3.38655 7.67407C3.45012 7.64887 3.51819 7.63697 3.58654 7.63913C3.65489 7.64128 3.72208 7.65743 3.78394 7.68658C3.8458 7.71573 3.90102 7.75727 3.9462 7.80861L7.64245 11.4911L13.3199 3.94986C13.3575 3.89278 13.4063 3.84399 13.4635 3.80652C13.5206 3.76905 13.5848 3.74368 13.6521 3.73199C13.7194 3.72029 13.7884 3.72252 13.8548 3.73853C13.9213 3.75453 13.9837 3.78399 14.0383 3.82506C14.0929 3.86614 14.1385 3.91797 14.1723 3.97735C14.2061 4.03673 14.2273 4.10241 14.2347 4.17033C14.2422 4.23825 14.2356 4.30697 14.2154 4.37224C14.1952 4.43752 14.1619 4.49797 14.1174 4.54986L8.0962 12.5499C8.05342 12.6073 7.99881 12.6549 7.93606 12.6894C7.8733 12.7239 7.80386 12.7445 7.73245 12.7499H7.69745Z" fill="#262626"/>
</svg>
