<svg width="20" height="21" viewBox="0 0 20 21" fill="none" xmlns="http://www.w3.org/2000/svg">
<path d="M4.99927 0.75V19.5C4.99927 19.6658 5.06512 19.8247 5.18233 19.9419C5.29954 20.0592 5.45851 20.125 5.62427 20.125C5.79003 20.125 5.949 20.0592 6.06621 19.9419C6.18342 19.8247 6.24927 19.6658 6.24927 19.5V0.75C6.24927 0.58424 6.18342 0.425268 6.06621 0.308058C5.949 0.190848 5.79003 0.125 5.62427 0.125C5.45851 0.125 5.29954 0.190848 5.18233 0.308058C5.06512 0.425268 4.99927 0.58424 4.99927 0.75ZM7.49927 0.75V6.375C7.49729 6.87196 7.29888 7.34798 6.94732 7.69923C6.59576 8.05048 6.11956 8.24846 5.6226 8.25C5.12586 8.2478 4.65014 8.04927 4.29921 7.69771C3.94827 7.34615 3.75058 6.87008 3.74927 6.37333V0.75C3.74927 0.58424 3.68342 0.425268 3.56621 0.308058C3.449 0.190848 3.29003 0.125 3.12427 0.125C2.95851 0.125 2.79954 0.190848 2.68233 0.308058C2.56512 0.425268 2.49927 0.58424 2.49927 0.75V6.375C2.50147 7.20284 2.83118 7.99616 3.4164 8.58169C4.00161 9.16722 4.79476 9.49736 5.6226 9.5C6.45073 9.49824 7.24448 9.16872 7.83037 8.58346C8.41626 7.99819 8.74663 7.20479 8.74927 6.37667V0.75C8.74927 0.58424 8.68342 0.425268 8.56621 0.308058C8.449 0.190848 8.29003 0.125 8.12427 0.125C7.95851 0.125 7.79954 0.190848 7.68233 0.308058C7.56512 0.425268 7.49927 0.58424 7.49927 0.75ZM13.1243 13.875H15.6243C16.6101 13.9133 17.4601 13.125 17.4993 12.1158C17.501 12.0692 17.501 12.0225 17.4993 11.9758C17.2909 6.41583 16.8093 3.82583 14.8068 0.698333C14.6592 0.472727 14.4431 0.300543 14.1902 0.207204C13.9373 0.113866 13.6611 0.104321 13.4023 0.179979C13.1436 0.255637 12.9161 0.412488 12.7533 0.627371C12.5905 0.842254 12.5012 1.10378 12.4984 1.37333V19.5C12.4984 19.6658 12.5643 19.8247 12.6815 19.9419C12.7987 20.0592 12.9577 20.125 13.1234 20.125C13.2892 20.125 13.4482 20.0592 13.5654 19.9419C13.6826 19.8247 13.7484 19.6658 13.7484 19.5V1.3775C13.7484 1.38 13.7493 1.3775 13.7509 1.3775C13.752 1.37687 13.7534 1.3767 13.7546 1.37701C13.7558 1.37732 13.7569 1.37809 13.7576 1.37917C15.5993 4.25417 16.0493 6.67417 16.2493 12.0233V12.0675C16.2436 12.2212 16.1772 12.3664 16.0645 12.4711C15.9518 12.5758 15.8021 12.6315 15.6484 12.6258L13.1243 12.625C12.9585 12.625 12.7995 12.6908 12.6823 12.8081C12.5651 12.9253 12.4993 13.0842 12.4993 13.25C12.4993 13.4158 12.5651 13.5747 12.6823 13.6919C12.7995 13.8092 12.9585 13.875 13.1243 13.875Z" fill="#262626"/>
</svg>
