<svg width="13" height="13" viewBox="0 0 13 13" fill="none" xmlns="http://www.w3.org/2000/svg">
<path d="M12.273 6.17938L7.44649 0.696875C7.21326 0.456192 6.89724 0.313196 6.56249 0.296875C6.22779 0.313394 5.91184 0.456358 5.67849 0.696875L0.851994 6.17938C0.788988 6.24874 0.740411 6.32994 0.70909 6.41826C0.677769 6.50658 0.664331 6.60024 0.669557 6.69381C0.674783 6.78737 0.698569 6.87895 0.739531 6.96323C0.780493 7.04751 0.837812 7.1228 0.90815 7.18472C0.978489 7.24663 1.06044 7.29394 1.14924 7.32388C1.23803 7.35381 1.3319 7.36579 1.42537 7.3591C1.51883 7.35242 1.61004 7.3272 1.69367 7.28493C1.7773 7.24266 1.85168 7.18417 1.91249 7.11287L5.63749 2.87987C5.65433 2.8609 5.67653 2.8475 5.70116 2.84145C5.72579 2.8354 5.75167 2.83698 5.77538 2.84598C5.79909 2.85499 5.8195 2.87099 5.8339 2.89187C5.84829 2.91275 5.856 2.93751 5.85599 2.96287V11.5904C5.85599 11.7778 5.93043 11.9575 6.06292 12.0899C6.19542 12.2224 6.37512 12.2969 6.56249 12.2969C6.74987 12.2969 6.92957 12.2224 7.06206 12.0899C7.19456 11.9575 7.26899 11.7778 7.26899 11.5904V2.96287C7.26897 2.93744 7.27671 2.91261 7.29117 2.89169C7.30563 2.87077 7.32613 2.85476 7.34993 2.8458C7.37373 2.83683 7.39969 2.83534 7.42436 2.84152C7.44903 2.84769 7.47123 2.86125 7.48799 2.88037L11.2125 7.11287C11.2733 7.18417 11.3477 7.24266 11.4313 7.28493C11.5149 7.3272 11.6062 7.35242 11.6996 7.3591C11.7931 7.36579 11.887 7.35381 11.9758 7.32388C12.0645 7.29394 12.1465 7.24663 12.2168 7.18472C12.2872 7.1228 12.3445 7.04751 12.3855 6.96323C12.4264 6.87895 12.4502 6.78737 12.4554 6.69381C12.4607 6.60024 12.4472 6.50658 12.4159 6.41826C12.3846 6.32994 12.336 6.24874 12.273 6.17938Z" fill="#008009"/>
</svg>
