<svg width="16" height="17" viewBox="0 0 16 17" fill="none" xmlns="http://www.w3.org/2000/svg">
<path d="M7.0412 12.8592C6.90916 12.8593 6.78244 12.8072 6.6887 12.7142L2.58495 8.62423C2.53352 8.57915 2.49189 8.524 2.46263 8.46219C2.43337 8.40038 2.4171 8.33323 2.41483 8.26488C2.41255 8.19653 2.42432 8.12844 2.44941 8.06483C2.4745 8.00121 2.51237 7.94341 2.56068 7.89502C2.609 7.84662 2.66673 7.80864 2.7303 7.78344C2.79387 7.75824 2.86194 7.74635 2.93029 7.7485C2.99864 7.75066 3.06583 7.76681 3.12769 7.79596C3.18955 7.82511 3.24477 7.86664 3.28995 7.91798L6.9862 11.6005L12.6637 4.05923C12.7012 4.00215 12.7501 3.95337 12.8072 3.9159C12.8643 3.87842 12.9285 3.85306 12.9959 3.84136C13.0632 3.82967 13.1322 3.83189 13.1986 3.8479C13.265 3.86391 13.3274 3.89336 13.382 3.93444C13.4366 3.97551 13.4822 4.02734 13.516 4.08672C13.5498 4.14611 13.5711 4.21179 13.5785 4.2797C13.5859 4.34762 13.5793 4.41634 13.5591 4.48162C13.539 4.54689 13.5056 4.60734 13.4612 4.65923L7.43995 12.6592C7.39717 12.7167 7.34256 12.7643 7.27981 12.7988C7.21705 12.8333 7.14761 12.8539 7.0762 12.8592H7.0412Z" fill="#262626"/>
</svg>
