<svg width="14" height="15" viewBox="0 0 14 15" fill="none" xmlns="http://www.w3.org/2000/svg">
<path d="M5.6875 6.07812C5.68757 5.83752 5.75378 5.60156 5.87889 5.39604C6.00401 5.19052 6.1832 5.02335 6.39691 4.91279C6.61061 4.80223 6.85059 4.75254 7.09062 4.76915C7.33065 4.78577 7.5615 4.86804 7.75793 5.00698C7.95437 5.14593 8.10883 5.33619 8.20443 5.55699C8.30004 5.77779 8.33311 6.02062 8.30004 6.25894C8.26697 6.49726 8.16902 6.72191 8.0169 6.90832C7.86478 7.09474 7.66435 7.23576 7.4375 7.31596C7.18154 7.40645 6.95994 7.57409 6.80323 7.79578C6.64652 8.01748 6.56242 8.28231 6.5625 8.55379V9.14062C6.5625 9.25666 6.60859 9.36794 6.69064 9.44998C6.77269 9.53203 6.88397 9.57812 7 9.57812C7.11603 9.57812 7.22731 9.53203 7.30936 9.44998C7.39141 9.36794 7.4375 9.25666 7.4375 9.14062V8.55379C7.4375 8.36829 7.55417 8.20262 7.72917 8.14079C8.10726 8.00712 8.44133 7.77208 8.69486 7.46136C8.9484 7.15065 9.11164 6.77622 9.16675 6.379C9.22186 5.98177 9.16671 5.57704 9.00733 5.20905C8.84796 4.84105 8.59049 4.52394 8.26306 4.29239C7.93564 4.06084 7.55087 3.92374 7.15079 3.8961C6.75072 3.86846 6.35074 3.95132 5.99459 4.13564C5.63843 4.31996 5.33979 4.59864 5.13131 4.94122C4.92284 5.2838 4.81255 5.6771 4.8125 6.07812C4.8125 6.19416 4.85859 6.30544 4.94064 6.38748C5.02269 6.46953 5.13397 6.51562 5.25 6.51562C5.36603 6.51562 5.47731 6.46953 5.55936 6.38748C5.64141 6.30544 5.6875 6.19416 5.6875 6.07812ZM7 10.4531C6.91382 10.4531 6.82848 10.4701 6.74886 10.5031C6.66924 10.5361 6.5969 10.5844 6.53596 10.6453C6.47502 10.7063 6.42668 10.7786 6.3937 10.8582C6.36072 10.9379 6.34375 11.0232 6.34375 11.1094C6.34375 11.1956 6.36072 11.2809 6.3937 11.3605C6.42668 11.4401 6.47502 11.5125 6.53596 11.5734C6.5969 11.6344 6.66924 11.6827 6.74886 11.7157C6.82848 11.7486 6.91382 11.7656 7 11.7656C7.17405 11.7656 7.34097 11.6965 7.46404 11.5734C7.58711 11.4503 7.65625 11.2834 7.65625 11.1094C7.65625 10.9353 7.58711 10.7684 7.46404 10.6453C7.34097 10.5223 7.17405 10.4531 7 10.4531C6.88397 10.4531 6.77269 10.4992 6.69064 10.5813C6.60859 10.6633 6.5625 10.7746 6.5625 10.8906C6.5625 11.0067 6.60859 11.1179 6.69064 11.2C6.77269 11.282 6.88397 11.3281 7 11.3281C6.94198 11.3281 6.88634 11.3051 6.84532 11.2641C6.8043 11.223 6.78125 11.1674 6.78125 11.1094C6.78125 11.0514 6.8043 10.9957 6.84532 10.9547C6.88634 10.9137 6.94198 10.8906 7 10.8906C7.05802 10.8906 7.11366 10.9137 7.15468 10.9547C7.1957 10.9957 7.21875 11.0514 7.21875 11.1094C7.21875 11.1674 7.1957 11.223 7.15468 11.2641C7.11366 11.3051 7.05802 11.3281 7 11.3281C7.11603 11.3281 7.22731 11.282 7.30936 11.2C7.39141 11.1179 7.4375 11.0067 7.4375 10.8906C7.4375 10.7746 7.39141 10.6633 7.30936 10.5813C7.22731 10.4992 7.11603 10.4531 7 10.4531ZM13.125 7.82812C13.125 11.2109 10.3827 13.9531 7 13.9531C3.61725 13.9531 0.875 11.2109 0.875 7.82812C0.875 4.44538 3.61725 1.70312 7 1.70312C10.3827 1.70312 13.125 4.44538 13.125 7.82812ZM14 7.82812C14 3.96237 10.8657 0.828125 7 0.828125C3.13425 0.828125 0 3.96237 0 7.82812C0 11.6939 3.13425 14.8281 7 14.8281C10.8657 14.8281 14 11.6939 14 7.82812Z" fill="#262626"/>
</svg>
