<svg width="17" height="17" viewBox="0 0 17 17" fill="none" xmlns="http://www.w3.org/2000/svg">
<path d="M7.36932 12.5624C7.23728 12.5625 7.11057 12.5103 7.01682 12.4174L2.91307 8.32736C2.86165 8.28228 2.82002 8.22713 2.79076 8.16532C2.7615 8.10351 2.74523 8.03635 2.74295 7.96801C2.74068 7.89966 2.75245 7.83157 2.77754 7.76795C2.80262 7.70433 2.8405 7.64654 2.88881 7.59814C2.93712 7.54974 2.99485 7.51177 3.05842 7.48657C3.122 7.46137 3.19006 7.44947 3.25842 7.45163C3.32677 7.45378 3.39395 7.46993 3.45581 7.49908C3.51767 7.52823 3.5729 7.56977 3.61807 7.62111L7.31432 11.3036L12.9918 3.76236C13.0294 3.70528 13.0782 3.65649 13.1353 3.61902C13.1925 3.58155 13.2567 3.55618 13.324 3.54449C13.3913 3.53279 13.4603 3.53502 13.5267 3.55103C13.5931 3.56703 13.6556 3.59649 13.7102 3.63756C13.7648 3.67864 13.8104 3.73047 13.8442 3.78985C13.8779 3.84923 13.8992 3.91491 13.9066 3.98283C13.914 4.05075 13.9074 4.11947 13.8873 4.18474C13.8671 4.25002 13.8338 4.31047 13.7893 4.36236L7.76807 12.3624C7.7253 12.4198 7.67069 12.4674 7.60793 12.5019C7.54518 12.5364 7.47574 12.557 7.40432 12.5624H7.36932Z" fill="#262626"/>
</svg>
