<svg width="20" height="21" viewBox="0 0 20 21" fill="none" xmlns="http://www.w3.org/2000/svg">
<path d="M4.79167 1.38672H15.2083C15.7833 1.38672 16.25 1.85339 16.25 2.42839V13.6784C16.25 13.7336 16.2281 13.7866 16.189 13.8257C16.1499 13.8648 16.0969 13.8867 16.0417 13.8867H3.95833C3.90308 13.8867 3.85009 13.8648 3.81102 13.8257C3.77195 13.7866 3.75 13.7336 3.75 13.6784V2.42839C3.75 1.85339 4.21667 1.38672 4.79167 1.38672ZM4.79167 0.136719C4.18388 0.136719 3.60098 0.378162 3.17121 0.807932C2.74144 1.2377 2.5 1.8206 2.5 2.42839V13.6784C2.5 14.4834 3.15333 15.1367 3.95833 15.1367H16.0417C16.4284 15.1367 16.7994 14.9831 17.0729 14.7096C17.3464 14.4361 17.5 14.0652 17.5 13.6784V2.42839C17.5 1.8206 17.2586 1.2377 16.8288 0.807932C16.399 0.378162 15.8161 0.136719 15.2083 0.136719H4.79167ZM1.75 19.8867L3.625 17.3867C3.67425 17.3211 3.71008 17.2463 3.73045 17.1668C3.75082 17.0873 3.75533 17.0046 3.74372 16.9233C3.73211 16.8421 3.70461 16.7639 3.6628 16.6933C3.62098 16.6227 3.56566 16.561 3.5 16.5117C3.43434 16.4625 3.35962 16.4266 3.28011 16.4063C3.2006 16.3859 3.11786 16.3814 3.03661 16.393C2.95536 16.4046 2.87719 16.4321 2.80657 16.4739C2.73594 16.5157 2.67425 16.5711 2.625 16.6367L0.75 19.1367C0.700754 19.2024 0.664924 19.2771 0.644554 19.3566C0.624184 19.4361 0.619674 19.5189 0.631282 19.6001C0.642889 19.6814 0.670386 19.7595 0.712203 19.8302C0.754021 19.9008 0.809339 19.9625 0.875 20.0117C0.940661 20.061 1.01538 20.0968 1.09489 20.1172C1.1744 20.1375 1.25714 20.142 1.33839 20.1304C1.41964 20.1188 1.49781 20.0913 1.56843 20.0495C1.63906 20.0077 1.70075 19.9524 1.75 19.8867ZM19.25 19.1367L17.375 16.6367C17.3258 16.5711 17.2641 16.5157 17.1934 16.4739C17.1228 16.4321 17.0446 16.4046 16.9634 16.393C16.8821 16.3814 16.7994 16.3859 16.7199 16.4063C16.6404 16.4266 16.5657 16.4625 16.5 16.5117C16.4343 16.561 16.379 16.6227 16.3372 16.6933C16.2954 16.7639 16.2679 16.8421 16.2563 16.9233C16.2447 17.0046 16.2492 17.0873 16.2696 17.1668C16.2899 17.2463 16.3258 17.3211 16.375 17.3867L18.25 19.8867C18.2992 19.9524 18.3609 20.0077 18.4316 20.0495C18.5022 20.0913 18.5804 20.1188 18.6616 20.1304C18.7429 20.142 18.8256 20.1375 18.9051 20.1172C18.9846 20.0968 19.0593 20.061 19.125 20.0117C19.1907 19.9625 19.246 19.9008 19.2878 19.8302C19.3296 19.7595 19.3571 19.6814 19.3687 19.6001C19.3803 19.5189 19.3758 19.4361 19.3554 19.3566C19.3351 19.2771 19.2992 19.2024 19.25 19.1367ZM3.125 8.88672H16.875C17.0408 8.88672 17.1997 8.82087 17.3169 8.70366C17.4342 8.58645 17.5 8.42748 17.5 8.26172C17.5 8.09596 17.4342 7.93699 17.3169 7.81978C17.1997 7.70257 17.0408 7.63672 16.875 7.63672H3.125C2.95924 7.63672 2.80027 7.70257 2.68306 7.81978C2.56585 7.93699 2.5 8.09596 2.5 8.26172C2.5 8.42748 2.56585 8.58645 2.68306 8.70366C2.80027 8.82087 2.95924 8.88672 3.125 8.88672ZM9.375 0.761719V8.26172C9.375 8.42748 9.44085 8.58645 9.55806 8.70366C9.67527 8.82087 9.83424 8.88672 10 8.88672C10.1658 8.88672 10.3247 8.82087 10.4419 8.70366C10.5592 8.58645 10.625 8.42748 10.625 8.26172V0.761719C10.625 0.595958 10.5592 0.436987 10.4419 0.319777C10.3247 0.202567 10.1658 0.136719 10 0.136719C9.83424 0.136719 9.67527 0.202567 9.55806 0.319777C9.44085 0.436987 9.375 0.595958 9.375 0.761719ZM3.125 11.3867H6.25C6.41576 11.3867 6.57473 11.3209 6.69194 11.2037C6.80915 11.0865 6.875 10.9275 6.875 10.7617C6.875 10.596 6.80915 10.437 6.69194 10.3198C6.57473 10.2026 6.41576 10.1367 6.25 10.1367H3.125C2.95924 10.1367 2.80027 10.2026 2.68306 10.3198C2.56585 10.437 2.5 10.596 2.5 10.7617C2.5 10.9275 2.56585 11.0865 2.68306 11.2037C2.80027 11.3209 2.95924 11.3867 3.125 11.3867ZM16.875 10.1367H13.75C13.5842 10.1367 13.4253 10.2026 13.3081 10.3198C13.1908 10.437 13.125 10.596 13.125 10.7617C13.125 10.9275 13.1908 11.0865 13.3081 11.2037C13.4253 11.3209 13.5842 11.3867 13.75 11.3867H16.875C17.0408 11.3867 17.1997 11.3209 17.3169 11.2037C17.4342 11.0865 17.5 10.9275 17.5 10.7617C17.5 10.596 17.4342 10.437 17.3169 10.3198C17.1997 10.2026 17.0408 10.1367 16.875 10.1367ZM7.43333 14.7909L8.68333 12.2909L8.125 12.6367H11.875L11.3167 12.2909L12.5667 14.7909C12.6007 14.8684 12.6502 14.9382 12.7121 14.996C12.774 15.0538 12.8469 15.0985 12.9266 15.1272C13.0062 15.156 13.0909 15.1682 13.1754 15.1633C13.2599 15.1583 13.3426 15.1362 13.4183 15.0984C13.4941 15.0605 13.5613 15.0076 13.616 14.943C13.6707 14.8783 13.7117 14.8032 13.7365 14.7223C13.7612 14.6413 13.7693 14.5561 13.7602 14.472C13.751 14.3878 13.7249 14.3063 13.6833 14.2326L12.4333 11.7326C12.3815 11.6288 12.3019 11.5415 12.2033 11.4804C12.1046 11.4193 11.991 11.3869 11.875 11.3867H8.125C8.00901 11.3869 7.89535 11.4193 7.79675 11.4804C7.69814 11.5415 7.61848 11.6288 7.56667 11.7326L6.31667 14.2326C6.2751 14.3063 6.24896 14.3878 6.23982 14.472C6.23069 14.5561 6.23876 14.6413 6.26355 14.7223C6.28833 14.8032 6.32931 14.8783 6.38399 14.943C6.43868 15.0076 6.50593 15.0605 6.58167 15.0984C6.65741 15.1362 6.74005 15.1583 6.82459 15.1633C6.90912 15.1682 6.99378 15.156 7.07342 15.1272C7.15307 15.0985 7.22604 15.0538 7.28791 14.996C7.34978 14.9382 7.39925 14.8684 7.43333 14.7909Z" fill="#262626"/>
</svg>
