<svg width="21" height="21" viewBox="0 0 21 21" fill="none" xmlns="http://www.w3.org/2000/svg">
<path d="M3.39062 4H13.3906C13.5564 4 13.7154 4.06585 13.8326 4.18306C13.9498 4.30027 14.0156 4.45924 14.0156 4.625V10.875C14.0156 12.3668 13.423 13.7976 12.3681 14.8525C11.3132 15.9074 9.88247 16.5 8.39062 16.5C6.89878 16.5 5.46804 15.9074 4.41315 14.8525C3.35826 13.7976 2.76562 12.3668 2.76562 10.875V4.625C2.76562 4.45924 2.83147 4.30027 2.94868 4.18306C3.06589 4.06585 3.22486 4 3.39062 4ZM3.39062 2.75C2.89334 2.75 2.41643 2.94754 2.0648 3.29917C1.71317 3.65081 1.51562 4.12772 1.51562 4.625V10.875C1.51562 12.6984 2.23995 14.447 3.52927 15.7364C4.81858 17.0257 6.56726 17.75 8.39062 17.75C10.214 17.75 11.9627 17.0257 13.252 15.7364C14.5413 14.447 15.2656 12.6984 15.2656 10.875V4.625C15.2656 4.12772 15.0681 3.65081 14.7164 3.29917C14.3648 2.94754 13.8879 2.75 13.3906 2.75H3.39062ZM0.890625 17.75H19.6406C19.8064 17.75 19.9654 17.6842 20.0826 17.5669C20.1998 17.4497 20.2656 17.2908 20.2656 17.125C20.2656 16.9592 20.1998 16.8003 20.0826 16.6831C19.9654 16.5658 19.8064 16.5 19.6406 16.5H0.890625C0.724865 16.5 0.565893 16.5658 0.448683 16.6831C0.331473 16.8003 0.265625 16.9592 0.265625 17.125C0.265625 17.2908 0.331473 17.4497 0.448683 17.5669C0.565893 17.6842 0.724865 17.75 0.890625 17.75ZM14.6406 5.25H15.8906C16.7188 5.25286 17.5123 5.58324 18.0978 6.16904C18.6832 6.75483 19.0132 7.54845 19.0156 8.37667C19.0125 9.20466 18.682 9.9978 18.0962 10.583C17.5105 11.1681 16.7169 11.4978 15.889 11.5H14.5156C14.3499 11.5 14.1909 11.5658 14.0737 11.6831C13.9565 11.8003 13.8906 11.9592 13.8906 12.125C13.8906 12.2908 13.9565 12.4497 14.0737 12.5669C14.1909 12.6842 14.3499 12.75 14.5156 12.75H15.8906C17.0498 12.7471 18.1607 12.2855 18.9805 11.466C19.8003 10.6465 20.2623 9.53582 20.2656 8.37667C20.263 7.21729 19.8015 6.1061 18.982 5.28599C18.1625 4.46587 17.0517 4.00352 15.8923 4H14.6406C14.4749 4 14.3159 4.06585 14.1987 4.18306C14.0815 4.30027 14.0156 4.45924 14.0156 4.625C14.0156 4.79076 14.0815 4.94973 14.1987 5.06694C14.3159 5.18415 14.4749 5.25 14.6406 5.25Z" fill="#008009"/>
</svg>
