<svg width="20" height="21" viewBox="0 0 20 21" fill="none" xmlns="http://www.w3.org/2000/svg">
<path d="M2.29167 10.7187H17.7083C18.2833 10.7187 18.75 11.1854 18.75 11.7604V15.7187L19.375 15.0937H0.625L1.25 15.7187V11.7604C1.25 11.1854 1.71667 10.7187 2.29167 10.7187ZM2.29167 9.46875C1.68388 9.46875 1.10098 9.71019 0.671214 10.14C0.241443 10.5697 0 11.1526 0 11.7604L0 15.7187C0 16.0637 0.28 16.3437 0.625 16.3437H19.375C19.5408 16.3437 19.6997 16.2779 19.8169 16.1607C19.9342 16.0435 20 15.8845 20 15.7187V11.7604C20 11.1526 19.7586 10.5697 19.3288 10.14C18.899 9.71019 18.3161 9.46875 17.7083 9.46875H2.29167ZM0 15.7187V18.2187C0 18.3845 0.065848 18.5435 0.183058 18.6607C0.300268 18.7779 0.45924 18.8437 0.625 18.8437C0.79076 18.8437 0.949731 18.7779 1.06694 18.6607C1.18415 18.5435 1.25 18.3845 1.25 18.2187V15.7187C1.25 15.553 1.18415 15.394 1.06694 15.2768C0.949731 15.1596 0.79076 15.0937 0.625 15.0937C0.45924 15.0937 0.300268 15.1596 0.183058 15.2768C0.065848 15.394 0 15.553 0 15.7187ZM18.75 15.7187V18.2187C18.75 18.3845 18.8158 18.5435 18.9331 18.6607C19.0503 18.7779 19.2092 18.8437 19.375 18.8437C19.5408 18.8437 19.6997 18.7779 19.8169 18.6607C19.9342 18.5435 20 18.3845 20 18.2187V15.7187C20 15.553 19.9342 15.394 19.8169 15.2768C19.6997 15.1596 19.5408 15.0937 19.375 15.0937C19.2092 15.0937 19.0503 15.1596 18.9331 15.2768C18.8158 15.394 18.75 15.553 18.75 15.7187ZM18.125 10.0937V4.46875C18.125 3.97147 17.9275 3.49456 17.5758 3.14292C17.2242 2.79129 16.7473 2.59375 16.25 2.59375H3.75C3.25272 2.59375 2.77581 2.79129 2.42417 3.14292C2.07254 3.49456 1.875 3.97147 1.875 4.46875V10.0937C1.875 10.2595 1.94085 10.4185 2.05806 10.5357C2.17527 10.6529 2.33424 10.7187 2.5 10.7187C2.66576 10.7187 2.82473 10.6529 2.94194 10.5357C3.05915 10.4185 3.125 10.2595 3.125 10.0937V4.46875C3.125 4.30299 3.19085 4.14402 3.30806 4.02681C3.42527 3.9096 3.58424 3.84375 3.75 3.84375H16.25C16.4158 3.84375 16.5747 3.9096 16.6919 4.02681C16.8092 4.14402 16.875 4.30299 16.875 4.46875V10.0937C16.875 10.2595 16.9408 10.4185 17.0581 10.5357C17.1753 10.6529 17.3342 10.7187 17.5 10.7187C17.6658 10.7187 17.8247 10.6529 17.9419 10.5357C18.0592 10.4185 18.125 10.2595 18.125 10.0937ZM7.08333 7.59375H12.9167C12.9719 7.59375 13.0249 7.6157 13.064 7.65477C13.1031 7.69384 13.125 7.74683 13.125 7.80208V10.0937L13.75 9.46875H6.25L6.875 10.0937V7.80208C6.875 7.74683 6.89695 7.69384 6.93602 7.65477C6.97509 7.6157 7.02808 7.59375 7.08333 7.59375ZM7.08333 6.34375C6.69656 6.34375 6.32563 6.4974 6.05214 6.77089C5.77865 7.04438 5.625 7.41531 5.625 7.80208V10.0937C5.625 10.4387 5.905 10.7187 6.25 10.7187H13.75C13.9158 10.7187 14.0747 10.6529 14.1919 10.5357C14.3092 10.4185 14.375 10.2595 14.375 10.0937V7.80208C14.375 7.41531 14.2214 7.04438 13.9479 6.77089C13.6744 6.4974 13.3034 6.34375 12.9167 6.34375H7.08333Z" fill="#262626"/>
</svg>
