<svg width="20" height="21" viewBox="0 0 20 21" fill="none" xmlns="http://www.w3.org/2000/svg">
<path d="M18.7517 12.0781V18.9531C18.7517 19.1189 18.6859 19.2779 18.5686 19.3951C18.4514 19.5123 18.2925 19.5781 18.1267 19.5781H1.87671C1.71095 19.5781 1.55198 19.5123 1.43477 19.3951C1.31756 19.2779 1.25171 19.1189 1.25171 18.9531V5.20312C1.25171 5.03736 1.31756 4.87839 1.43477 4.76118C1.55198 4.64397 1.71095 4.57812 1.87671 4.57812H18.1267C18.2925 4.57812 18.4514 4.64397 18.5686 4.76118C18.6859 4.87839 18.7517 5.03736 18.7517 5.20312V12.0781ZM20.0017 12.0781V5.20312C20.0017 4.70584 19.8042 4.22893 19.4525 3.8773C19.1009 3.52567 18.624 3.32812 18.1267 3.32812H1.87671C1.37943 3.32812 0.902514 3.52567 0.550884 3.8773C0.199253 4.22893 0.00170898 4.70584 0.00170898 5.20312V18.9531C0.00170898 19.4504 0.199253 19.9273 0.550884 20.2789C0.724994 20.4531 0.931692 20.5912 1.15918 20.6854C1.38666 20.7796 1.63048 20.8281 1.87671 20.8281H18.1267C18.624 20.8281 19.1009 20.6306 19.4525 20.2789C19.8042 19.9273 20.0017 19.4504 20.0017 18.9531V12.0781ZM0.626709 9.57812H19.3767C19.5425 9.57812 19.7014 9.51228 19.8186 9.39507C19.9359 9.27786 20.0017 9.11889 20.0017 8.95312C20.0017 8.78736 19.9359 8.62839 19.8186 8.51118C19.7014 8.39397 19.5425 8.32812 19.3767 8.32812H0.626709C0.460949 8.32812 0.301977 8.39397 0.184767 8.51118C0.067557 8.62839 0.00170898 8.78736 0.00170898 8.95312C0.00170898 9.11889 0.067557 9.27786 0.184767 9.39507C0.301977 9.51228 0.460949 9.57812 0.626709 9.57812ZM6.25171 5.82812V1.45312C6.25171 1.28736 6.18586 1.12839 6.06865 1.01118C5.95144 0.893973 5.79247 0.828125 5.62671 0.828125C5.46095 0.828125 5.30198 0.893973 5.18477 1.01118C5.06756 1.12839 5.00171 1.28736 5.00171 1.45312V5.82812C5.00171 5.99389 5.06756 6.15286 5.18477 6.27007C5.30198 6.38728 5.46095 6.45312 5.62671 6.45312C5.79247 6.45312 5.95144 6.38728 6.06865 6.27007C6.18586 6.15286 6.25171 5.99389 6.25171 5.82812ZM15.0017 5.82812V1.45312C15.0017 1.28736 14.9359 1.12839 14.8186 1.01118C14.7014 0.893973 14.5425 0.828125 14.3767 0.828125C14.2109 0.828125 14.052 0.893973 13.9348 1.01118C13.8176 1.12839 13.7517 1.28736 13.7517 1.45312V5.82812C13.7517 5.99389 13.8176 6.15286 13.9348 6.27007C14.052 6.38728 14.2109 6.45312 14.3767 6.45312C14.5425 6.45312 14.7014 6.38728 14.8186 6.27007C14.9359 6.15286 15.0017 5.99389 15.0017 5.82812Z" fill="#262626"/>
</svg>
