<svg width="13" height="13" viewBox="0 0 13 13" fill="none" xmlns="http://www.w3.org/2000/svg">
<path d="M12.5074 6.17938L7.68087 0.696875C7.44764 0.456192 7.13162 0.313196 6.79687 0.296875C6.46217 0.313394 6.14622 0.456358 5.91287 0.696875L1.08637 6.17938C1.02336 6.24874 0.974786 6.32994 0.943465 6.41826C0.912144 6.50658 0.898706 6.60024 0.903932 6.69381C0.909158 6.78737 0.932944 6.87895 0.973906 6.96323C1.01487 7.04751 1.07219 7.1228 1.14253 7.18472C1.21286 7.24663 1.29482 7.29394 1.38361 7.32388C1.47241 7.35381 1.56627 7.36579 1.65974 7.3591C1.75321 7.35242 1.84441 7.3272 1.92804 7.28493C2.01167 7.24266 2.08606 7.18417 2.14687 7.11287L5.87187 2.87987C5.8887 2.8609 5.91091 2.8475 5.93553 2.84145C5.96016 2.8354 5.98605 2.83698 6.00976 2.84598C6.03347 2.85499 6.05387 2.87099 6.06827 2.89187C6.08267 2.91275 6.09038 2.93751 6.09037 2.96287V11.5904C6.09037 11.7778 6.1648 11.9575 6.2973 12.0899C6.42979 12.2224 6.60949 12.2969 6.79687 12.2969C6.98424 12.2969 7.16395 12.2224 7.29644 12.0899C7.42893 11.9575 7.50337 11.7778 7.50337 11.5904V2.96287C7.50335 2.93744 7.51108 2.91261 7.52555 2.89169C7.54001 2.87077 7.5605 2.85476 7.5843 2.8458C7.6081 2.83683 7.63407 2.83534 7.65874 2.84152C7.68341 2.84769 7.70561 2.86125 7.72237 2.88037L11.4469 7.11287C11.5077 7.18417 11.5821 7.24266 11.6657 7.28493C11.7493 7.3272 11.8405 7.35242 11.934 7.3591C12.0275 7.36579 12.1213 7.35381 12.2101 7.32388C12.2989 7.29394 12.3809 7.24663 12.4512 7.18472C12.5216 7.1228 12.5789 7.04751 12.6198 6.96323C12.6608 6.87895 12.6846 6.78737 12.6898 6.69381C12.695 6.60024 12.6816 6.50658 12.6503 6.41826C12.619 6.32994 12.5704 6.24874 12.5074 6.17938Z" fill="#008009"/>
</svg>
