<svg width="16" height="17" viewBox="0 0 16 17" fill="none" xmlns="http://www.w3.org/2000/svg">
<path d="M7.0412 12.5155C6.90916 12.5156 6.78244 12.4635 6.6887 12.3705L2.58495 8.28048C2.53352 8.2354 2.49189 8.18025 2.46263 8.11844C2.43337 8.05663 2.4171 7.98948 2.41483 7.92113C2.41255 7.85278 2.42432 7.78469 2.44941 7.72108C2.4745 7.65746 2.51237 7.59966 2.56068 7.55127C2.609 7.50287 2.66673 7.46489 2.7303 7.43969C2.79387 7.41449 2.86194 7.4026 2.93029 7.40475C2.99864 7.40691 3.06583 7.42306 3.12769 7.45221C3.18955 7.48136 3.24477 7.52289 3.28995 7.57423L6.9862 11.2567L12.6637 3.71548C12.7012 3.6584 12.7501 3.60962 12.8072 3.57215C12.8643 3.53467 12.9285 3.50931 12.9959 3.49761C13.0632 3.48592 13.1322 3.48814 13.1986 3.50415C13.265 3.52016 13.3274 3.54961 13.382 3.59069C13.4366 3.63176 13.4822 3.68359 13.516 3.74297C13.5498 3.80236 13.5711 3.86804 13.5785 3.93595C13.5859 4.00387 13.5793 4.07259 13.5591 4.13787C13.539 4.20314 13.5056 4.26359 13.4612 4.31548L7.43995 12.3155C7.39717 12.3729 7.34256 12.4205 7.27981 12.455C7.21705 12.4895 7.14761 12.5101 7.0762 12.5155H7.0412Z" fill="#262626"/>
</svg>
