<svg width="13" height="13" viewBox="0 0 13 13" fill="none" xmlns="http://www.w3.org/2000/svg">
<path d="M11.9605 6.17938L7.13399 0.696875C6.90076 0.456192 6.58474 0.313196 6.24999 0.296875C5.91529 0.313394 5.59934 0.456358 5.36599 0.696875L0.539494 6.17938C0.476488 6.24874 0.427911 6.32994 0.39659 6.41826C0.365269 6.50658 0.351831 6.60024 0.357057 6.69381C0.362283 6.78737 0.386069 6.87895 0.427031 6.96323C0.467993 7.04751 0.525312 7.1228 0.59565 7.18472C0.665989 7.24663 0.747942 7.29394 0.836737 7.32388C0.925533 7.35381 1.0194 7.36579 1.11287 7.3591C1.20633 7.35242 1.29754 7.3272 1.38117 7.28493C1.4648 7.24266 1.53918 7.18417 1.59999 7.11287L5.32499 2.87987C5.34183 2.8609 5.36403 2.8475 5.38866 2.84145C5.41329 2.8354 5.43917 2.83698 5.46288 2.84598C5.48659 2.85499 5.507 2.87099 5.5214 2.89187C5.53579 2.91275 5.5435 2.93751 5.54349 2.96287V11.5904C5.54349 11.7778 5.61793 11.9575 5.75042 12.0899C5.88292 12.2224 6.06262 12.2969 6.24999 12.2969C6.43737 12.2969 6.61707 12.2224 6.74956 12.0899C6.88206 11.9575 6.95649 11.7778 6.95649 11.5904V2.96287C6.95647 2.93744 6.96421 2.91261 6.97867 2.89169C6.99313 2.87077 7.01363 2.85476 7.03743 2.8458C7.06123 2.83683 7.08719 2.83534 7.11186 2.84152C7.13653 2.84769 7.15873 2.86125 7.17549 2.88037L10.9 7.11287C10.9608 7.18417 11.0352 7.24266 11.1188 7.28493C11.2024 7.3272 11.2937 7.35242 11.3871 7.3591C11.4806 7.36579 11.5745 7.35381 11.6633 7.32388C11.752 7.29394 11.834 7.24663 11.9043 7.18472C11.9747 7.1228 12.032 7.04751 12.073 6.96323C12.1139 6.87895 12.1377 6.78737 12.1429 6.69381C12.1482 6.60024 12.1347 6.50658 12.1034 6.41826C12.0721 6.32994 12.0235 6.24874 11.9605 6.17938Z" fill="#008009"/>
</svg>
