<svg width="20" height="21" viewBox="0 0 20 21" fill="none" xmlns="http://www.w3.org/2000/svg">
<path d="M11.875 15.8754C11.875 16.3726 11.6775 16.8495 11.3258 17.2012C10.9742 17.5528 10.4973 17.7504 10 17.7504C9.50273 17.7504 9.02582 17.5528 8.67418 17.2012C8.32255 16.8495 8.12501 16.3726 8.12501 15.8754C8.12501 15.3781 8.32255 14.9012 8.67418 14.5495C9.02582 14.1979 9.50273 14.0004 10 14.0004C10.4973 14.0004 10.9742 14.1979 11.3258 14.5495C11.6775 14.9012 11.875 15.3781 11.875 15.8754ZM13.125 15.8754C13.125 15.0466 12.7958 14.2517 12.2097 13.6656C11.6237 13.0796 10.8288 12.7504 10 12.7504C9.17121 12.7504 8.37635 13.0796 7.7903 13.6656C7.20425 14.2517 6.87501 15.0466 6.87501 15.8754C6.87501 16.7042 7.20425 17.499 7.7903 18.0851C8.37635 18.6711 9.17121 19.0004 10 19.0004C10.8288 19.0004 11.6237 18.6711 12.2097 18.0851C12.7958 17.499 13.125 16.7042 13.125 15.8754ZM14.8583 11.0145C13.5691 9.72553 11.8206 9.0014 9.99751 9.0014C8.1744 9.0014 6.42595 9.72553 5.13668 11.0145C5.02628 11.133 4.96617 11.2897 4.96903 11.4516C4.97189 11.6135 5.03748 11.768 5.15199 11.8825C5.2665 11.997 5.42099 12.0626 5.58291 12.0655C5.74483 12.0684 5.90153 12.0083 6.02001 11.8979C6.54234 11.3755 7.16244 10.9612 7.8449 10.6785C8.52736 10.3958 9.25882 10.2503 9.99751 10.2503C10.7362 10.2503 11.4677 10.3958 12.1501 10.6785C12.8326 10.9612 13.4527 11.3755 13.975 11.8979C14.0935 12.0083 14.2502 12.0684 14.4121 12.0655C14.574 12.0626 14.7285 11.997 14.843 11.8825C14.9575 11.768 15.0231 11.6135 15.026 11.4516C15.0288 11.2897 14.9687 11.133 14.8583 11.0145ZM17.5125 8.36285C13.3633 4.21285 6.63668 4.21285 2.48751 8.36285C2.4261 8.42007 2.37685 8.48907 2.34269 8.56574C2.30853 8.6424 2.29016 8.72516 2.28868 8.80908C2.2872 8.893 2.30264 8.97636 2.33407 9.05418C2.36551 9.13201 2.4123 9.2027 2.47164 9.26205C2.53099 9.3214 2.60169 9.36819 2.67951 9.39962C2.75734 9.43106 2.84069 9.44649 2.92461 9.44501C3.00853 9.44353 3.09129 9.42516 3.16796 9.391C3.24462 9.35684 3.31363 9.30759 3.37084 9.24619C7.03251 5.58535 12.9675 5.58535 16.6292 9.24619C16.6864 9.30759 16.7554 9.35684 16.8321 9.391C16.9087 9.42516 16.9915 9.44353 17.0754 9.44501C17.1593 9.44649 17.2427 9.43106 17.3205 9.39962C17.3983 9.36819 17.469 9.3214 17.5284 9.26205C17.5877 9.2027 17.6345 9.13201 17.6659 9.05418C17.6974 8.97636 17.7128 8.893 17.7113 8.80908C17.7099 8.72516 17.6915 8.6424 17.6573 8.56574C17.6232 8.48907 17.5739 8.42007 17.5125 8.36285ZM19.8008 5.36035C14.28 0.214518 5.72001 0.214518 0.20001 5.36035C0.13589 5.41507 0.0834999 5.48219 0.0459929 5.55768C0.00848588 5.63317 -0.0133633 5.71547 -0.0182402 5.79962C-0.023117 5.88377 -0.0109208 5.96804 0.0176147 6.04736C0.0461503 6.12667 0.0904355 6.1994 0.147806 6.26116C0.205177 6.32291 0.274447 6.37243 0.35145 6.40672C0.428453 6.44101 0.511597 6.45937 0.59588 6.4607C0.680163 6.46203 0.763844 6.44629 0.841887 6.41444C0.919931 6.38258 0.990725 6.33527 1.05001 6.27535C6.09168 1.57702 13.9075 1.57702 18.9483 6.27535C19.0084 6.33127 19.0789 6.37481 19.1558 6.40349C19.2327 6.43216 19.3145 6.4454 19.3966 6.44246C19.4786 6.43952 19.5592 6.42045 19.6339 6.38635C19.7085 6.35224 19.7758 6.30376 19.8317 6.24368C19.8876 6.1836 19.9311 6.1131 19.9598 6.03619C19.9885 5.95929 20.0017 5.87749 19.9988 5.79546C19.9958 5.71344 19.9768 5.63279 19.9427 5.55814C19.9086 5.48348 19.8609 5.41627 19.8008 5.36035Z" fill="#008009"/>
</svg>
