<svg width="17" height="17" viewBox="0 0 17 17" fill="none" xmlns="http://www.w3.org/2000/svg">
<path d="M7.69745 12.5624C7.56541 12.5625 7.43869 12.5103 7.34495 12.4174L3.2412 8.32736C3.18977 8.28228 3.14814 8.22713 3.11888 8.16532C3.08962 8.10351 3.07335 8.03635 3.07108 7.96801C3.0688 7.89966 3.08057 7.83157 3.10566 7.76795C3.13075 7.70433 3.16862 7.64654 3.21693 7.59814C3.26525 7.54974 3.32298 7.51177 3.38655 7.48657C3.45012 7.46137 3.51819 7.44947 3.58654 7.45163C3.65489 7.45378 3.72208 7.46993 3.78394 7.49908C3.8458 7.52823 3.90102 7.56977 3.9462 7.62111L7.64245 11.3036L13.3199 3.76236C13.3575 3.70528 13.4063 3.65649 13.4635 3.61902C13.5206 3.58155 13.5848 3.55618 13.6521 3.54449C13.7194 3.53279 13.7884 3.53502 13.8548 3.55103C13.9213 3.56703 13.9837 3.59649 14.0383 3.63756C14.0929 3.67864 14.1385 3.73047 14.1723 3.78985C14.2061 3.84923 14.2273 3.91491 14.2347 3.98283C14.2422 4.05075 14.2356 4.11947 14.2154 4.18474C14.1952 4.25002 14.1619 4.31047 14.1174 4.36236L8.0962 12.3624C8.05342 12.4198 7.99881 12.4674 7.93606 12.5019C7.8733 12.5364 7.80386 12.557 7.73245 12.5624H7.69745Z" fill="#262626"/>
</svg>
