<svg width="16" height="17" viewBox="0 0 16 17" fill="none" xmlns="http://www.w3.org/2000/svg">
<path d="M7.0412 12.7499C6.90916 12.75 6.78244 12.6978 6.6887 12.6049L2.58495 8.51486C2.53352 8.46978 2.49189 8.41463 2.46263 8.35282C2.43337 8.29101 2.4171 8.22385 2.41483 8.15551C2.41255 8.08716 2.42432 8.01907 2.44941 7.95545C2.4745 7.89183 2.51237 7.83404 2.56068 7.78564C2.609 7.73724 2.66673 7.69927 2.7303 7.67407C2.79387 7.64887 2.86194 7.63697 2.93029 7.63913C2.99864 7.64128 3.06583 7.65743 3.12769 7.68658C3.18955 7.71573 3.24477 7.75727 3.28995 7.80861L6.9862 11.4911L12.6637 3.94986C12.7012 3.89278 12.7501 3.84399 12.8072 3.80652C12.8643 3.76905 12.9285 3.74368 12.9959 3.73199C13.0632 3.72029 13.1322 3.72252 13.1986 3.73853C13.265 3.75453 13.3274 3.78399 13.382 3.82506C13.4366 3.86614 13.4822 3.91797 13.516 3.97735C13.5498 4.03673 13.5711 4.10241 13.5785 4.17033C13.5859 4.23825 13.5793 4.30697 13.5591 4.37224C13.539 4.43752 13.5056 4.49797 13.4612 4.54986L7.43995 12.5499C7.39717 12.6073 7.34256 12.6549 7.27981 12.6894C7.21705 12.7239 7.14761 12.7445 7.0762 12.7499H7.0412Z" fill="#262626"/>
</svg>
