<svg width="16" height="17" viewBox="0 0 16 17" fill="none" xmlns="http://www.w3.org/2000/svg">
<path d="M13.5 7.79688H8.5V2.79688C8.5 2.66427 8.44732 2.53709 8.35355 2.44332C8.25979 2.34955 8.13261 2.29688 8 2.29688C7.86739 2.29688 7.74022 2.34955 7.64645 2.44332C7.55268 2.53709 7.5 2.66427 7.5 2.79688V7.79688H2.5C2.36739 7.79688 2.24021 7.84955 2.14645 7.94332C2.05268 8.03709 2 8.16427 2 8.29688C2 8.42948 2.05268 8.55666 2.14645 8.65043C2.24021 8.7442 2.36739 8.79688 2.5 8.79688H7.5V13.7969C7.5 13.9295 7.55268 14.0567 7.64645 14.1504C7.74022 14.2442 7.86739 14.2969 8 14.2969C8.13261 14.2969 8.25979 14.2442 8.35355 14.1504C8.44732 14.0567 8.5 13.9295 8.5 13.7969V8.79688H13.5C13.6326 8.79688 13.7598 8.7442 13.8536 8.65043C13.9473 8.55666 14 8.42948 14 8.29688C14 8.16427 13.9473 8.03709 13.8536 7.94332C13.7598 7.84955 13.6326 7.79688 13.5 7.79688Z" fill="#262626"/>
</svg>
