<svg width="13" height="13" viewBox="0 0 13 13" fill="none" xmlns="http://www.w3.org/2000/svg">
<path d="M11.8355 6.17938L7.00899 0.696875C6.77576 0.456192 6.45974 0.313196 6.12499 0.296875C5.79029 0.313394 5.47434 0.456358 5.24099 0.696875L0.414494 6.17938C0.351488 6.24874 0.302911 6.32994 0.27159 6.41826C0.240269 6.50658 0.226831 6.60024 0.232057 6.69381C0.237283 6.78737 0.261069 6.87895 0.302031 6.96323C0.342993 7.04751 0.400312 7.1228 0.47065 7.18472C0.540989 7.24663 0.622942 7.29394 0.711737 7.32388C0.800533 7.35381 0.894397 7.36579 0.987866 7.3591C1.08133 7.35242 1.17254 7.3272 1.25617 7.28493C1.3398 7.24266 1.41418 7.18417 1.47499 7.11287L5.19999 2.87987C5.21683 2.8609 5.23903 2.8475 5.26366 2.84145C5.28829 2.8354 5.31417 2.83698 5.33788 2.84598C5.36159 2.85499 5.382 2.87099 5.3964 2.89187C5.41079 2.91275 5.4185 2.93751 5.41849 2.96287V11.5904C5.41849 11.7778 5.49293 11.9575 5.62542 12.0899C5.75792 12.2224 5.93762 12.2969 6.12499 12.2969C6.31237 12.2969 6.49207 12.2224 6.62456 12.0899C6.75706 11.9575 6.83149 11.7778 6.83149 11.5904V2.96287C6.83147 2.93744 6.83921 2.91261 6.85367 2.89169C6.86813 2.87077 6.88863 2.85476 6.91243 2.8458C6.93623 2.83683 6.96219 2.83534 6.98686 2.84152C7.01153 2.84769 7.03373 2.86125 7.05049 2.88037L10.775 7.11287C10.8358 7.18417 10.9102 7.24266 10.9938 7.28493C11.0774 7.3272 11.1687 7.35242 11.2621 7.3591C11.3556 7.36579 11.4495 7.35381 11.5383 7.32388C11.627 7.29394 11.709 7.24663 11.7793 7.18472C11.8497 7.1228 11.907 7.04751 11.948 6.96323C11.9889 6.87895 12.0127 6.78737 12.0179 6.69381C12.0232 6.60024 12.0097 6.50658 11.9784 6.41826C11.9471 6.32994 11.8985 6.24874 11.8355 6.17938Z" fill="#008009"/>
</svg>
