<svg width="16" height="17" viewBox="0 0 16 17" fill="none" xmlns="http://www.w3.org/2000/svg">
<path d="M7.0412 13.1561C6.90916 13.1562 6.78244 13.1041 6.6887 13.0111L2.58495 8.92111C2.53352 8.87603 2.49189 8.82088 2.46263 8.75907C2.43337 8.69726 2.4171 8.6301 2.41483 8.56176C2.41255 8.49341 2.42432 8.42532 2.44941 8.3617C2.4745 8.29808 2.51237 8.24029 2.56068 8.19189C2.609 8.14349 2.66673 8.10552 2.7303 8.08032C2.79387 8.05512 2.86194 8.04322 2.93029 8.04538C2.99864 8.04753 3.06583 8.06368 3.12769 8.09283C3.18955 8.12198 3.24477 8.16352 3.28995 8.21486L6.9862 11.8974L12.6637 4.35611C12.7012 4.29903 12.7501 4.25024 12.8072 4.21277C12.8643 4.1753 12.9285 4.14993 12.9959 4.13824C13.0632 4.12654 13.1322 4.12877 13.1986 4.14478C13.265 4.16078 13.3274 4.19024 13.382 4.23131C13.4366 4.27239 13.4822 4.32422 13.516 4.3836C13.5498 4.44298 13.5711 4.50866 13.5785 4.57658C13.5859 4.6445 13.5793 4.71322 13.5591 4.77849C13.539 4.84377 13.5056 4.90422 13.4612 4.95611L7.43995 12.9561C7.39717 13.0136 7.34256 13.0611 7.27981 13.0956C7.21705 13.1301 7.14761 13.1508 7.0762 13.1561H7.0412Z" fill="#262626"/>
</svg>
