<svg width="20" height="21" viewBox="0 0 20 21" fill="none" xmlns="http://www.w3.org/2000/svg">
<path d="M3.75001 7.5C3.75001 7.33424 3.81586 7.17527 3.93307 7.05806C4.05028 6.94085 4.20925 6.875 4.37501 6.875H8.75001V5.625H4.37501C3.87773 5.625 3.40081 5.82255 3.04918 6.17418C2.69755 6.52581 2.50001 7.00272 2.50001 7.5V11.25L3.75001 10V7.5ZM10.625 6.25C10.625 5.50832 10.8449 4.7833 11.257 4.16661C11.6691 3.54993 12.2547 3.06928 12.9399 2.78545C13.6252 2.50162 14.3792 2.42736 15.1066 2.57206C15.834 2.71675 16.5022 3.0739 17.0267 3.59835C17.5511 4.1228 17.9083 4.79098 18.053 5.51841C18.1976 6.24584 18.1234 6.99984 17.8396 7.68506C17.5557 8.37029 17.0751 8.95596 16.4584 9.36801C15.8417 9.78007 15.1167 10 14.375 10C13.3804 10 12.4266 9.60491 11.7234 8.90165C11.0201 8.19839 10.625 7.24456 10.625 6.25ZM11.875 6.71875C11.875 6.76019 11.8915 6.79993 11.9208 6.82924C11.9501 6.85854 11.9898 6.875 12.0313 6.875H13.5938C13.6352 6.875 13.6749 6.89146 13.7042 6.92077C13.7335 6.95007 13.75 6.98981 13.75 7.03125V8.59375C13.75 8.63519 13.7665 8.67493 13.7958 8.70424C13.8251 8.73354 13.8648 8.75 13.9063 8.75H14.8438C14.8852 8.75 14.9249 8.73354 14.9542 8.70424C14.9835 8.67493 15 8.63519 15 8.59375V7.03125C15 6.98981 15.0165 6.95007 15.0458 6.92077C15.0751 6.89146 15.1148 6.875 15.1563 6.875H16.7188C16.7602 6.875 16.7999 6.85854 16.8292 6.82924C16.8585 6.79993 16.875 6.76019 16.875 6.71875V5.78125C16.875 5.73981 16.8585 5.70007 16.8292 5.67077C16.7999 5.64146 16.7602 5.625 16.7188 5.625H15.1563C15.1148 5.625 15.0751 5.60854 15.0458 5.57924C15.0165 5.54993 15 5.51019 15 5.46875V3.90625C15 3.86481 14.9835 3.82507 14.9542 3.79577C14.9249 3.76646 14.8852 3.75 14.8438 3.75H13.9063C13.8648 3.75 13.8251 3.76646 13.7958 3.79577C13.7665 3.82507 13.75 3.86481 13.75 3.90625V5.46875C13.75 5.51019 13.7335 5.54993 13.7042 5.57924C13.6749 5.60854 13.6352 5.625 13.5938 5.625H12.0313C11.9898 5.625 11.9501 5.64146 11.9208 5.67077C11.8915 5.70007 11.875 5.73981 11.875 5.78125V6.71875ZM18.75 16.875V18.7188C18.7551 18.8786 18.7002 19.0346 18.5961 19.156C18.492 19.2775 18.3463 19.3556 18.1875 19.375C18.1003 19.3838 18.0123 19.3741 17.9291 19.3466C17.8459 19.3192 17.7694 19.2745 17.7046 19.2156C17.6398 19.1567 17.588 19.0848 17.5528 19.0045C17.5176 18.9243 17.4996 18.8376 17.5 18.75V18.125H2.50001V18.7188C2.50509 18.8786 2.45019 19.0346 2.34611 19.156C2.24202 19.2775 2.09627 19.3556 1.93751 19.375C1.85034 19.3838 1.76229 19.3741 1.6791 19.3466C1.5959 19.3192 1.51941 19.2745 1.45458 19.2156C1.38975 19.1567 1.33804 19.0848 1.3028 19.0045C1.26755 18.9243 1.24957 18.8376 1.25001 18.75V16.875C1.25001 16.5435 1.3817 16.2255 1.61612 15.9911C1.85054 15.7567 2.16849 15.625 2.50001 15.625H17.5C17.8315 15.625 18.1495 15.7567 18.3839 15.9911C18.6183 16.2255 18.75 16.5435 18.75 16.875ZM17.5 14.375C17.5 13.712 17.2366 13.0761 16.7678 12.6072C16.2989 12.1384 15.663 11.875 15 11.875H5.00001C4.33697 11.875 3.70108 12.1384 3.23224 12.6072C2.7634 13.0761 2.50001 13.712 2.50001 14.375V15H17.5V14.375Z" fill="#262626"/>
</svg>
