<svg width="13" height="13" viewBox="0 0 13 13" fill="none" xmlns="http://www.w3.org/2000/svg">
<path d="M12.3824 6.17938L7.55587 0.696875C7.32264 0.456192 7.00662 0.313196 6.67187 0.296875C6.33717 0.313394 6.02122 0.456358 5.78787 0.696875L0.961369 6.17938C0.898363 6.24874 0.849786 6.32994 0.818465 6.41826C0.787144 6.50658 0.773706 6.60024 0.778932 6.69381C0.784158 6.78737 0.807944 6.87895 0.848906 6.96323C0.889868 7.04751 0.947187 7.1228 1.01753 7.18472C1.08786 7.24663 1.16982 7.29394 1.25861 7.32388C1.34741 7.35381 1.44127 7.36579 1.53474 7.3591C1.62821 7.35242 1.71941 7.3272 1.80304 7.28493C1.88667 7.24266 1.96106 7.18417 2.02187 7.11287L5.74687 2.87987C5.7637 2.8609 5.78591 2.8475 5.81053 2.84145C5.83516 2.8354 5.86105 2.83698 5.88476 2.84598C5.90847 2.85499 5.92887 2.87099 5.94327 2.89187C5.95767 2.91275 5.96538 2.93751 5.96537 2.96287V11.5904C5.96537 11.7778 6.0398 11.9575 6.1723 12.0899C6.30479 12.2224 6.48449 12.2969 6.67187 12.2969C6.85924 12.2969 7.03895 12.2224 7.17144 12.0899C7.30393 11.9575 7.37837 11.7778 7.37837 11.5904V2.96287C7.37835 2.93744 7.38608 2.91261 7.40055 2.89169C7.41501 2.87077 7.4355 2.85476 7.4593 2.8458C7.4831 2.83683 7.50907 2.83534 7.53374 2.84152C7.55841 2.84769 7.58061 2.86125 7.59737 2.88037L11.3219 7.11287C11.3827 7.18417 11.4571 7.24266 11.5407 7.28493C11.6243 7.3272 11.7155 7.35242 11.809 7.3591C11.9025 7.36579 11.9963 7.35381 12.0851 7.32388C12.1739 7.29394 12.2559 7.24663 12.3262 7.18472C12.3966 7.1228 12.4539 7.04751 12.4948 6.96323C12.5358 6.87895 12.5596 6.78737 12.5648 6.69381C12.57 6.60024 12.5566 6.50658 12.5253 6.41826C12.494 6.32994 12.4454 6.24874 12.3824 6.17938Z" fill="#008009"/>
</svg>
