<svg width="16" height="17" viewBox="0 0 16 17" fill="none" xmlns="http://www.w3.org/2000/svg">
<path d="M7.0412 12.5624C6.90916 12.5625 6.78244 12.5103 6.6887 12.4174L2.58495 8.32736C2.53352 8.28228 2.49189 8.22713 2.46263 8.16532C2.43337 8.10351 2.4171 8.03635 2.41483 7.96801C2.41255 7.89966 2.42432 7.83157 2.44941 7.76795C2.4745 7.70433 2.51237 7.64654 2.56068 7.59814C2.609 7.54974 2.66673 7.51177 2.7303 7.48657C2.79387 7.46137 2.86194 7.44947 2.93029 7.45163C2.99864 7.45378 3.06583 7.46993 3.12769 7.49908C3.18955 7.52823 3.24477 7.56977 3.28995 7.62111L6.9862 11.3036L12.6637 3.76236C12.7012 3.70528 12.7501 3.65649 12.8072 3.61902C12.8643 3.58155 12.9285 3.55618 12.9959 3.54449C13.0632 3.53279 13.1322 3.53502 13.1986 3.55103C13.265 3.56703 13.3274 3.59649 13.382 3.63756C13.4366 3.67864 13.4822 3.73047 13.516 3.78985C13.5498 3.84923 13.5711 3.91491 13.5785 3.98283C13.5859 4.05075 13.5793 4.11947 13.5591 4.18474C13.539 4.25002 13.5056 4.31047 13.4612 4.36236L7.43995 12.3624C7.39717 12.4198 7.34256 12.4674 7.27981 12.5019C7.21705 12.5364 7.14761 12.557 7.0762 12.5624H7.0412Z" fill="#262626"/>
</svg>
