<svg width="17" height="17" viewBox="0 0 17 17" fill="none" xmlns="http://www.w3.org/2000/svg">
<path d="M13.7969 7.79688H8.79688V2.79688C8.79688 2.66427 8.7442 2.53709 8.65043 2.44332C8.55666 2.34955 8.42948 2.29688 8.29688 2.29688C8.16427 2.29688 8.03709 2.34955 7.94332 2.44332C7.84955 2.53709 7.79688 2.66427 7.79688 2.79688V7.79688H2.79688C2.66427 7.79688 2.53709 7.84955 2.44332 7.94332C2.34955 8.03709 2.29688 8.16427 2.29688 8.29688C2.29688 8.42948 2.34955 8.55666 2.44332 8.65043C2.53709 8.7442 2.66427 8.79688 2.79688 8.79688H7.79688V13.7969C7.79688 13.9295 7.84955 14.0567 7.94332 14.1504C8.03709 14.2442 8.16427 14.2969 8.29688 14.2969C8.42948 14.2969 8.55666 14.2442 8.65043 14.1504C8.7442 14.0567 8.79688 13.9295 8.79688 13.7969V8.79688H13.7969C13.9295 8.79688 14.0567 8.7442 14.1504 8.65043C14.2442 8.55666 14.2969 8.42948 14.2969 8.29688C14.2969 8.16427 14.2442 8.03709 14.1504 7.94332C14.0567 7.84955 13.9295 7.79688 13.7969 7.79688Z" fill="#262626"/>
</svg>
