<svg width="16" height="17" viewBox="0 0 16 17" fill="none" xmlns="http://www.w3.org/2000/svg">
<path d="M12 7.12836C12 7.26169 11.948 7.38836 11.8534 7.48169L8.52005 10.815C8.45211 10.8836 8.37106 10.9379 8.28173 10.9745C8.19239 11.0112 8.0966 11.0295 8.00005 11.0284C7.9036 11.0287 7.80803 11.0101 7.7188 10.9735C7.62957 10.9369 7.54844 10.883 7.48005 10.815L4.14671 7.48169C4.05308 7.38794 4.00049 7.26086 4.00049 7.12836C4.00049 6.99586 4.05308 6.86877 4.14671 6.77502C4.19268 6.72785 4.24762 6.69036 4.30831 6.66476C4.36899 6.63916 4.43419 6.62598 4.50005 6.62598C4.56591 6.62598 4.63111 6.63916 4.69179 6.66476C4.75247 6.69036 4.80742 6.72785 4.85338 6.77502L8.00005 9.92169L11.1467 6.77502C11.1927 6.72785 11.2476 6.69036 11.3083 6.66476C11.369 6.63916 11.4342 6.62598 11.5 6.62598C11.5659 6.62598 11.6311 6.63916 11.6918 6.66476C11.7525 6.69036 11.8074 6.72785 11.8534 6.77502C11.9004 6.82096 11.9377 6.87595 11.9629 6.93667C11.9881 6.9974 12.0007 7.06261 12 7.12836Z" fill="#262626"/>
</svg>
