<svg width="21" height="21" viewBox="0 0 21 21" fill="none" xmlns="http://www.w3.org/2000/svg">
<path d="M3.39062 4.51562H13.3906C13.5564 4.51562 13.7154 4.58147 13.8326 4.69868C13.9498 4.81589 14.0156 4.97486 14.0156 5.14062V11.3906C14.0156 12.8825 13.423 14.3132 12.3681 15.3681C11.3132 16.423 9.88247 17.0156 8.39062 17.0156C6.89878 17.0156 5.46804 16.423 4.41315 15.3681C3.35826 14.3132 2.76562 12.8825 2.76562 11.3906V5.14062C2.76562 4.97486 2.83147 4.81589 2.94868 4.69868C3.06589 4.58147 3.22486 4.51562 3.39062 4.51562ZM3.39062 3.26562C2.89334 3.26562 2.41643 3.46317 2.0648 3.8148C1.71317 4.16643 1.51562 4.64334 1.51562 5.14062V11.3906C1.51562 13.214 2.23995 14.9627 3.52927 16.252C4.81858 17.5413 6.56726 18.2656 8.39062 18.2656C10.214 18.2656 11.9627 17.5413 13.252 16.252C14.5413 14.9627 15.2656 13.214 15.2656 11.3906V5.14062C15.2656 4.64334 15.0681 4.16643 14.7164 3.8148C14.3648 3.46317 13.8879 3.26563 13.3906 3.26562H3.39062ZM0.890625 18.2656H19.6406C19.8064 18.2656 19.9654 18.1998 20.0826 18.0826C20.1998 17.9654 20.2656 17.8064 20.2656 17.6406C20.2656 17.4749 20.1998 17.3159 20.0826 17.1987C19.9654 17.0815 19.8064 17.0156 19.6406 17.0156H0.890625C0.724865 17.0156 0.565893 17.0815 0.448683 17.1987C0.331473 17.3159 0.265625 17.4749 0.265625 17.6406C0.265625 17.8064 0.331473 17.9654 0.448683 18.0826C0.565893 18.1998 0.724865 18.2656 0.890625 18.2656ZM14.6406 5.76562H15.8906C16.7188 5.76848 17.5123 6.09887 18.0978 6.68466C18.6832 7.27045 19.0132 8.06408 19.0156 8.89229C19.0125 9.72028 18.682 10.5134 18.0962 11.0986C17.5105 11.6838 16.7169 12.0134 15.889 12.0156H14.5156C14.3499 12.0156 14.1909 12.0815 14.0737 12.1987C13.9565 12.3159 13.8906 12.4749 13.8906 12.6406C13.8906 12.8064 13.9565 12.9654 14.0737 13.0826C14.1909 13.1998 14.3499 13.2656 14.5156 13.2656H15.8906C17.0498 13.2628 18.1607 12.8011 18.9805 11.9816C19.8003 11.1622 20.2623 10.0514 20.2656 8.89229C20.263 7.73291 19.8015 6.62173 18.982 5.80161C18.1625 4.98149 17.0517 4.51915 15.8923 4.51562H14.6406C14.4749 4.51562 14.3159 4.58147 14.1987 4.69868C14.0815 4.81589 14.0156 4.97486 14.0156 5.14062C14.0156 5.30639 14.0815 5.46536 14.1987 5.58257C14.3159 5.69978 14.4749 5.76562 14.6406 5.76562Z" fill="#008009"/>
</svg>
