<svg width="24" height="25" viewBox="0 0 24 25" fill="none" xmlns="http://www.w3.org/2000/svg">
<path d="M22.275 22.0534L16.4625 16.2409C16.3241 16.0996 16.1354 16.0187 15.9375 16.0159C17.3517 14.407 18.0847 12.3111 17.9814 10.1715C17.8781 8.03186 16.9466 6.01633 15.384 4.55113C13.8214 3.08593 11.7501 2.28596 9.6083 2.3204C7.46648 2.35485 5.42203 3.22101 3.90734 4.73571C2.39265 6.2504 1.52648 8.29485 1.49203 10.4367C1.45759 12.5785 2.25756 14.6497 3.72276 16.2124C5.18796 17.775 7.20349 18.7064 9.3431 18.8097C11.4827 18.913 13.5786 18.1801 15.1875 16.7659C15.1904 16.9637 15.2712 17.1524 15.4125 17.2909L21.225 23.1034C21.3688 23.2316 21.5564 23.2995 21.7489 23.2932C21.9414 23.2868 22.1241 23.2066 22.2591 23.0692C22.3941 22.9318 22.4711 22.7477 22.474 22.5551C22.477 22.3625 22.4057 22.1761 22.275 22.0347V22.0534ZM9.75003 17.3284C8.41501 17.3284 7.10997 16.9325 5.99993 16.1908C4.8899 15.4491 4.02474 14.3949 3.51385 13.1615C3.00296 11.9281 2.86928 10.5709 3.12973 9.26154C3.39018 7.95217 4.03306 6.74944 4.97706 5.80543C5.92107 4.86143 7.1238 4.21855 8.43317 3.9581C9.74255 3.69765 11.0997 3.83132 12.3331 4.34222C13.5665 4.85311 14.6208 5.71827 15.3625 6.8283C16.1042 7.93834 16.5 9.24338 16.5 10.5784C16.5 12.3686 15.7889 14.0855 14.523 15.3514C13.2571 16.6172 11.5402 17.3284 9.75003 17.3284Z" fill="#262626"/>
</svg>
