<svg width="16" height="17" viewBox="0 0 16 17" fill="none" xmlns="http://www.w3.org/2000/svg">
<path d="M7.0412 13.453C6.90916 13.4531 6.78244 13.401 6.6887 13.308L2.58495 9.21798C2.53352 9.1729 2.49189 9.11775 2.46263 9.05594C2.43337 8.99413 2.4171 8.92698 2.41483 8.85863C2.41255 8.79028 2.42432 8.72219 2.44941 8.65858C2.4745 8.59496 2.51237 8.53716 2.56068 8.48877C2.609 8.44037 2.66673 8.40239 2.7303 8.37719C2.79387 8.35199 2.86194 8.3401 2.93029 8.34225C2.99864 8.34441 3.06583 8.36056 3.12769 8.38971C3.18955 8.41886 3.24477 8.46039 3.28995 8.51173L6.9862 12.1942L12.6637 4.65298C12.7012 4.5959 12.7501 4.54712 12.8072 4.50965C12.8643 4.47217 12.9285 4.44681 12.9959 4.43511C13.0632 4.42342 13.1322 4.42564 13.1986 4.44165C13.265 4.45766 13.3274 4.48711 13.382 4.52819C13.4366 4.56926 13.4822 4.62109 13.516 4.68047C13.5498 4.73986 13.5711 4.80554 13.5785 4.87345C13.5859 4.94137 13.5793 5.01009 13.5591 5.07537C13.539 5.14064 13.5056 5.20109 13.4612 5.25298L7.43995 13.253C7.39717 13.3104 7.34256 13.358 7.27981 13.3925C7.21705 13.427 7.14761 13.4476 7.0762 13.453H7.0412Z" fill="#262626"/>
</svg>
