<svg width="21" height="21" viewBox="0 0 21 21" fill="none" xmlns="http://www.w3.org/2000/svg">
<path d="M12.5312 13.8437H11.9062C11.7405 13.8437 11.5815 13.7779 11.4643 13.6607C11.3471 13.5435 11.2812 13.3845 11.2812 13.2187V10.0937C11.2812 9.76223 11.1496 9.44429 10.9151 9.20987C10.6807 8.97545 10.3628 8.84375 10.0312 8.84375H9.40625C9.24049 8.84375 9.08152 8.9096 8.96431 9.02681C8.8471 9.14402 8.78125 9.30299 8.78125 9.46875C8.78125 9.63451 8.8471 9.79348 8.96431 9.91069C9.08152 10.0279 9.24049 10.0937 9.40625 10.0937H10.0312V13.2187C10.0312 13.716 10.2288 14.1929 10.5804 14.5446C10.9321 14.8962 11.409 15.0937 11.9062 15.0937H12.5312C12.697 15.0937 12.856 15.0279 12.9732 14.9107C13.0904 14.7935 13.1562 14.6345 13.1562 14.4687C13.1562 14.303 13.0904 14.144 12.9732 14.0268C12.856 13.9096 12.697 13.8437 12.5312 13.8437ZM10.3437 5.71875C10.0951 5.71875 9.85665 5.81752 9.68084 5.99334C9.50502 6.16915 9.40625 6.40761 9.40625 6.65625C9.40625 6.90489 9.50502 7.14335 9.68084 7.31916C9.85665 7.49498 10.0951 7.59375 10.3437 7.59375C10.5924 7.59375 10.8308 7.49498 11.0067 7.31916C11.1825 7.14335 11.2812 6.90489 11.2812 6.65625C11.2812 6.40761 11.1825 6.16915 11.0067 5.99334C10.8308 5.81752 10.5924 5.71875 10.3437 5.71875C10.178 5.71875 10.019 5.7846 9.90181 5.90181C9.7846 6.01902 9.71875 6.17799 9.71875 6.34375C9.71875 6.50951 9.7846 6.66848 9.90181 6.78569C10.019 6.9029 10.178 6.96875 10.3437 6.96875C10.2609 6.96875 10.1814 6.93583 10.1228 6.87722C10.0642 6.81862 10.0312 6.73913 10.0312 6.65625C10.0312 6.57337 10.0642 6.49388 10.1228 6.43528C10.1814 6.37667 10.2609 6.34375 10.3437 6.34375C10.4266 6.34375 10.5061 6.37667 10.5647 6.43528C10.6233 6.49388 10.6562 6.57337 10.6562 6.65625C10.6562 6.73913 10.6233 6.81862 10.5647 6.87722C10.5061 6.93583 10.4266 6.96875 10.3437 6.96875C10.5095 6.96875 10.6685 6.9029 10.7857 6.78569C10.9029 6.66848 10.9687 6.50951 10.9687 6.34375C10.9687 6.17799 10.9029 6.01902 10.7857 5.90181C10.6685 5.7846 10.5095 5.71875 10.3437 5.71875ZM19.4062 10.7187C19.4062 15.5512 15.4887 19.4687 10.6562 19.4687C5.82375 19.4687 1.90625 15.5512 1.90625 10.7187C1.90625 5.88625 5.82375 1.96875 10.6562 1.96875C15.4887 1.96875 19.4062 5.88625 19.4062 10.7187ZM20.6562 10.7187C20.6562 5.19625 16.1787 0.71875 10.6562 0.71875C5.13375 0.71875 0.65625 5.19625 0.65625 10.7187C0.65625 16.2412 5.13375 20.7187 10.6562 20.7187C16.1787 20.7187 20.6562 16.2412 20.6562 10.7187Z" fill="#262626"/>
</svg>
