<svg width="17" height="17" viewBox="0 0 17 17" fill="none" xmlns="http://www.w3.org/2000/svg">
<path d="M13.6563 15.2969H3.6563C3.39108 15.2969 3.13672 15.1915 2.94919 15.004C2.76165 14.8164 2.6563 14.5621 2.6563 14.2969V11.9844C2.65462 11.8603 2.69918 11.74 2.7813 11.6469C3.3188 11.0969 5.2688 9.29688 8.6563 9.29688C12.0438 9.29688 14.0063 11.0969 14.5313 11.6469C14.6134 11.74 14.658 11.8603 14.6563 11.9844V14.2969C14.6563 14.5621 14.5509 14.8164 14.3634 15.004C14.1759 15.1915 13.9215 15.2969 13.6563 15.2969ZM8.6563 1.29688C7.96406 1.29687 7.28737 1.50215 6.7118 1.88673C6.13623 2.27132 5.68762 2.81794 5.42272 3.45748C5.15781 4.09702 5.0885 4.80076 5.22355 5.47969C5.3586 6.15862 5.69194 6.78226 6.18142 7.27175C6.67091 7.76123 7.29455 8.09458 7.97348 8.22962C8.65241 8.36467 9.35615 8.29536 9.99569 8.03045C10.6352 7.76555 11.1819 7.31694 11.5664 6.74137C11.951 6.1658 12.1563 5.48911 12.1563 4.79688C12.1563 3.86862 11.7875 2.97838 11.1312 2.322C10.4748 1.66562 9.58455 1.29688 8.6563 1.29688Z" fill="#262626"/>
</svg>
