<svg width="17" height="17" viewBox="0 0 17 17" fill="none" xmlns="http://www.w3.org/2000/svg">
<path d="M0.660457 2.00391V6.17524C0.66051 6.8381 0.923807 7.4738 1.39246 7.94257L9.09912 15.6506C9.23841 15.7899 9.40377 15.9004 9.58576 15.9757C9.76775 16.0511 9.96281 16.0899 10.1598 16.0899C10.3568 16.0899 10.5518 16.0511 10.7338 15.9757C10.9158 15.9004 11.0812 15.7899 11.2205 15.6506L15.8071 11.0639C16.0882 10.7826 16.2461 10.4012 16.2461 10.0036C16.2461 9.60591 16.0882 9.22452 15.8071 8.94324L8.09846 1.23591C7.62985 0.76742 6.99442 0.504136 6.33179 0.503906H2.15979C1.76197 0.503906 1.38043 0.661942 1.09913 0.943246C0.817825 1.22455 0.660457 1.60608 0.660457 2.00391ZM1.66046 2.00391C1.66046 1.8713 1.71314 1.74412 1.8069 1.65035C1.90067 1.55658 2.02785 1.50391 2.16046 1.50391H6.33179C6.72938 1.50408 7.11065 1.6621 7.39179 1.94324L15.0998 9.64991C15.1934 9.74366 15.246 9.87074 15.246 10.0032C15.246 10.1357 15.1934 10.2628 15.0998 10.3566L10.5131 14.9432C10.4194 15.0369 10.2923 15.0895 10.1598 15.0895C10.0273 15.0895 9.90021 15.0369 9.80646 14.9432L2.09979 7.23657C1.81865 6.95543 1.66063 6.57417 1.66046 6.17657V2.00391ZM5.16046 4.50391C5.16046 4.56957 5.14752 4.63459 5.1224 4.69525C5.09727 4.75591 5.06044 4.81103 5.01401 4.85746C4.96758 4.90389 4.91246 4.94072 4.8518 4.96585C4.79114 4.99097 4.72612 5.00391 4.66046 5.00391C4.5948 5.00391 4.52978 4.99097 4.46912 4.96585C4.40845 4.94072 4.35333 4.90389 4.3069 4.85746C4.26047 4.81103 4.22364 4.75591 4.19852 4.69525C4.17339 4.63459 4.16046 4.56957 4.16046 4.50391C4.16046 4.3713 4.21314 4.24412 4.3069 4.15035C4.40067 4.05658 4.52785 4.00391 4.66046 4.00391C4.79307 4.00391 4.92024 4.05658 5.01401 4.15035C5.10778 4.24412 5.16046 4.3713 5.16046 4.50391ZM6.16046 4.50391C6.16046 4.10608 6.00242 3.72455 5.72112 3.44325C5.43981 3.16194 5.05828 3.00391 4.66046 3.00391C4.26263 3.00391 3.8811 3.16194 3.5998 3.44325C3.31849 3.72455 3.16046 4.10608 3.16046 4.50391C3.16046 4.90173 3.31849 5.28326 3.5998 5.56457C3.8811 5.84587 4.26263 6.00391 4.66046 6.00391C5.05828 6.00391 5.43981 5.84587 5.72112 5.56457C6.00242 5.28326 6.16046 4.90173 6.16046 4.50391Z" fill="#262626"/>
</svg>
