<svg width="21" height="21" viewBox="0 0 21 21" fill="none" xmlns="http://www.w3.org/2000/svg">
<path d="M20.6563 11.8594C20.6563 10.5333 20.1295 9.26154 19.1918 8.32386C18.2542 7.38618 16.9824 6.85939 15.6563 6.85939H13.1563C11.8302 6.85939 10.5585 7.38618 9.62077 8.32386C8.68309 9.26154 8.1563 10.5333 8.1563 11.8594C8.1563 13.1855 8.68309 14.4572 9.62077 15.3949C10.5585 16.3326 11.8302 16.8594 13.1563 16.8594H13.7813L13.3396 16.6761L17.0896 20.4261C17.177 20.5134 17.2884 20.5728 17.4095 20.5969C17.5307 20.6209 17.6563 20.6086 17.7704 20.5613C17.8845 20.514 17.9821 20.434 18.0508 20.3313C18.1195 20.2287 18.1562 20.1079 18.1563 19.9844V15.7977L17.798 16.3627C18.6513 15.9594 19.3728 15.3224 19.8788 14.5256C20.3847 13.7288 20.6543 12.8049 20.6563 11.8611V11.8594ZM19.4063 11.8577C19.405 12.5652 19.2031 13.2579 18.824 13.8553C18.445 14.4526 17.9042 14.9303 17.2646 15.2327C17.1575 15.2833 17.0669 15.3632 17.0035 15.4632C16.9401 15.5633 16.9064 15.6793 16.9063 15.7977V19.9844L17.973 19.5427L14.223 15.7927C14.1059 15.6755 13.947 15.6095 13.7813 15.6094H13.1563C12.1617 15.6094 11.2079 15.2143 10.5047 14.511C9.80139 13.8078 9.4063 12.854 9.4063 11.8594C9.4063 10.8648 9.80139 9.911 10.5047 9.20774C11.2079 8.50448 12.1617 8.10939 13.1563 8.10939H15.6563C16.6509 8.10939 17.6047 8.50448 18.308 9.20774C19.0112 9.911 19.4063 10.8648 19.4063 11.8594V11.8577ZM5.83964 10.7927L3.33964 13.2927L4.4063 13.7344V9.54773C4.40625 9.42927 4.37255 9.31327 4.3091 9.21324C4.24566 9.11321 4.1551 9.03327 4.04797 8.98273C3.2788 8.61943 2.65642 8.00483 2.28347 7.2403C1.91053 6.47576 1.80928 5.60695 1.99645 4.77715C2.18361 3.94734 2.648 3.20611 3.31302 2.67569C3.97805 2.14527 4.80399 1.85734 5.65464 1.85939H8.1563C8.96386 1.85954 9.74981 2.12026 10.3973 2.60279C11.0449 3.08533 11.5194 3.76393 11.7505 4.53773C11.7978 4.69664 11.9063 4.83025 12.0521 4.90917C12.1979 4.98809 12.3691 5.00586 12.528 4.95856C12.6869 4.91126 12.8205 4.80278 12.8994 4.65697C12.9783 4.51116 12.9961 4.33997 12.9488 4.18106C12.6409 3.14913 12.0082 2.24413 11.1447 1.60062C10.2813 0.957117 9.23318 0.609476 8.1563 0.609393H5.6563C4.52122 0.606358 3.41903 0.9904 2.53161 1.69814C1.64419 2.40589 1.02459 3.39503 0.775042 4.50234C0.525499 5.60966 0.660933 6.76896 1.15899 7.78893C1.65706 8.8089 2.48798 9.62859 3.51464 10.1127L3.1563 9.54773V13.7344C3.15641 13.8579 3.19313 13.9787 3.26181 14.0813C3.33049 14.184 3.42806 14.264 3.5422 14.3113C3.65634 14.3586 3.78192 14.3709 3.90308 14.3469C4.02425 14.3228 4.13556 14.2634 4.22297 14.1761L6.72297 11.6761C6.78438 11.6188 6.83363 11.5498 6.86779 11.4732C6.90195 11.3965 6.92032 11.3137 6.9218 11.2298C6.92328 11.1459 6.90784 11.0626 6.87641 10.9847C6.84497 10.9069 6.79818 10.8362 6.73883 10.7769C6.67949 10.7175 6.60879 10.6707 6.53097 10.6393C6.45314 10.6079 6.36979 10.5924 6.28587 10.5939C6.20195 10.5954 6.11919 10.6137 6.04252 10.6479C5.96586 10.6821 5.89685 10.7313 5.83964 10.7927Z" fill="#262626"/>
</svg>
