<svg width="21" height="21" viewBox="0 0 21 21" fill="none" xmlns="http://www.w3.org/2000/svg">
<path d="M19.4219 10.25C19.4219 15.0825 15.5044 19 10.6719 19C5.83938 19 1.92187 15.0825 1.92187 10.25C1.92187 5.4175 5.83938 1.5 10.6719 1.5C15.5044 1.5 19.4219 5.4175 19.4219 10.25ZM20.6719 10.25C20.6719 4.7275 16.1944 0.25 10.6719 0.25C5.14938 0.25 0.671875 4.7275 0.671875 10.25C0.671875 15.7725 5.14938 20.25 10.6719 20.25C16.1944 20.25 20.6719 15.7725 20.6719 10.25ZM12.5469 9C12.5469 9.33152 12.4152 9.64946 12.1808 9.88388C11.9463 10.1183 11.6284 10.25 11.2969 10.25H9.42187L10.0469 10.875V7.125L9.42187 7.75H11.2969C11.6284 7.75 11.9463 7.8817 12.1808 8.11612C12.4152 8.35054 12.5469 8.66848 12.5469 9ZM13.7969 9C13.7969 8.33696 13.5335 7.70107 13.0646 7.23223C12.5958 6.76339 11.9599 6.5 11.2969 6.5H9.42187C9.25611 6.5 9.09714 6.56585 8.97993 6.68306C8.86272 6.80027 8.79687 6.95924 8.79687 7.125V10.875C8.79687 11.22 9.07687 11.5 9.42187 11.5H11.2969C11.9599 11.5 12.5958 11.2366 13.0646 10.7678C13.5335 10.2989 13.7969 9.66304 13.7969 9ZM10.0469 14.625V10.875C10.0469 10.7092 9.98103 10.5503 9.86382 10.4331C9.74661 10.3158 9.58764 10.25 9.42187 10.25C9.25611 10.25 9.09714 10.3158 8.97993 10.4331C8.86272 10.5503 8.79687 10.7092 8.79687 10.875V14.625C8.79687 14.7908 8.86272 14.9497 8.97993 15.0669C9.09714 15.1842 9.25611 15.25 9.42187 15.25C9.58764 15.25 9.74661 15.1842 9.86382 15.0669C9.98103 14.9497 10.0469 14.7908 10.0469 14.625Z" fill="#008009"/>
</svg>
