<svg width="17" height="17" viewBox="0 0 17 17" fill="none" xmlns="http://www.w3.org/2000/svg">
<path d="M0.660457 2.69141V6.86274C0.66051 7.5256 0.923807 8.1613 1.39246 8.63007L9.09912 16.3381C9.23841 16.4774 9.40377 16.5879 9.58576 16.6632C9.76775 16.7386 9.96281 16.7774 10.1598 16.7774C10.3568 16.7774 10.5518 16.7386 10.7338 16.6632C10.9158 16.5879 11.0812 16.4774 11.2205 16.3381L15.8071 11.7514C16.0882 11.4701 16.2461 11.0887 16.2461 10.6911C16.2461 10.2934 16.0882 9.91202 15.8071 9.63074L8.09846 1.92341C7.62985 1.45492 6.99442 1.19164 6.33179 1.19141H2.15979C1.76197 1.19141 1.38043 1.34944 1.09913 1.63075C0.817825 1.91205 0.660457 2.29358 0.660457 2.69141ZM1.66046 2.69141C1.66046 2.5588 1.71314 2.43162 1.8069 2.33785C1.90067 2.24408 2.02785 2.19141 2.16046 2.19141H6.33179C6.72938 2.19158 7.11065 2.3496 7.39179 2.63074L15.0998 10.3374C15.1934 10.4312 15.246 10.5582 15.246 10.6907C15.246 10.8232 15.1934 10.9503 15.0998 11.0441L10.5131 15.6307C10.4194 15.7244 10.2923 15.777 10.1598 15.777C10.0273 15.777 9.90021 15.7244 9.80646 15.6307L2.09979 7.92407C1.81865 7.64293 1.66063 7.26167 1.66046 6.86407V2.69141ZM5.16046 5.19141C5.16046 5.25707 5.14752 5.32209 5.1224 5.38275C5.09727 5.44341 5.06044 5.49853 5.01401 5.54496C4.96758 5.59139 4.91246 5.62822 4.8518 5.65335C4.79114 5.67847 4.72612 5.69141 4.66046 5.69141C4.5948 5.69141 4.52978 5.67847 4.46912 5.65335C4.40845 5.62822 4.35333 5.59139 4.3069 5.54496C4.26047 5.49853 4.22364 5.44341 4.19852 5.38275C4.17339 5.32209 4.16046 5.25707 4.16046 5.19141C4.16046 5.0588 4.21314 4.93162 4.3069 4.83785C4.40067 4.74408 4.52785 4.69141 4.66046 4.69141C4.79307 4.69141 4.92024 4.74408 5.01401 4.83785C5.10778 4.93162 5.16046 5.0588 5.16046 5.19141ZM6.16046 5.19141C6.16046 4.79358 6.00242 4.41205 5.72112 4.13075C5.43981 3.84944 5.05828 3.69141 4.66046 3.69141C4.26263 3.69141 3.8811 3.84944 3.5998 4.13075C3.31849 4.41205 3.16046 4.79358 3.16046 5.19141C3.16046 5.58923 3.31849 5.97076 3.5998 6.25207C3.8811 6.53337 4.26263 6.69141 4.66046 6.69141C5.05828 6.69141 5.43981 6.53337 5.72112 6.25207C6.00242 5.97076 6.16046 5.58923 6.16046 5.19141Z" fill="#262626"/>
</svg>
