<svg width="13" height="13" viewBox="0 0 13 13" fill="none" xmlns="http://www.w3.org/2000/svg">
<path d="M12.398 6.17938L7.57149 0.696875C7.33826 0.456192 7.02224 0.313196 6.68749 0.296875C6.35279 0.313394 6.03684 0.456358 5.80349 0.696875L0.976994 6.17938C0.913988 6.24874 0.865411 6.32994 0.83409 6.41826C0.802769 6.50658 0.789331 6.60024 0.794557 6.69381C0.799783 6.78737 0.823569 6.87895 0.864531 6.96323C0.905493 7.04751 0.962812 7.1228 1.03315 7.18472C1.10349 7.24663 1.18544 7.29394 1.27424 7.32388C1.36303 7.35381 1.4569 7.36579 1.55037 7.3591C1.64383 7.35242 1.73504 7.3272 1.81867 7.28493C1.9023 7.24266 1.97668 7.18417 2.03749 7.11287L5.76249 2.87987C5.77933 2.8609 5.80153 2.8475 5.82616 2.84145C5.85079 2.8354 5.87667 2.83698 5.90038 2.84598C5.92409 2.85499 5.9445 2.87099 5.9589 2.89187C5.97329 2.91275 5.981 2.93751 5.98099 2.96287V11.5904C5.98099 11.7778 6.05543 11.9575 6.18792 12.0899C6.32042 12.2224 6.50012 12.2969 6.68749 12.2969C6.87487 12.2969 7.05457 12.2224 7.18706 12.0899C7.31956 11.9575 7.39399 11.7778 7.39399 11.5904V2.96287C7.39397 2.93744 7.40171 2.91261 7.41617 2.89169C7.43063 2.87077 7.45113 2.85476 7.47493 2.8458C7.49873 2.83683 7.52469 2.83534 7.54936 2.84152C7.57403 2.84769 7.59623 2.86125 7.61299 2.88037L11.3375 7.11287C11.3983 7.18417 11.4727 7.24266 11.5563 7.28493C11.6399 7.3272 11.7312 7.35242 11.8246 7.3591C11.9181 7.36579 12.012 7.35381 12.1008 7.32388C12.1895 7.29394 12.2715 7.24663 12.3418 7.18472C12.4122 7.1228 12.4695 7.04751 12.5105 6.96323C12.5514 6.87895 12.5752 6.78737 12.5804 6.69381C12.5857 6.60024 12.5722 6.50658 12.5409 6.41826C12.5096 6.32994 12.461 6.24874 12.398 6.17938Z" fill="#008009"/>
</svg>
