<svg width="20" height="21" viewBox="0 0 20 21" fill="none" xmlns="http://www.w3.org/2000/svg">
<path d="M5.00004 9.1981V0.640604L4.09588 1.19894L7.60838 2.95727C7.57571 2.941 7.54821 2.91596 7.52896 2.88495C7.50971 2.85394 7.49947 2.81819 7.49939 2.78169C7.4993 2.7452 7.50937 2.7094 7.52847 2.6783C7.54757 2.6472 7.57495 2.62203 7.60754 2.6056L5.97004 3.42394C5.82307 3.49875 5.71162 3.62862 5.65998 3.78524C5.60835 3.94187 5.62071 4.11256 5.69437 4.26011C5.76804 4.40766 5.89704 4.52012 6.05326 4.57297C6.20948 4.62582 6.38026 4.61479 6.52838 4.54227L8.16671 3.7231C8.34147 3.63561 8.48844 3.50121 8.59118 3.33495C8.69392 3.1687 8.74838 2.97714 8.74847 2.78169C8.74856 2.58625 8.69427 2.39464 8.59167 2.22829C8.48908 2.06195 8.34223 1.92742 8.16754 1.83977L4.65421 0.0814373C4.55892 0.0338668 4.45306 0.0114345 4.34667 0.0162695C4.24028 0.0211044 4.13689 0.0530461 4.04631 0.109063C3.95573 0.16508 3.88097 0.243315 3.82912 0.336342C3.77727 0.429369 3.75005 0.534103 3.75004 0.640604V9.1981C3.75004 9.36386 3.81589 9.52284 3.9331 9.64005C4.05031 9.75726 4.20928 9.8231 4.37504 9.8231C4.5408 9.8231 4.69977 9.75726 4.81698 9.64005C4.9342 9.52284 5.00004 9.36386 5.00004 9.1981ZM18.755 4.93477L16.9509 18.7681H14.6875C14.4389 18.7681 14.2004 18.6693 14.0246 18.4935C13.8488 18.3177 13.75 18.0792 13.75 17.8306C13.75 17.582 13.8488 17.3435 14.0246 17.1677C14.2004 16.9919 14.4389 16.8931 14.6875 16.8931C15.1334 16.8931 15.5634 17.0606 15.8917 17.3631L17.2442 18.6023C17.3047 18.6578 17.3756 18.7008 17.4527 18.7289C17.5299 18.757 17.6118 18.7696 17.6938 18.766C17.7758 18.7625 17.8564 18.7428 17.9308 18.7081C18.0052 18.6735 18.0721 18.6245 18.1275 18.5639C18.183 18.5034 18.226 18.4326 18.2541 18.3554C18.2822 18.2783 18.2949 18.1964 18.2913 18.1143C18.2878 18.0323 18.2681 17.9518 18.2334 17.8774C18.1987 17.8029 18.1497 17.7361 18.0892 17.6806L16.7375 16.4423C16.1787 15.9281 15.4469 15.6429 14.6875 15.6431C14.1074 15.6431 13.551 15.8736 13.1407 16.2838C12.7305 16.694 12.5 17.2504 12.5 17.8306C12.5 18.4108 12.7305 18.9672 13.1407 19.3774C13.551 19.7876 14.1074 20.0181 14.6875 20.0181H16.9517C17.2552 20.018 17.5482 19.9076 17.7762 19.7073C18.0043 19.507 18.1516 19.2307 18.1909 18.9298L19.995 5.09644C20.0165 4.932 19.9717 4.76579 19.8706 4.63436C19.8205 4.56928 19.7581 4.5147 19.687 4.47373C19.6158 4.43277 19.5373 4.40622 19.4559 4.3956C19.2914 4.37417 19.1252 4.41893 18.9938 4.52004C18.8624 4.62115 18.7765 4.77034 18.755 4.93477ZM10 17.5156C10 17.6814 9.93419 17.8403 9.81698 17.9575C9.69977 18.0748 9.5408 18.1406 9.37504 18.1406C9.20928 18.1406 9.05031 18.0748 8.9331 17.9575C8.81589 17.8403 8.75004 17.6814 8.75004 17.5156C8.75004 17.3498 8.81589 17.1909 8.9331 17.0737C9.05031 16.9565 9.20928 16.8906 9.37504 16.8906C9.5408 16.8906 9.69977 16.9565 9.81698 17.0737C9.93419 17.1909 10 17.3498 10 17.5156ZM11.25 17.5156C11.25 17.0183 11.0525 16.5414 10.7009 16.1898C10.3492 15.8381 9.87232 15.6406 9.37504 15.6406C8.87776 15.6406 8.40085 15.8381 8.04922 16.1898C7.69759 16.5414 7.50004 17.0183 7.50004 17.5156C7.50004 18.0129 7.69759 18.4898 8.04922 18.8414C8.40085 19.1931 8.87776 19.3906 9.37504 19.3906C9.87232 19.3906 10.3492 19.1931 10.7009 18.8414C11.0525 18.4898 11.25 18.0129 11.25 17.5156ZM6.83671 7.53394C9.38171 7.68977 11.25 8.84227 11.25 10.0156C11.25 11.2973 9.05754 12.5156 6.25004 12.5156C3.44254 12.5156 1.25004 11.2973 1.25004 10.0156C1.29588 9.44894 1.64588 8.89894 2.18338 8.5956C2.3277 8.51383 2.43362 8.37807 2.47785 8.2182C2.52208 8.05832 2.50098 7.88743 2.41921 7.7431C2.33743 7.59878 2.20168 7.49286 2.0418 7.44863C1.88193 7.4044 1.71103 7.4255 1.56671 7.50727C1.12416 7.75758 0.749955 8.11288 0.477046 8.54186C0.204136 8.97084 0.0408988 9.46035 0.00170972 9.96727C4.305e-05 12.1856 2.84338 13.7656 6.25004 13.7656C9.65588 13.7656 12.5 12.1856 12.5 10.0156C12.5 7.99894 10.0334 6.47727 6.91338 6.2856C6.83141 6.28057 6.74925 6.29173 6.6716 6.31845C6.59395 6.34516 6.52232 6.38691 6.4608 6.44131C6.39928 6.49571 6.34908 6.5617 6.31306 6.6355C6.27704 6.7093 6.25591 6.78947 6.25088 6.87144C6.24584 6.9534 6.257 7.03556 6.28372 7.11321C6.31044 7.19087 6.35219 7.2625 6.40658 7.32402C6.46098 7.38554 6.52697 7.43574 6.60077 7.47176C6.67457 7.50777 6.75474 7.5289 6.83671 7.53394Z" fill="#262626"/>
</svg>
