<svg width="20" height="21" viewBox="0 0 20 21" fill="none" xmlns="http://www.w3.org/2000/svg">
<path d="M11.25 2.625C11.25 2.95652 11.1183 3.27446 10.8839 3.50888C10.6495 3.7433 10.3315 3.875 10 3.875C9.66848 3.875 9.35054 3.7433 9.11612 3.50888C8.8817 3.27446 8.75 2.95652 8.75 2.625C8.75 2.29348 8.8817 1.97554 9.11612 1.74112C9.35054 1.5067 9.66848 1.375 10 1.375C10.3315 1.375 10.6495 1.5067 10.8839 1.74112C11.1183 1.97554 11.25 2.29348 11.25 2.625ZM12.5 2.625C12.5 1.96196 12.2366 1.32607 11.7678 0.857233C11.2989 0.388392 10.663 0.125 10 0.125C9.33696 0.125 8.70107 0.388392 8.23223 0.857233C7.76339 1.32607 7.5 1.96196 7.5 2.625C7.5 3.28804 7.76339 3.92393 8.23223 4.39277C8.70107 4.86161 9.33696 5.125 10 5.125C10.663 5.125 11.2989 4.86161 11.7678 4.39277C12.2366 3.92393 12.5 3.28804 12.5 2.625ZM17.5 6.375C17.5 6.70652 17.3683 7.02446 17.1339 7.25888C16.8995 7.4933 16.5815 7.625 16.25 7.625C15.9185 7.625 15.6005 7.4933 15.3661 7.25888C15.1317 7.02446 15 6.70652 15 6.375C15 6.04348 15.1317 5.72554 15.3661 5.49112C15.6005 5.2567 15.9185 5.125 16.25 5.125C16.5815 5.125 16.8995 5.2567 17.1339 5.49112C17.3683 5.72554 17.5 6.04348 17.5 6.375ZM18.75 6.375C18.75 5.71196 18.4866 5.07607 18.0178 4.60723C17.5489 4.13839 16.913 3.875 16.25 3.875C15.587 3.875 14.9511 4.13839 14.4822 4.60723C14.0134 5.07607 13.75 5.71196 13.75 6.375C13.75 7.03804 14.0134 7.67393 14.4822 8.14277C14.9511 8.61161 15.587 8.875 16.25 8.875C16.913 8.875 17.5489 8.61161 18.0178 8.14277C18.4866 7.67393 18.75 7.03804 18.75 6.375ZM5 6.375C5 6.70652 4.8683 7.02446 4.63388 7.25888C4.39946 7.4933 4.08152 7.625 3.75 7.625C3.41848 7.625 3.10054 7.4933 2.86612 7.25888C2.6317 7.02446 2.5 6.70652 2.5 6.375C2.5 6.04348 2.6317 5.72554 2.86612 5.49112C3.10054 5.2567 3.41848 5.125 3.75 5.125C4.08152 5.125 4.39946 5.2567 4.63388 5.49112C4.8683 5.72554 5 6.04348 5 6.375ZM6.25 6.375C6.25 5.71196 5.98661 5.07607 5.51777 4.60723C5.04893 4.13839 4.41304 3.875 3.75 3.875C3.08696 3.875 2.45107 4.13839 1.98223 4.60723C1.51339 5.07607 1.25 5.71196 1.25 6.375C1.25 7.03804 1.51339 7.67393 1.98223 8.14277C2.45107 8.61161 3.08696 8.875 3.75 8.875C4.41304 8.875 5.04893 8.61161 5.51777 8.14277C5.98661 7.67393 6.25 7.03804 6.25 6.375ZM17.5 12.625C17.5 12.9565 17.3683 13.2745 17.1339 13.5089C16.8995 13.7433 16.5815 13.875 16.25 13.875C15.9185 13.875 15.6005 13.7433 15.3661 13.5089C15.1317 13.2745 15 12.9565 15 12.625C15 12.2935 15.1317 11.9755 15.3661 11.7411C15.6005 11.5067 15.9185 11.375 16.25 11.375C16.5815 11.375 16.8995 11.5067 17.1339 11.7411C17.3683 11.9755 17.5 12.2935 17.5 12.625ZM18.75 12.625C18.75 11.962 18.4866 11.3261 18.0178 10.8572C17.5489 10.3884 16.913 10.125 16.25 10.125C15.587 10.125 14.9511 10.3884 14.4822 10.8572C14.0134 11.3261 13.75 11.962 13.75 12.625C13.75 13.288 14.0134 13.9239 14.4822 14.3928C14.9511 14.8616 15.587 15.125 16.25 15.125C16.913 15.125 17.5489 14.8616 18.0178 14.3928C18.4866 13.9239 18.75 13.288 18.75 12.625ZM11.25 9.5C11.25 9.83152 11.1183 10.1495 10.8839 10.3839C10.6495 10.6183 10.3315 10.75 10 10.75C9.66848 10.75 9.35054 10.6183 9.11612 10.3839C8.8817 10.1495 8.75 9.83152 8.75 9.5C8.75 9.16848 8.8817 8.85054 9.11612 8.61612C9.35054 8.3817 9.66848 8.25 10 8.25C10.3315 8.25 10.6495 8.3817 10.8839 8.61612C11.1183 8.85054 11.25 9.16848 11.25 9.5ZM12.5 9.5C12.5 8.83696 12.2366 8.20107 11.7678 7.73223C11.2989 7.26339 10.663 7 10 7C9.33696 7 8.70107 7.26339 8.23223 7.73223C7.76339 8.20107 7.5 8.83696 7.5 9.5C7.5 10.163 7.76339 10.7989 8.23223 11.2678C8.70107 11.7366 9.33696 12 10 12C10.663 12 11.2989 11.7366 11.7678 11.2678C12.2366 10.7989 12.5 10.163 12.5 9.5ZM5 12.625C5 12.9565 4.8683 13.2745 4.63388 13.5089C4.39946 13.7433 4.08152 13.875 3.75 13.875C3.41848 13.875 3.10054 13.7433 2.86612 13.5089C2.6317 13.2745 2.5 12.9565 2.5 12.625C2.5 12.2935 2.6317 11.9755 2.86612 11.7411C3.10054 11.5067 3.41848 11.375 3.75 11.375C4.08152 11.375 4.39946 11.5067 4.63388 11.7411C4.8683 11.9755 5 12.2935 5 12.625ZM6.25 12.625C6.25 11.962 5.98661 11.3261 5.51777 10.8572C5.04893 10.3884 4.41304 10.125 3.75 10.125C3.08696 10.125 2.45107 10.3884 1.98223 10.8572C1.51339 11.3261 1.25 11.962 1.25 12.625C1.25 13.288 1.51339 13.9239 1.98223 14.3928C2.45107 14.8616 3.08696 15.125 3.75 15.125C4.41304 15.125 5.04893 14.8616 5.51777 14.3928C5.98661 13.9239 6.25 13.288 6.25 12.625ZM14.6383 13.6892C13.9396 14.4637 13.0581 15.051 12.0742 15.3975C11.9178 15.4525 11.7897 15.5674 11.718 15.7169C11.6464 15.8664 11.6371 16.0382 11.6921 16.1946C11.7471 16.351 11.862 16.4791 12.0115 16.5507C12.161 16.6224 12.3328 16.6317 12.4892 16.5767C13.67 16.1609 14.728 15.4561 15.5667 14.5267C15.6217 14.4657 15.6641 14.3945 15.6916 14.3172C15.7191 14.2398 15.731 14.1578 15.7268 14.0758C15.7226 13.9938 15.7023 13.9135 15.667 13.8393C15.6317 13.7652 15.5822 13.6987 15.5212 13.6437C15.4603 13.5888 15.3891 13.5463 15.3117 13.5188C15.2344 13.4914 15.1524 13.4794 15.0704 13.4836C14.9884 13.4878 14.908 13.5081 14.8339 13.5434C14.7598 13.5787 14.6933 13.6282 14.6383 13.6892ZM16.1367 8.30083C16.2842 9.06917 16.2892 9.85833 16.1492 10.6275C16.1196 10.7906 16.1559 10.9588 16.2503 11.0951C16.3447 11.2314 16.4894 11.3246 16.6525 11.3542C16.8156 11.3838 16.9838 11.3474 17.1201 11.253C17.2564 11.1586 17.3496 11.0139 17.3792 10.8508C17.5458 9.92917 17.5408 8.98417 17.3633 8.06417C17.3502 7.98135 17.3206 7.90201 17.2762 7.83087C17.2318 7.75974 17.1736 7.69827 17.1049 7.65012C17.0363 7.60197 16.9586 7.56812 16.8766 7.5506C16.7946 7.53308 16.7099 7.53223 16.6276 7.54812C16.5453 7.564 16.467 7.59629 16.3974 7.64306C16.3278 7.68983 16.2683 7.75013 16.2225 7.82036C16.1767 7.8906 16.1455 7.96933 16.1307 8.05187C16.116 8.13442 16.118 8.21908 16.1367 8.30083ZM11.6892 3.48083C12.8256 3.80002 13.8484 4.4345 14.6392 5.31083C14.7519 5.4267 14.9052 5.49437 15.0668 5.49963C15.2283 5.50489 15.3857 5.44733 15.5057 5.33904C15.6258 5.23075 15.6992 5.08016 15.7105 4.91889C15.7219 4.75762 15.6703 4.59822 15.5667 4.47417C14.618 3.42253 13.3909 2.66094 12.0275 2.2775C11.9484 2.25496 11.8656 2.24825 11.7839 2.25777C11.7022 2.26729 11.6232 2.29284 11.5513 2.33297C11.4795 2.37309 11.4164 2.427 11.3654 2.4916C11.3145 2.55619 11.2768 2.63021 11.2545 2.7094C11.2323 2.78859 11.2259 2.8714 11.2357 2.95308C11.2455 3.03475 11.2713 3.11369 11.3117 3.18536C11.3521 3.25703 11.4062 3.32002 11.471 3.37072C11.5357 3.42143 11.6099 3.45885 11.6892 3.48083ZM5.36167 5.31083C6.15223 4.43463 7.17472 3.80017 8.31083 3.48083C8.3901 3.45885 8.46425 3.42143 8.52903 3.37072C8.5938 3.32002 8.64793 3.25703 8.68831 3.18536C8.72869 3.11369 8.75453 3.03475 8.76433 2.95308C8.77414 2.8714 8.76773 2.78859 8.74546 2.7094C8.72319 2.63021 8.68551 2.55619 8.63458 2.4916C8.58365 2.427 8.52046 2.37309 8.44865 2.33297C8.37684 2.29284 8.29781 2.26729 8.21611 2.25777C8.1344 2.24825 8.05161 2.25496 7.9725 2.2775C6.60905 2.6609 5.382 3.42249 4.43333 4.47417C4.32645 4.59788 4.27229 4.75855 4.28248 4.92173C4.29267 5.0849 4.3664 5.23759 4.48784 5.34704C4.60929 5.45649 4.76879 5.514 4.93214 5.50724C5.09549 5.50047 5.24969 5.42996 5.36167 5.31083ZM3.86333 10.7C3.71062 9.90785 3.71062 9.09382 3.86333 8.30167C3.88199 8.21992 3.884 8.13525 3.86925 8.05271C3.8545 7.97016 3.8233 7.89143 3.77749 7.8212C3.73168 7.75096 3.67221 7.69067 3.60262 7.6439C3.53302 7.59712 3.45473 7.56484 3.37239 7.54895C3.29006 7.53307 3.20538 7.53391 3.12338 7.55143C3.04138 7.56896 2.96374 7.6028 2.89509 7.65095C2.82645 7.6991 2.76819 7.76057 2.72379 7.83171C2.6794 7.90284 2.64977 7.98218 2.63667 8.065C2.45381 9.01349 2.45381 9.98818 2.63667 10.9367C2.67273 11.0947 2.76879 11.2326 2.90457 11.3211C3.04035 11.4097 3.20523 11.442 3.36441 11.4113C3.52358 11.3806 3.6646 11.2892 3.75769 11.1565C3.85078 11.0238 3.88866 10.8601 3.86333 10.7ZM7.92667 15.3992C6.95954 15.0577 6.09106 14.4839 5.3975 13.7283C5.34202 13.6678 5.27516 13.6188 5.20074 13.5841C5.12632 13.5495 5.0458 13.5298 4.96377 13.5262C4.88175 13.5227 4.79982 13.5353 4.72268 13.5634C4.64554 13.5915 4.57468 13.6345 4.51417 13.69C4.45365 13.7455 4.40465 13.8123 4.36997 13.8868C4.3353 13.9612 4.31562 14.0417 4.31206 14.1237C4.3085 14.2058 4.32113 14.2877 4.34923 14.3648C4.37733 14.442 4.42035 14.5128 4.47583 14.5733C5.30789 15.4797 6.34978 16.1679 7.51 16.5775C7.58773 16.6064 7.67044 16.6196 7.75331 16.6162C7.83618 16.6129 7.91755 16.5931 7.99268 16.5579C8.06782 16.5228 8.13521 16.4731 8.19093 16.4116C8.24665 16.3502 8.28958 16.2783 8.31723 16.2001C8.34488 16.1219 8.35669 16.039 8.35198 15.9562C8.34726 15.8734 8.32611 15.7924 8.28976 15.7178C8.2534 15.6433 8.20258 15.5767 8.14024 15.522C8.0779 15.4673 8.0053 15.4255 7.92667 15.3992ZM6.09167 18.3517C6.00387 18.5421 5.9654 18.7516 5.97979 18.9608C5.99418 19.17 6.06097 19.3722 6.17402 19.5488C6.28707 19.7255 6.44273 19.8708 6.62668 19.9715C6.81064 20.0722 7.01696 20.125 7.22667 20.125H12.7733C12.983 20.125 13.1894 20.0722 13.3733 19.9715C13.5573 19.8708 13.7129 19.7255 13.826 19.5488C13.939 19.3722 14.0058 19.17 14.0202 18.9608C14.0346 18.7516 13.9961 18.5421 13.9083 18.3517L11.1467 11.5042C10.8458 10.85 10.1033 10.5758 9.47583 10.865C9.20596 10.9898 8.98939 11.2066 8.865 11.4767L6.07917 18.3792L6.09167 18.3517ZM7.23917 18.8475L10.0125 11.9725L10 12L12.7608 18.8475L12.7733 18.875H7.22667L7.23917 18.8475Z" fill="#262626"/>
</svg>
