<svg width="32" height="33" viewBox="0 0 32 33" fill="none" xmlns="http://www.w3.org/2000/svg">
<path d="M32 18.125C32 16.0033 31.1571 13.9685 29.6568 12.4682C28.1566 10.9679 26.1217 10.125 24 10.125H20C17.8783 10.125 15.8434 10.9679 14.3431 12.4682C12.8428 13.9685 12 16.0033 12 18.125C12 20.2468 12.8428 22.2816 14.3431 23.7819C15.8434 25.2822 17.8783 26.125 20 26.125H21L20.2933 25.8317L26.2933 31.8317C26.4332 31.9714 26.6113 32.0665 26.8051 32.105C26.999 32.1435 27.1999 32.1237 27.3826 32.0481C27.5652 31.9725 27.7213 31.8444 27.8312 31.6801C27.9411 31.5159 27.9998 31.3227 28 31.125V24.4264L27.4267 25.3304C28.792 24.6851 29.9464 23.6659 30.7559 22.391C31.5654 21.1161 31.9968 19.6379 32 18.1277V18.125ZM30 18.1224C29.9979 19.2544 29.6749 20.3626 29.0684 21.3184C28.4618 22.2742 27.5967 23.0384 26.5733 23.5224C26.4019 23.6032 26.257 23.7311 26.1555 23.8912C26.054 24.0512 26.0001 24.2368 26 24.4264V31.125L27.7067 30.4184L21.7067 24.4184C21.5193 24.2308 21.2651 24.1253 21 24.125H20C18.4087 24.125 16.8826 23.4929 15.7573 22.3677C14.6321 21.2425 14 19.7163 14 18.125C14 16.5337 14.6321 15.0076 15.7573 13.8824C16.8826 12.7572 18.4087 12.125 20 12.125H24C25.5913 12.125 27.1174 12.7572 28.2426 13.8824C29.3678 15.0076 30 16.5337 30 18.125V18.1224ZM8.29332 16.4184L4.29332 20.4184L5.99999 21.125V14.4264C5.99991 14.2368 5.94597 14.0512 5.84447 13.8912C5.74296 13.7311 5.59806 13.6032 5.42665 13.5224C4.19598 12.9411 3.20018 11.9577 2.60346 10.7345C2.00674 9.51122 1.84476 8.12112 2.14422 6.79344C2.44368 5.46575 3.1867 4.27977 4.25074 3.4311C5.31477 2.58243 6.63629 2.12174 7.99732 2.12503H12C13.2921 2.12526 14.5496 2.54241 15.5857 3.31447C16.6217 4.08653 17.381 5.17228 17.7507 6.41036C17.8263 6.66462 17.9999 6.87839 18.2332 7.00467C18.4665 7.13094 18.7404 7.15937 18.9947 7.0837C19.2489 7.00802 19.4627 6.83444 19.589 6.60115C19.7152 6.36785 19.7437 6.09395 19.668 5.8397C19.1754 4.18861 18.163 2.74061 16.7815 1.711C15.3999 0.681388 13.723 0.125162 12 0.125029H7.99999C6.18386 0.120172 4.42035 0.73464 3.00048 1.86703C1.58061 2.99942 0.589239 4.58205 0.189969 6.35375C-0.2093 8.12545 0.00739463 9.98033 0.804293 11.6123C1.60119 13.2442 2.93067 14.5557 4.57332 15.3304L3.99999 14.4264V21.125C4.00016 21.3227 4.0589 21.5159 4.1688 21.6801C4.27869 21.8444 4.4348 21.9725 4.61742 22.0481C4.80004 22.1237 5.00097 22.1435 5.19483 22.105C5.3887 22.0665 5.5668 21.9714 5.70665 21.8317L9.70665 17.8317C9.8049 17.7401 9.88371 17.6297 9.93836 17.5071C9.99302 17.3844 10.0224 17.252 10.0248 17.1177C10.0271 16.9835 10.0024 16.8501 9.95215 16.7256C9.90186 16.601 9.827 16.4879 9.73204 16.393C9.63708 16.298 9.52397 16.2232 9.39945 16.1729C9.27493 16.1226 9.14156 16.0979 9.00729 16.1002C8.87302 16.1026 8.7406 16.132 8.61794 16.1867C8.49527 16.2413 8.38487 16.3201 8.29332 16.4184Z" fill="#0071C2"/>
</svg>
