<svg width="17" height="17" viewBox="0 0 17 17" fill="none" xmlns="http://www.w3.org/2000/svg">
<path d="M0.426204 2.53516V6.70649C0.426257 7.36935 0.689555 8.00505 1.1582 8.47382L8.86487 16.1818C9.00416 16.3211 9.16952 16.4316 9.35151 16.507C9.5335 16.5824 9.72855 16.6212 9.92554 16.6212C10.1225 16.6212 10.3176 16.5824 10.4996 16.507C10.6816 16.4316 10.8469 16.3211 10.9862 16.1818L15.5729 11.5952C15.854 11.3139 16.0119 10.9325 16.0119 10.5348C16.0119 10.1372 15.854 9.75577 15.5729 9.47449L7.8642 1.76716C7.39559 1.29867 6.76016 1.03539 6.09754 1.03516H1.92554C1.52771 1.03516 1.14618 1.19319 0.864877 1.4745C0.583572 1.7558 0.426204 2.13733 0.426204 2.53516ZM1.4262 2.53516C1.4262 2.40255 1.47888 2.27537 1.57265 2.1816C1.66642 2.08783 1.7936 2.03516 1.9262 2.03516H6.09754C6.49513 2.03533 6.87639 2.19335 7.15754 2.47449L14.8655 10.1812C14.9592 10.2749 15.0118 10.402 15.0118 10.5345C15.0118 10.667 14.9592 10.7941 14.8655 10.8878L10.2789 15.4745C10.1851 15.5681 10.058 15.6207 9.92554 15.6207C9.79304 15.6207 9.66595 15.5681 9.5722 15.4745L1.86554 7.76782C1.5844 7.48668 1.42638 7.10542 1.4262 6.70782V2.53516ZM4.9262 5.03516C4.9262 5.10082 4.91327 5.16584 4.88814 5.2265C4.86302 5.28716 4.82619 5.34228 4.77976 5.38871C4.73333 5.43514 4.67821 5.47197 4.61755 5.4971C4.55688 5.52222 4.49186 5.53516 4.4262 5.53516C4.36054 5.53516 4.29552 5.52222 4.23486 5.4971C4.1742 5.47197 4.11908 5.43514 4.07265 5.38871C4.02622 5.34228 3.98939 5.28716 3.96426 5.2265C3.93914 5.16584 3.9262 5.10082 3.9262 5.03516C3.9262 4.90255 3.97888 4.77537 4.07265 4.6816C4.16642 4.58783 4.2936 4.53516 4.4262 4.53516C4.55881 4.53516 4.68599 4.58783 4.77976 4.6816C4.87353 4.77537 4.9262 4.90255 4.9262 5.03516ZM5.9262 5.03516C5.9262 4.63733 5.76817 4.2558 5.48686 3.9745C5.20556 3.69319 4.82403 3.53516 4.4262 3.53516C4.02838 3.53516 3.64685 3.69319 3.36554 3.9745C3.08424 4.2558 2.9262 4.63733 2.9262 5.03516C2.9262 5.43298 3.08424 5.81451 3.36554 6.09582C3.64685 6.37712 4.02838 6.53516 4.4262 6.53516C4.82403 6.53516 5.20556 6.37712 5.48686 6.09582C5.76817 5.81451 5.9262 5.43298 5.9262 5.03516Z" fill="#262626"/>
</svg>
