<svg width="17" height="17" viewBox="0 0 17 17" fill="none" xmlns="http://www.w3.org/2000/svg">
<path d="M7.69745 13.1561C7.56541 13.1562 7.43869 13.1041 7.34495 13.0111L3.2412 8.92111C3.18977 8.87603 3.14814 8.82088 3.11888 8.75907C3.08962 8.69726 3.07335 8.6301 3.07108 8.56176C3.0688 8.49341 3.08057 8.42532 3.10566 8.3617C3.13075 8.29808 3.16862 8.24029 3.21693 8.19189C3.26525 8.14349 3.32298 8.10552 3.38655 8.08032C3.45012 8.05512 3.51819 8.04322 3.58654 8.04538C3.65489 8.04753 3.72208 8.06368 3.78394 8.09283C3.8458 8.12198 3.90102 8.16352 3.9462 8.21486L7.64245 11.8974L13.3199 4.35611C13.3575 4.29903 13.4063 4.25024 13.4635 4.21277C13.5206 4.1753 13.5848 4.14993 13.6521 4.13824C13.7194 4.12654 13.7884 4.12877 13.8548 4.14478C13.9213 4.16078 13.9837 4.19024 14.0383 4.23131C14.0929 4.27239 14.1385 4.32422 14.1723 4.3836C14.2061 4.44298 14.2273 4.50866 14.2347 4.57658C14.2422 4.6445 14.2356 4.71322 14.2154 4.77849C14.1952 4.84377 14.1619 4.90422 14.1174 4.95611L8.0962 12.9561C8.05342 13.0136 7.99881 13.0611 7.93606 13.0956C7.8733 13.1301 7.80386 13.1508 7.73245 13.1561H7.69745Z" fill="#262626"/>
</svg>
