<svg width="17" height="17" viewBox="0 0 17 17" fill="none" xmlns="http://www.w3.org/2000/svg">
<path d="M7.69745 12.8592C7.56541 12.8593 7.43869 12.8072 7.34495 12.7142L3.2412 8.62423C3.18977 8.57915 3.14814 8.524 3.11888 8.46219C3.08962 8.40038 3.07335 8.33323 3.07108 8.26488C3.0688 8.19653 3.08057 8.12844 3.10566 8.06483C3.13075 8.00121 3.16862 7.94341 3.21693 7.89502C3.26525 7.84662 3.32298 7.80864 3.38655 7.78344C3.45012 7.75824 3.51819 7.74635 3.58654 7.7485C3.65489 7.75066 3.72208 7.76681 3.78394 7.79596C3.8458 7.82511 3.90102 7.86664 3.9462 7.91798L7.64245 11.6005L13.3199 4.05923C13.3575 4.00215 13.4063 3.95337 13.4635 3.9159C13.5206 3.87842 13.5848 3.85306 13.6521 3.84136C13.7194 3.82967 13.7884 3.83189 13.8548 3.8479C13.9213 3.86391 13.9837 3.89336 14.0383 3.93444C14.0929 3.97551 14.1385 4.02734 14.1723 4.08672C14.2061 4.14611 14.2273 4.21179 14.2347 4.2797C14.2422 4.34762 14.2356 4.41634 14.2154 4.48162C14.1952 4.54689 14.1619 4.60734 14.1174 4.65923L8.0962 12.6592C8.05342 12.7167 7.99881 12.7643 7.93606 12.7988C7.8733 12.8333 7.80386 12.8539 7.73245 12.8592H7.69745Z" fill="#262626"/>
</svg>
