<svg width="17" height="17" viewBox="0 0 17 17" fill="none" xmlns="http://www.w3.org/2000/svg">
<path d="M13.8594 7.79688H8.85938V2.79688C8.85938 2.66427 8.8067 2.53709 8.71293 2.44332C8.61916 2.34955 8.49198 2.29688 8.35938 2.29688C8.22677 2.29688 8.09959 2.34955 8.00582 2.44332C7.91205 2.53709 7.85938 2.66427 7.85938 2.79688V7.79688H2.85938C2.72677 7.79688 2.59959 7.84955 2.50582 7.94332C2.41205 8.03709 2.35938 8.16427 2.35938 8.29688C2.35938 8.42948 2.41205 8.55666 2.50582 8.65043C2.59959 8.7442 2.72677 8.79688 2.85938 8.79688H7.85938V13.7969C7.85938 13.9295 7.91205 14.0567 8.00582 14.1504C8.09959 14.2442 8.22677 14.2969 8.35938 14.2969C8.49198 14.2969 8.61916 14.2442 8.71293 14.1504C8.8067 14.0567 8.85938 13.9295 8.85938 13.7969V8.79688H13.8594C13.992 8.79688 14.1192 8.7442 14.2129 8.65043C14.3067 8.55666 14.3594 8.42948 14.3594 8.29688C14.3594 8.16427 14.3067 8.03709 14.2129 7.94332C14.1192 7.84955 13.992 7.79688 13.8594 7.79688Z" fill="#262626"/>
</svg>
