<svg width="21" height="21" viewBox="0 0 21 21" fill="none" xmlns="http://www.w3.org/2000/svg">
<path d="M19.1719 13.875V15.125C19.1719 15.2908 19.106 15.4497 18.9888 15.5669C18.8716 15.6842 18.7126 15.75 18.5469 15.75C18.3811 15.75 18.2221 15.6842 18.1049 15.5669C17.9877 15.4497 17.9219 15.2908 17.9219 15.125V13.875H2.92188V15.125C2.92188 15.2908 2.85603 15.4497 2.73882 15.5669C2.62161 15.6842 2.46264 15.75 2.29688 15.75C2.13111 15.75 1.97214 15.6842 1.85493 15.5669C1.73772 15.4497 1.67188 15.2908 1.67188 15.125V13.875C1.67187 13.5435 1.80357 13.2255 2.03799 12.9911C2.27241 12.7567 2.59035 12.625 2.92188 12.625H17.9219C18.2534 12.625 18.5713 12.7567 18.8058 12.9911C19.0402 13.2255 19.1719 13.5435 19.1719 13.875ZM3.54688 8.25C3.54688 8.08424 3.61272 7.92527 3.72993 7.80806C3.84714 7.69085 4.00611 7.625 4.17188 7.625H16.6719C16.8376 7.625 16.9966 7.69085 17.1138 7.80806C17.231 7.92527 17.2969 8.08424 17.2969 8.25V9.5H18.5469V8.25C18.5469 7.75272 18.3493 7.27581 17.9977 6.92417C17.6461 6.57254 17.1692 6.375 16.6719 6.375H4.17188C3.67459 6.375 3.19768 6.57254 2.84605 6.92417C2.49442 7.27581 2.29688 7.75272 2.29688 8.25V9.5H3.54688V8.25ZM9.79688 11.375C9.79688 11.0435 9.66518 10.7255 9.43076 10.4911C9.19634 10.2567 8.8784 10.125 8.54688 10.125H3.54688C3.21535 10.125 2.89741 10.2567 2.66299 10.4911C2.42857 10.7255 2.29688 11.0435 2.29688 11.375V12H9.79688V11.375ZM12.2969 10.125C11.9654 10.125 11.6474 10.2567 11.413 10.4911C11.1786 10.7255 11.0469 11.0435 11.0469 11.375V12H18.5469V11.375C18.5469 11.0435 18.4152 10.7255 18.1808 10.4911C17.9463 10.2567 17.6284 10.125 17.2969 10.125H12.2969Z" fill="#262626"/>
</svg>
