<svg width="13" height="13" viewBox="0 0 13 13" fill="none" xmlns="http://www.w3.org/2000/svg">
<path d="M12.2574 6.17938L7.43087 0.696875C7.19764 0.456192 6.88162 0.313196 6.54687 0.296875C6.21217 0.313394 5.89622 0.456358 5.66287 0.696875L0.836369 6.17938C0.773363 6.24874 0.724786 6.32994 0.693465 6.41826C0.662144 6.50658 0.648706 6.60024 0.653932 6.69381C0.659158 6.78737 0.682944 6.87895 0.723906 6.96323C0.764868 7.04751 0.822187 7.1228 0.892525 7.18472C0.962864 7.24663 1.04482 7.29394 1.13361 7.32388C1.22241 7.35381 1.31627 7.36579 1.40974 7.3591C1.50321 7.35242 1.59441 7.3272 1.67804 7.28493C1.76167 7.24266 1.83606 7.18417 1.89687 7.11287L5.62187 2.87987C5.6387 2.8609 5.66091 2.8475 5.68553 2.84145C5.71016 2.8354 5.73605 2.83698 5.75976 2.84598C5.78347 2.85499 5.80387 2.87099 5.81827 2.89187C5.83267 2.91275 5.84038 2.93751 5.84037 2.96287V11.5904C5.84037 11.7778 5.9148 11.9575 6.0473 12.0899C6.17979 12.2224 6.35949 12.2969 6.54687 12.2969C6.73424 12.2969 6.91395 12.2224 7.04644 12.0899C7.17893 11.9575 7.25337 11.7778 7.25337 11.5904V2.96287C7.25335 2.93744 7.26108 2.91261 7.27555 2.89169C7.29001 2.87077 7.3105 2.85476 7.3343 2.8458C7.3581 2.83683 7.38407 2.83534 7.40874 2.84152C7.43341 2.84769 7.45561 2.86125 7.47237 2.88037L11.1969 7.11287C11.2577 7.18417 11.3321 7.24266 11.4157 7.28493C11.4993 7.3272 11.5905 7.35242 11.684 7.3591C11.7775 7.36579 11.8713 7.35381 11.9601 7.32388C12.0489 7.29394 12.1309 7.24663 12.2012 7.18472C12.2716 7.1228 12.3289 7.04751 12.3698 6.96323C12.4108 6.87895 12.4346 6.78737 12.4398 6.69381C12.445 6.60024 12.4316 6.50658 12.4003 6.41826C12.369 6.32994 12.3204 6.24874 12.2574 6.17938Z" fill="#008009"/>
</svg>
