<svg width="20" height="21" viewBox="0 0 20 21" fill="none" xmlns="http://www.w3.org/2000/svg">
<path d="M10.6251 12.9219H19.3751L18.7585 12.1944L18.2051 15.516C18.0349 16.5377 17.5077 17.4657 16.7174 18.1352C15.9271 18.8046 14.925 19.172 13.8893 19.1719H6.11096C5.07511 19.1722 4.07277 18.8049 3.28231 18.1354C2.49186 17.466 1.96457 16.5378 1.7943 15.516L1.2418 12.1944L0.625129 12.9219H4.37513C4.54089 12.9219 4.69986 12.856 4.81707 12.7388C4.93428 12.6216 5.00013 12.4626 5.00013 12.2969C5.00013 12.1311 4.93428 11.9721 4.81707 11.8549C4.69986 11.7377 4.54089 11.6719 4.37513 11.6719H0.625129C0.534369 11.6719 0.444694 11.6916 0.362338 11.7297C0.279982 11.7679 0.206922 11.8235 0.148236 11.8927C0.0895499 11.962 0.0466466 12.0432 0.0225088 12.1307C-0.00162906 12.2181 -0.00642229 12.3098 0.00846232 12.3994L0.561796 15.721C0.780617 17.0348 1.45851 18.2283 2.47482 19.0891C3.49114 19.9499 4.77992 20.4222 6.1118 20.4219H13.8893C15.2209 20.4221 16.5094 19.9498 17.5255 19.0892C18.5416 18.2286 19.2195 17.0354 19.4385 15.7219L19.9918 12.3994C20.0067 12.3098 20.0019 12.2181 19.9777 12.1307C19.9536 12.0432 19.9107 11.962 19.852 11.8927C19.7933 11.8235 19.7203 11.7679 19.6379 11.7297C19.5556 11.6916 19.4659 11.6719 19.3751 11.6719H10.6251C10.4594 11.6719 10.3004 11.7377 10.1832 11.8549C10.066 11.9721 10.0001 12.1311 10.0001 12.2969C10.0001 12.4626 10.066 12.6216 10.1832 12.7388C10.3004 12.856 10.4594 12.9219 10.6251 12.9219ZM10.0001 16.6719H5.00013V12.2969C5.00013 12.1311 5.06598 11.9721 5.18319 11.8549C5.3004 11.7377 5.45937 11.6719 5.62513 11.6719H9.37513C9.54089 11.6719 9.69986 11.7377 9.81707 11.8549C9.93428 11.9721 10.0001 12.1311 10.0001 12.2969V16.6719ZM10.0001 17.9219C10.3316 17.9219 10.6496 17.7902 10.884 17.5558C11.1184 17.3213 11.2501 17.0034 11.2501 16.6719V12.2969C11.2501 11.7996 11.0526 11.3227 10.701 10.971C10.3493 10.6194 9.87241 10.4219 9.37513 10.4219H5.62513C5.12785 10.4219 4.65093 10.6194 4.2993 10.971C3.94767 11.3227 3.75013 11.7996 3.75013 12.2969V16.6719C3.75013 17.0034 3.88182 17.3213 4.11625 17.5558C4.35067 17.7902 4.66861 17.9219 5.00013 17.9219H10.0001ZM13.7501 3.54687C13.7501 3.04959 13.9477 2.57268 14.2993 2.22105C14.6509 1.86942 15.1278 1.67188 15.6251 1.67188C16.1224 1.67188 16.5993 1.86942 16.951 2.22105C17.3026 2.57268 17.5001 3.04959 17.5001 3.54687V12.2969C17.5001 12.4626 17.566 12.6216 17.6832 12.7388C17.8004 12.856 17.9594 12.9219 18.1251 12.9219C18.2909 12.9219 18.4499 12.856 18.5671 12.7388C18.6843 12.6216 18.7501 12.4626 18.7501 12.2969V3.54687C18.7501 2.71807 18.4209 1.92322 17.8348 1.33717C17.2488 0.751115 16.4539 0.421875 15.6251 0.421875C14.7963 0.421875 14.0015 0.751115 13.4154 1.33717C12.8294 1.92322 12.5001 2.71807 12.5001 3.54687C12.5001 3.71264 12.566 3.87161 12.6832 3.98882C12.8004 4.10603 12.9594 4.17187 13.1251 4.17187C13.2909 4.17187 13.4499 4.10603 13.5671 3.98882C13.6843 3.87161 13.7501 3.71264 13.7501 3.54687ZM11.2501 6.04687C11.2501 5.54959 11.4477 5.07268 11.7993 4.72105C12.1509 4.36942 12.6278 4.17187 13.1251 4.17187C13.6224 4.17187 14.0993 4.36942 14.451 4.72105C14.8026 5.07268 15.0001 5.54959 15.0001 6.04687L15.6251 5.42187H10.6251L11.2501 6.04687ZM10.0001 6.04687C10.0001 6.39187 10.2801 6.67187 10.6251 6.67187H15.6251C15.7909 6.67187 15.9499 6.60603 16.0671 6.48882C16.1843 6.37161 16.2501 6.21264 16.2501 6.04687C16.2501 5.21807 15.9209 4.42322 15.3348 3.83717C14.7488 3.25112 13.9539 2.92187 13.1251 2.92187C12.2963 2.92187 11.5015 3.25112 10.9154 3.83717C10.3294 4.42322 10.0001 5.21807 10.0001 6.04687Z" fill="#262626"/>
</svg>
