<svg width="20" height="21" viewBox="0 0 20 21" fill="none" xmlns="http://www.w3.org/2000/svg">
<path d="M10.8117 3.08594C10.8117 3.50034 10.647 3.89777 10.354 4.19079C10.061 4.48382 9.66357 4.64844 9.24917 4.64844C8.83477 4.64844 8.43734 4.48382 8.14431 4.19079C7.85129 3.89777 7.68667 3.50034 7.68667 3.08594C7.68667 2.67154 7.85129 2.27411 8.14431 1.98108C8.43734 1.68806 8.83477 1.52344 9.24917 1.52344C9.66357 1.52344 10.061 1.68806 10.354 1.98108C10.647 2.27411 10.8117 2.67154 10.8117 3.08594ZM12.0617 3.08594C12.0617 2.71659 11.9889 2.35087 11.8476 2.00964C11.7062 1.66841 11.4991 1.35836 11.2379 1.0972C10.9767 0.836035 10.6667 0.628868 10.3255 0.487526C9.98423 0.346185 9.61851 0.273437 9.24917 0.273438C8.87982 0.273438 8.5141 0.346185 8.17287 0.487526C7.83164 0.628868 7.52159 0.836035 7.26043 1.0972C6.99926 1.35836 6.7921 1.66841 6.65076 2.00964C6.50941 2.35087 6.43667 2.71659 6.43667 3.08594C6.43667 3.83186 6.73298 4.54723 7.26043 5.07468C7.78788 5.60212 8.50325 5.89844 9.24917 5.89844C9.99509 5.89844 10.7105 5.60212 11.2379 5.07468C11.7653 4.54723 12.0617 3.83186 12.0617 3.08594ZM15.1242 9.3326C14.9372 9.33321 14.7526 9.29155 14.5841 9.21074C14.4155 9.12993 14.2674 9.01205 14.1508 8.86594C13.4896 8.03453 12.6487 7.36351 11.6913 6.90315C10.734 6.44278 9.68482 6.205 8.6225 6.2076C7.1315 6.20959 5.70217 6.80294 4.6481 7.85747C3.59404 8.91201 3.00132 10.3416 3 11.8326C3 12.0788 3.0485 12.3226 3.14273 12.5501C3.23695 12.7776 3.37507 12.9843 3.54917 13.1584C3.72328 13.3325 3.92998 13.4706 4.15747 13.5649C4.38495 13.6591 4.62877 13.7076 4.875 13.7076C5.12123 13.7076 5.36505 13.6591 5.59253 13.5649C5.82002 13.4706 6.02672 13.3325 6.20083 13.1584C6.37494 12.9843 6.51305 12.7776 6.60727 12.5501C6.7015 12.3226 6.75 12.0788 6.75 11.8326C6.75162 11.4176 6.89059 11.0148 7.1452 10.6871C7.39982 10.3593 7.75577 10.1251 8.1575 10.0209L8 9.41594H7.375V9.8326C7.37721 12.4014 6.61675 14.9131 5.19 17.0493C5.04738 17.2542 4.94709 17.4855 4.895 17.7297C4.84292 17.9739 4.84008 18.226 4.88666 18.4713C4.93324 18.7166 5.0283 18.9502 5.16627 19.1583C5.30424 19.3664 5.48235 19.5448 5.69016 19.6832C5.89798 19.8216 6.13132 19.9172 6.37652 19.9642C6.62172 20.0113 6.87385 20.009 7.11814 19.9574C7.36243 19.9058 7.59397 19.806 7.7992 19.6638C8.00443 19.5216 8.17922 19.3399 8.31333 19.1293C9.13464 17.8965 9.78921 16.5604 10.26 15.1559L9.33417 15.4859C10.5153 16.2312 11.4035 17.3607 11.8492 18.6843C12.135 19.6551 13.1783 20.2226 14.1717 19.9293C14.4183 19.8563 14.6473 19.7334 14.8444 19.5682C15.0415 19.403 15.2025 19.199 15.3174 18.9689C15.4323 18.7388 15.4986 18.4875 15.5123 18.2306C15.5259 17.9738 15.4866 17.7169 15.3967 17.4759C14.5796 15.0547 12.85 13.0479 10.5758 11.8826L10.9075 12.5393C11.0533 11.6443 11.1267 10.7393 11.1267 9.8326V9.8076H10.5017L10.205 10.3576C10.5987 10.5699 10.9453 10.8596 11.2242 11.2093C11.6916 11.7965 12.2859 12.2703 12.9624 12.5953C13.639 12.9203 14.3803 13.088 15.1308 13.0859C15.6281 13.0857 16.1049 12.888 16.4564 12.5362C16.8079 12.1844 17.0052 11.7074 17.005 11.2101C17.0048 10.7128 16.807 10.236 16.4552 9.88452C16.1034 9.53305 15.6264 9.33572 15.1292 9.33594V9.96094L15.6292 9.58594L15.6267 9.5826C15.5683 9.50476 15.4925 9.44162 15.4054 9.39821C15.3183 9.35481 15.2215 9.33234 15.1242 9.3326ZM15.1275 10.5826L15.1258 9.9576L14.6258 10.3326L14.6283 10.3359C14.6866 10.4136 14.762 10.4766 14.8488 10.52C14.9356 10.5633 15.0313 10.5859 15.1283 10.5859C15.2941 10.5859 15.4531 10.6518 15.5703 10.769C15.6875 10.8862 15.7533 11.0452 15.7533 11.2109C15.7533 11.3767 15.6875 11.5357 15.5703 11.6529C15.4531 11.7701 15.2941 11.8359 15.1283 11.8359C14.5659 11.8376 14.0104 11.7121 13.5034 11.4686C12.9964 11.2251 12.5511 10.8701 12.2008 10.4301C11.8169 9.94865 11.3395 9.54982 10.7975 9.2576C10.7023 9.20626 10.5954 9.18051 10.4873 9.18285C10.3791 9.1852 10.2734 9.21558 10.1806 9.271C10.0877 9.32643 10.0108 9.40502 9.95735 9.49907C9.90394 9.59313 9.87585 9.69944 9.87583 9.8076V9.8326C9.87583 10.6718 9.80833 11.5093 9.67333 12.3376C9.65207 12.4681 9.67272 12.6019 9.73232 12.7199C9.79191 12.8379 9.88738 12.934 10.005 12.9943C12.0147 14.0253 13.5363 15.8077 14.2392 17.9543C14.2624 18.033 14.2699 18.1156 14.2613 18.1972C14.2526 18.2788 14.228 18.358 14.1888 18.4301C14.1495 18.5022 14.0965 18.5659 14.0326 18.6175C13.9688 18.6691 13.8954 18.7077 13.8167 18.7309C13.7379 18.7542 13.6554 18.7617 13.5737 18.7531C13.4921 18.7444 13.413 18.7198 13.3408 18.6805C13.2687 18.6413 13.205 18.5883 13.1534 18.5244C13.1018 18.4606 13.0633 18.3872 13.04 18.3084C12.5043 16.7035 11.4303 15.3331 10 14.4293C9.91992 14.3788 9.82943 14.3472 9.73535 14.3368C9.64126 14.3264 9.54605 14.3375 9.45689 14.3693C9.36773 14.4011 9.28695 14.4527 9.22065 14.5202C9.15435 14.5878 9.10426 14.6695 9.07417 14.7593C8.63838 16.0589 8.03257 17.2952 7.2725 18.4359C7.17816 18.5686 7.03592 18.6593 6.87588 18.6889C6.71585 18.7185 6.55057 18.6847 6.41502 18.5946C6.27947 18.5045 6.18428 18.3652 6.1496 18.2062C6.11491 18.0472 6.14344 17.8809 6.22917 17.7426C7.79307 15.4009 8.62661 12.6477 8.62417 9.83177V9.41594C8.62419 9.32043 8.60233 9.22618 8.56026 9.14044C8.51818 9.0547 8.45702 8.97974 8.38146 8.92132C8.3059 8.8629 8.21795 8.82257 8.12438 8.80344C8.03081 8.7843 7.93409 8.78687 7.84167 8.81094C7.17263 8.98505 6.58007 9.37576 6.15645 9.92209C5.73284 10.4684 5.50201 11.1396 5.5 11.8309C5.50011 11.913 5.48405 11.9943 5.45274 12.0702C5.42144 12.146 5.37549 12.215 5.31753 12.2731C5.25957 12.3312 5.19073 12.3774 5.11495 12.4089C5.03916 12.4404 4.95791 12.4567 4.87583 12.4568C4.79376 12.4569 4.71246 12.4408 4.63659 12.4095C4.56072 12.3782 4.49176 12.3323 4.43365 12.2743C4.37553 12.2163 4.3294 12.1475 4.29789 12.0717C4.26638 11.9959 4.25011 11.9147 4.25 11.8326C4.25132 10.6727 4.71268 9.56066 5.53287 8.74047C6.35305 7.92029 7.46508 7.45893 8.625 7.4576C9.49913 7.45515 10.3625 7.6506 11.1503 8.0293C11.9382 8.408 12.6301 8.96012 13.1742 9.64427C13.4081 9.93782 13.7054 10.1747 14.0438 10.3372C14.3822 10.4997 14.7521 10.5836 15.1275 10.5826Z" fill="#262626"/>
</svg>
