<svg width="24" height="25" viewBox="0 0 24 25" fill="none" xmlns="http://www.w3.org/2000/svg">
<path d="M14.25 16.5781H13.5C13.3011 16.5781 13.1103 16.4991 12.9697 16.3585C12.829 16.2178 12.75 16.027 12.75 15.8281V12.0781C12.75 11.6803 12.592 11.2988 12.3107 11.0175C12.0294 10.7362 11.6478 10.5781 11.25 10.5781H10.5C10.3011 10.5781 10.1103 10.6571 9.96967 10.7978C9.82902 10.9384 9.75 11.1292 9.75 11.3281C9.75 11.527 9.82902 11.7178 9.96967 11.8585C10.1103 11.9991 10.3011 12.0781 10.5 12.0781H11.25V15.8281C11.25 16.4249 11.4871 16.9972 11.909 17.4191C12.331 17.8411 12.9033 18.0781 13.5 18.0781H14.25C14.4489 18.0781 14.6397 17.9991 14.7803 17.8585C14.921 17.7178 15 17.527 15 17.3281C15 17.1292 14.921 16.9384 14.7803 16.7978C14.6397 16.6571 14.4489 16.5781 14.25 16.5781ZM11.625 6.82812C11.3266 6.82812 11.0405 6.94665 10.8295 7.15763C10.6185 7.36861 10.5 7.65476 10.5 7.95312C10.5 8.25149 10.6185 8.53764 10.8295 8.74862C11.0405 8.9596 11.3266 9.07812 11.625 9.07812C11.9234 9.07812 12.2095 8.9596 12.4205 8.74862C12.6315 8.53764 12.75 8.25149 12.75 7.95312C12.75 7.65476 12.6315 7.36861 12.4205 7.15763C12.2095 6.94665 11.9234 6.82812 11.625 6.82812C11.4261 6.82813 11.2353 6.90714 11.0947 7.04779C10.954 7.18845 10.875 7.37921 10.875 7.57812C10.875 7.77704 10.954 7.9678 11.0947 8.10846C11.2353 8.24911 11.4261 8.32812 11.625 8.32812C11.5255 8.32812 11.4302 8.28862 11.3598 8.21829C11.2895 8.14796 11.25 8.05258 11.25 7.95312C11.25 7.85367 11.2895 7.75829 11.3598 7.68796C11.4302 7.61763 11.5255 7.57812 11.625 7.57812C11.7245 7.57812 11.8198 7.61763 11.8902 7.68796C11.9605 7.75829 12 7.85367 12 7.95312C12 8.05258 11.9605 8.14796 11.8902 8.21829C11.8198 8.28862 11.7245 8.32812 11.625 8.32812C11.8239 8.32812 12.0147 8.24911 12.1553 8.10846C12.296 7.9678 12.375 7.77704 12.375 7.57812C12.375 7.37921 12.296 7.18845 12.1553 7.04779C12.0147 6.90714 11.8239 6.82813 11.625 6.82812ZM22.5 12.8281C22.5 18.6271 17.799 23.3281 12 23.3281C6.201 23.3281 1.5 18.6271 1.5 12.8281C1.5 7.02913 6.201 2.32812 12 2.32812C17.799 2.32812 22.5 7.02913 22.5 12.8281ZM24 12.8281C24 6.20113 18.627 0.828125 12 0.828125C5.373 0.828125 0 6.20113 0 12.8281C0 19.4551 5.373 24.8281 12 24.8281C18.627 24.8281 24 19.4551 24 12.8281Z" fill="#923E01"/>
</svg>
