<svg width="21" height="21" viewBox="0 0 21 21" fill="none" xmlns="http://www.w3.org/2000/svg">
<path d="M12.1981 12.2185C12.0259 10.8517 11.3581 9.59556 10.3212 8.68838C9.28443 7.7812 7.95075 7.28607 6.57312 7.29687C5.16223 7.28773 3.79946 7.80939 2.75529 8.7583C1.71113 9.70722 1.0619 11.014 0.936458 12.4194C0.92198 12.5843 0.973527 12.7482 1.07979 12.8752C1.18605 13.0021 1.33834 13.0817 1.50323 13.0965C1.66812 13.1113 1.83215 13.0601 1.95931 12.9541C2.08646 12.848 2.16636 12.6959 2.18146 12.531C2.27956 11.4369 2.78573 10.4196 3.59937 9.68147C4.41301 8.94333 5.47458 8.5383 6.57312 8.54687C7.64623 8.53656 8.68574 8.9208 9.49415 9.62659C10.3026 10.3324 10.8235 11.3105 10.9581 12.3752C10.9673 12.4576 10.9927 12.5373 11.0329 12.6097C11.0732 12.6822 11.1274 12.7459 11.1925 12.7972C11.2576 12.8485 11.3323 12.8863 11.4121 12.9085C11.492 12.9306 11.5754 12.9367 11.6576 12.9263C11.7399 12.9159 11.8192 12.8893 11.891 12.8479C11.9628 12.8066 12.0257 12.7514 12.076 12.6856C12.1263 12.6197 12.163 12.5445 12.184 12.4643C12.2049 12.3841 12.2098 12.3006 12.1981 12.2185ZM8.76562 3.85937C8.76562 4.14664 8.70904 4.4311 8.59911 4.6965C8.48918 4.96189 8.32805 5.20304 8.12492 5.40617C7.92179 5.6093 7.68064 5.77043 7.41525 5.88036C7.14985 5.99029 6.86539 6.04687 6.57812 6.04687C6.29086 6.04687 6.0064 5.99029 5.74101 5.88036C5.47561 5.77043 5.23446 5.6093 5.03133 5.40617C4.8282 5.20304 4.66707 4.96189 4.55714 4.6965C4.44721 4.4311 4.39062 4.14664 4.39062 3.85937V1.67187H8.76562V3.85937ZM10.0156 3.85937V1.67187C10.0156 1.34035 9.88393 1.02241 9.64951 0.787992C9.41509 0.553571 9.09715 0.421875 8.76562 0.421875L4.39062 0.421875C4.0591 0.421875 3.74116 0.553571 3.50674 0.787992C3.27232 1.02241 3.14062 1.34035 3.14062 1.67187V3.85937C3.14062 4.77106 3.50279 5.6454 4.14745 6.29005C4.7921 6.93471 5.66644 7.29687 6.57812 7.29687C7.48981 7.29687 8.36415 6.93471 9.0088 6.29005C9.65346 5.6454 10.0156 4.77106 10.0156 3.85937ZM19.7031 19.1719H0.953125L1.57812 19.7969V13.5469C1.57812 13.3811 1.64397 13.2221 1.76118 13.1049C1.87839 12.9877 2.03736 12.9219 2.20312 12.9219H18.4531C18.6189 12.9219 18.7779 12.9877 18.8951 13.1049C19.0123 13.2221 19.0781 13.3811 19.0781 13.5469V19.7969L19.7031 19.1719ZM19.7031 20.4219C19.8689 20.4219 20.0279 20.356 20.1451 20.2388C20.2623 20.1216 20.3281 19.9626 20.3281 19.7969V13.5469C20.3281 13.0496 20.1306 12.5727 19.7789 12.221C19.4273 11.8694 18.9504 11.6719 18.4531 11.6719H2.20312C1.70584 11.6719 1.22893 11.8694 0.8773 12.221C0.525669 12.5727 0.328125 13.0496 0.328125 13.5469L0.328125 19.7969C0.328125 20.1419 0.608125 20.4219 0.953125 20.4219H19.7031ZM3.97479 4.60271C4.81099 4.3136 5.69004 4.16794 6.57479 4.17187C7.46326 4.16738 8.34606 4.31362 9.18562 4.60437C9.34232 4.65852 9.51411 4.64821 9.66321 4.57569C9.8123 4.50318 9.92648 4.37441 9.98062 4.21771C10.0348 4.06101 10.0245 3.88922 9.95194 3.74013C9.87943 3.59104 9.75066 3.47686 9.59396 3.42271C8.6236 3.08666 7.60335 2.91732 6.57646 2.92187C5.5524 2.91788 4.53503 3.08692 3.56729 3.42187C3.41535 3.47956 3.29185 3.59416 3.22299 3.74138C3.15413 3.88859 3.14532 4.05684 3.19844 4.21044C3.25155 4.36404 3.36241 4.49091 3.5075 4.56414C3.65259 4.63737 3.81967 4.65121 3.97479 4.60271ZM13.4531 12.3135C13.4708 11.6505 13.7512 11.0216 14.2325 10.5653C14.7138 10.109 15.3568 9.86253 16.0198 9.88021C16.6828 9.89789 17.3117 10.1782 17.768 10.6596C18.2244 11.1409 18.4708 11.7838 18.4531 12.4469C18.4509 12.529 18.4649 12.6107 18.4943 12.6873C18.5237 12.764 18.5679 12.8341 18.6244 12.8937C18.6809 12.9533 18.7486 13.0012 18.8235 13.0346C18.8985 13.068 18.9794 13.0864 19.0615 13.0885C19.1435 13.0907 19.2252 13.0767 19.3019 13.0473C19.3786 13.018 19.4487 12.9738 19.5083 12.9173C19.5679 12.8608 19.6157 12.7931 19.6492 12.7181C19.6826 12.6431 19.7009 12.5623 19.7031 12.4802C19.7296 11.4856 19.36 10.5213 18.6755 9.79927C18.3366 9.44176 17.9305 9.15452 17.4806 8.95393C17.0306 8.75334 16.5456 8.64334 16.0531 8.63021C15.5607 8.61708 15.0704 8.70107 14.6104 8.87739C14.1505 9.05371 13.7297 9.31891 13.3722 9.65785C12.6502 10.3424 12.2296 11.2856 12.2031 12.2802C12.1987 12.446 12.2603 12.6067 12.3744 12.727C12.4885 12.8474 12.6457 12.9175 12.8115 12.9219C12.9772 12.9263 13.1379 12.8647 13.2583 12.7506C13.3786 12.6365 13.4487 12.4793 13.4531 12.3135ZM16.5781 9.17187V7.29687C16.5781 7.13111 16.5123 6.97214 16.3951 6.85493C16.2779 6.73772 16.1189 6.67187 15.9531 6.67187C15.7874 6.67187 15.6284 6.73772 15.5112 6.85493C15.394 6.97214 15.3281 7.13111 15.3281 7.29687V9.17187C15.3281 9.33764 15.394 9.49661 15.5112 9.61382C15.6284 9.73103 15.7874 9.79687 15.9531 9.79687C16.1189 9.79687 16.2779 9.73103 16.3951 9.61382C16.5123 9.49661 16.5781 9.33764 16.5781 9.17187ZM14.7031 7.92187H17.2031C17.3689 7.92187 17.5279 7.85603 17.6451 7.73882C17.7623 7.62161 17.8281 7.46264 17.8281 7.29687C17.8281 7.13111 17.7623 6.97214 17.6451 6.85493C17.5279 6.73772 17.3689 6.67187 17.2031 6.67187H14.7031C14.5374 6.67187 14.3784 6.73772 14.2612 6.85493C14.144 6.97214 14.0781 7.13111 14.0781 7.29687C14.0781 7.46264 14.144 7.62161 14.2612 7.73882C14.3784 7.85603 14.5374 7.92187 14.7031 7.92187Z" fill="#262626"/>
</svg>
