<svg width="20" height="21" viewBox="0 0 20 21" fill="none" xmlns="http://www.w3.org/2000/svg">
<path d="M15.275 3.09992L4.75001 8.42075L5.40834 8.47908L3.77501 7.24742C3.68628 7.18069 3.58138 7.1388 3.47109 7.12606C3.3608 7.11332 3.24911 7.13018 3.14751 7.17492L1.39751 7.94575C0.608341 8.33825 0.299174 9.26408 0.680841 10.0249C0.772508 10.2083 0.900008 10.3724 1.05584 10.5058L4.38667 13.3408C4.75189 13.6535 5.20105 13.8518 5.67819 13.9111C6.15534 13.9704 6.63938 13.888 7.07001 13.6741L10.0867 12.1741L9.18334 11.6149V16.2708C9.18074 16.5325 9.24545 16.7905 9.37127 17.0201C9.49708 17.2496 9.67977 17.443 9.90181 17.5816C10.1238 17.7202 10.3778 17.7995 10.6393 17.8117C10.9007 17.824 11.161 17.7688 11.395 17.6516L12.9617 16.8749C13.1636 16.7744 13.341 16.6308 13.4814 16.4543C13.6218 16.2778 13.7217 16.0726 13.7742 15.8533L15.3325 9.32075L15.0025 9.73575L17.87 8.31325C18.2125 8.14308 18.5181 7.90712 18.7694 7.61884C19.0207 7.33056 19.2127 6.99561 19.3345 6.63312C19.4564 6.27062 19.5056 5.88768 19.4795 5.50615C19.4533 5.12462 19.3523 4.75198 19.1821 4.4095C19.0119 4.06702 18.776 3.76142 18.4877 3.51013C18.1994 3.25885 17.8645 3.0668 17.502 2.94497C17.1395 2.82313 16.7565 2.77388 16.375 2.80004C15.9935 2.8262 15.6208 2.92725 15.2783 3.09742L15.275 3.09992ZM15.835 4.21825C16.229 4.02712 16.6826 3.99925 17.097 4.14071C17.5115 4.28218 17.8533 4.58153 18.0482 4.97368C18.2432 5.36583 18.2754 5.81908 18.1379 6.23488C18.0005 6.65067 17.7044 6.99539 17.3142 7.19408L14.4475 8.61658C14.3654 8.65734 14.2933 8.71564 14.2363 8.78736C14.1793 8.85907 14.1387 8.94245 14.1175 9.03158L12.5592 15.5632C12.5492 15.6048 12.5302 15.6437 12.5036 15.6771C12.477 15.7105 12.4433 15.7376 12.405 15.7566L10.8383 16.5333C10.7955 16.5549 10.7477 16.5651 10.6997 16.5629C10.6518 16.5608 10.6052 16.5462 10.5644 16.5207C10.5237 16.4953 10.4902 16.4597 10.4673 16.4175C10.4443 16.3753 10.4326 16.3279 10.4333 16.2799V11.6166C10.4334 11.5101 10.4063 11.4054 10.3545 11.3124C10.3028 11.2193 10.2281 11.1411 10.1376 11.085C10.0472 11.0289 9.94386 10.9968 9.83752 10.9919C9.73117 10.9869 9.62533 11.0092 9.53001 11.0566L6.51334 12.5566C6.30225 12.6614 6.06498 12.7017 5.83112 12.6725C5.59727 12.6433 5.37719 12.5459 5.19834 12.3924L1.86751 9.55742C1.83136 9.52597 1.80352 9.4861 1.78644 9.44134C1.76936 9.39658 1.76358 9.3483 1.76959 9.30076C1.7756 9.25323 1.79323 9.20791 1.82092 9.16882C1.84861 9.12972 1.8855 9.09804 1.92834 9.07658L3.65084 8.31825L3.02251 8.24575L4.65584 9.47742C4.74916 9.54769 4.8603 9.59041 4.97667 9.60072C5.09303 9.61103 5.20995 9.58852 5.31417 9.53575L15.8392 4.21658L15.835 4.21825ZM13.1083 4.48408L9.39167 2.60075C9.17749 2.49354 8.94129 2.43764 8.70177 2.4375C8.46225 2.43736 8.22599 2.49296 8.01167 2.59992L6.47334 3.35992C6.23881 3.47681 6.03795 3.65156 5.88972 3.86765C5.74149 4.08375 5.65079 4.33406 5.62619 4.59495C5.60158 4.85584 5.64389 5.11869 5.7491 5.35869C5.85431 5.59869 6.01897 5.80791 6.22751 5.96658L8.37167 7.59575C8.43701 7.64543 8.51149 7.68176 8.59086 7.70266C8.67023 7.72356 8.75294 7.72862 8.83427 7.71756C8.9156 7.70649 8.99395 7.67952 9.06486 7.63817C9.13576 7.59682 9.19782 7.54192 9.24751 7.47658C9.29719 7.41125 9.33352 7.33677 9.35442 7.2574C9.37532 7.17803 9.38038 7.09532 9.36931 7.01399C9.35825 6.93266 9.33127 6.85431 9.28993 6.7834C9.24858 6.7125 9.19367 6.65043 9.12834 6.60075L6.98334 4.97158C6.94401 4.94159 6.91295 4.90209 6.89309 4.85679C6.87323 4.81149 6.86521 4.76188 6.86979 4.71263C6.87438 4.66339 6.89141 4.61611 6.91929 4.57525C6.94717 4.5344 6.98498 4.50131 7.02917 4.47908L8.56667 3.71908C8.6074 3.69863 8.65235 3.68798 8.69792 3.68798C8.7435 3.68798 8.78844 3.69863 8.82917 3.71908L12.5425 5.59908C12.6902 5.6729 12.8612 5.68524 13.018 5.63341C13.1748 5.58159 13.3047 5.46981 13.3794 5.32249C13.454 5.17518 13.4673 5.00431 13.4164 4.84721C13.3654 4.69011 13.2552 4.55956 13.1083 4.48408Z" fill="#262626"/>
</svg>
