<svg width="21" height="21" viewBox="0 0 21 21" fill="none" xmlns="http://www.w3.org/2000/svg">
<path d="M16.6406 13.7188V14.5H4.14062V13.7188C4.14062 13.3872 4.27232 13.0693 4.50674 12.8349C4.74116 12.6004 5.0591 12.4688 5.39062 12.4688H15.3906C15.7221 12.4688 16.0401 12.6004 16.2745 12.8349C16.5089 13.0693 16.6406 13.3872 16.6406 13.7188ZM16.6406 7.46875C16.6406 7.13723 16.5089 6.81929 16.2745 6.58487C16.0401 6.35045 15.7221 6.21875 15.3906 6.21875H5.39062C5.0591 6.21875 4.74116 6.35045 4.50674 6.58487C4.27232 6.81929 4.14063 7.13723 4.14062 7.46875V8.25H16.6406V7.46875ZM19.1406 4.5V18.25C19.1406 18.4158 19.0748 18.5747 18.9576 18.6919C18.8404 18.8092 18.6814 18.875 18.5156 18.875C18.3499 18.875 18.1909 18.8092 18.0737 18.6919C17.9565 18.5747 17.8906 18.4158 17.8906 18.25V16.375H2.89062V18.25C2.89062 18.4158 2.82478 18.5747 2.70757 18.6919C2.59036 18.8092 2.43139 18.875 2.26562 18.875C2.09986 18.875 1.94089 18.8092 1.82368 18.6919C1.70647 18.5747 1.64063 18.4158 1.64062 18.25V2C1.64062 1.83424 1.70647 1.67527 1.82368 1.55806C1.94089 1.44085 2.09986 1.375 2.26562 1.375C2.43139 1.375 2.59036 1.44085 2.70757 1.55806C2.82478 1.67527 2.89062 1.83424 2.89062 2V8.875H17.8906V4.5C17.8906 4.33424 17.9565 4.17527 18.0737 4.05806C18.1909 3.94085 18.3499 3.875 18.5156 3.875C18.6814 3.875 18.8404 3.94085 18.9576 4.05806C19.0748 4.17527 19.1406 4.33424 19.1406 4.5ZM2.89062 15.125H17.8906V10.125H2.89062V15.125Z" fill="#262626"/>
</svg>
