<svg width="21" height="21" viewBox="0 0 21 21" fill="none" xmlns="http://www.w3.org/2000/svg">
<path d="M19.0781 10.4219C19.0781 15.2544 15.1606 19.1719 10.3281 19.1719C5.49563 19.1719 1.57812 15.2544 1.57812 10.4219C1.57812 5.58938 5.49563 1.67187 10.3281 1.67187C15.1606 1.67187 19.0781 5.58938 19.0781 10.4219ZM20.3281 10.4219C20.3281 4.89938 15.8506 0.421875 10.3281 0.421875C4.80563 0.421875 0.328125 4.89938 0.328125 10.4219C0.328125 15.9444 4.80563 20.4219 10.3281 20.4219C15.8506 20.4219 20.3281 15.9444 20.3281 10.4219ZM12.2031 9.17187C12.2031 9.5034 12.0714 9.82134 11.837 10.0558C11.6026 10.2902 11.2846 10.4219 10.9531 10.4219H9.07812L9.70312 11.0469V7.29687L9.07812 7.92187H10.9531C11.2846 7.92187 11.6026 8.05357 11.837 8.28799C12.0714 8.52241 12.2031 8.84035 12.2031 9.17187ZM13.4531 9.17187C13.4531 8.50883 13.1897 7.87295 12.7209 7.40411C12.2521 6.93527 11.6162 6.67187 10.9531 6.67187H9.07812C8.91236 6.67187 8.75339 6.73772 8.63618 6.85493C8.51897 6.97214 8.45312 7.13111 8.45312 7.29687V11.0469C8.45312 11.3919 8.73312 11.6719 9.07812 11.6719H10.9531C11.6162 11.6719 12.2521 11.4085 12.7209 10.9396C13.1897 10.4708 13.4531 9.83492 13.4531 9.17187ZM9.70312 14.7969V11.0469C9.70312 10.8811 9.63728 10.7221 9.52007 10.6049C9.40286 10.4877 9.24389 10.4219 9.07812 10.4219C8.91236 10.4219 8.75339 10.4877 8.63618 10.6049C8.51897 10.7221 8.45312 10.8811 8.45312 11.0469V14.7969C8.45312 14.9626 8.51897 15.1216 8.63618 15.2388C8.75339 15.356 8.91236 15.4219 9.07812 15.4219C9.24389 15.4219 9.40286 15.356 9.52007 15.2388C9.63728 15.1216 9.70312 14.9626 9.70312 14.7969Z" fill="#262626"/>
</svg>
