<svg width="21" height="21" viewBox="0 0 21 21" fill="none" xmlns="http://www.w3.org/2000/svg">
<path d="M18.7812 4.79687C18.7812 5.29416 18.5837 5.77107 18.2321 6.1227C17.8804 6.47433 17.4035 6.67187 16.9062 6.67187C16.409 6.67187 15.9321 6.47433 15.5804 6.1227C15.2288 5.77107 15.0312 5.29416 15.0312 4.79687C15.0312 4.29959 15.2288 3.82268 15.5804 3.47105C15.9321 3.11942 16.409 2.92187 16.9062 2.92187C17.4035 2.92187 17.8804 3.11942 18.2321 3.47105C18.5837 3.82268 18.7812 4.29959 18.7812 4.79687ZM20.0312 4.79687C20.0312 3.96807 19.702 3.17322 19.116 2.58717C18.5299 2.00112 17.7351 1.67188 16.9062 1.67188C16.0774 1.67188 15.2826 2.00112 14.6965 2.58717C14.1105 3.17322 13.7812 3.96807 13.7812 4.79687C13.7812 5.62568 14.1105 6.42053 14.6965 7.00658C15.2826 7.59263 16.0774 7.92187 16.9062 7.92187C17.7351 7.92187 18.5299 7.59263 19.116 7.00658C19.702 6.42053 20.0312 5.62568 20.0312 4.79687ZM14.8796 17.3744L15.0363 18.6244C15.0551 18.7755 15.1286 18.9145 15.2427 19.0154C15.3569 19.1162 15.5039 19.1718 15.6562 19.1719H18.1562C18.3086 19.1718 18.4556 19.1162 18.5698 19.0154C18.6839 18.9145 18.7574 18.7755 18.7762 18.6244L19.4012 13.6244L18.7812 14.1719H20.0312C20.197 14.1719 20.356 14.106 20.4732 13.9888C20.5904 13.8716 20.6562 13.7126 20.6562 13.5469V11.6719C20.6562 10.9755 20.4623 10.2928 20.0962 9.70038C19.7301 9.10797 19.2062 8.62922 18.5833 8.31777C17.9604 8.00632 17.2631 7.87448 16.5695 7.93703C15.8759 7.99957 15.2134 8.25402 14.6562 8.67187C14.5906 8.72112 14.5353 8.78282 14.4935 8.85344C14.4516 8.92407 14.4241 9.00224 14.4125 9.08349C14.4009 9.16474 14.4054 9.24748 14.4258 9.32699C14.4462 9.4065 14.482 9.48121 14.5312 9.54687C14.5805 9.61254 14.6422 9.66785 14.7128 9.70967C14.7834 9.75149 14.8616 9.77899 14.9429 9.79059C15.0241 9.8022 15.1069 9.79769 15.1864 9.77732C15.2659 9.75695 15.3406 9.72112 15.4063 9.67188C15.7777 9.39331 16.2193 9.22367 16.6817 9.18198C17.1441 9.14028 17.609 9.22817 18.0243 9.43581C18.4395 9.64344 18.7888 9.96261 19.0329 10.3575C19.277 10.7525 19.4062 11.2076 19.4062 11.6719V13.5469L20.0312 12.9219H18.7812C18.6289 12.9219 18.4819 12.9776 18.3677 13.0784C18.2536 13.1792 18.1801 13.3182 18.1613 13.4694L17.5363 18.4694L18.1562 17.9219H15.6562L16.2762 18.4694L16.1196 17.2194C16.0955 17.058 16.0093 16.9124 15.8793 16.8137C15.7493 16.715 15.5858 16.6711 15.4239 16.6914C15.262 16.7116 15.1144 16.7944 15.0126 16.922C14.9109 17.0497 14.8632 17.212 14.8796 17.3744ZM6.28125 4.79687C6.28125 5.29416 6.08371 5.77107 5.73207 6.1227C5.38044 6.47433 4.90353 6.67187 4.40625 6.67187C3.90897 6.67187 3.43206 6.47433 3.08042 6.1227C2.72879 5.77107 2.53125 5.29416 2.53125 4.79687C2.53125 4.29959 2.72879 3.82268 3.08042 3.47105C3.43206 3.11942 3.90897 2.92187 4.40625 2.92187C4.90353 2.92187 5.38044 3.11942 5.73207 3.47105C6.08371 3.82268 6.28125 4.29959 6.28125 4.79687ZM7.53125 4.79687C7.53125 3.96807 7.20201 3.17322 6.61596 2.58717C6.02991 2.00112 5.23505 1.67188 4.40625 1.67188C3.57745 1.67188 2.78259 2.00112 2.19654 2.58717C1.61049 3.17322 1.28125 3.96807 1.28125 4.79687C1.28125 5.62568 1.61049 6.42053 2.19654 7.00658C2.78259 7.59263 3.57745 7.92187 4.40625 7.92187C5.23505 7.92187 6.02991 7.59263 6.61596 7.00658C7.20201 6.42053 7.53125 5.62568 7.53125 4.79687ZM5.19292 17.2194L5.03625 18.4694L5.65625 17.9219H3.15625L3.77625 18.4694L3.15125 13.4694C3.13236 13.3182 3.05894 13.1792 2.94477 13.0784C2.83061 12.9776 2.68356 12.9219 2.53125 12.9219H1.28125L1.90625 13.5469V11.6719C1.90625 11.2076 2.03554 10.7525 2.27962 10.3575C2.52371 9.96261 2.87295 9.64344 3.28822 9.43581C3.70348 9.22817 4.16836 9.14028 4.63076 9.18198C5.09317 9.22367 5.53483 9.39331 5.90625 9.67188C5.97191 9.72112 6.04663 9.75695 6.12614 9.77732C6.20565 9.79769 6.28839 9.8022 6.36964 9.79059C6.45089 9.77899 6.52906 9.75149 6.59968 9.70967C6.67031 9.66785 6.732 9.61254 6.78125 9.54687C6.8305 9.48121 6.86633 9.4065 6.8867 9.32699C6.90707 9.24748 6.91158 9.16474 6.89997 9.08349C6.88836 9.00224 6.86086 8.92407 6.81905 8.85344C6.77723 8.78282 6.72191 8.72112 6.65625 8.67187C6.09911 8.25402 5.43663 7.99957 4.74302 7.93703C4.04942 7.87448 3.3521 8.00632 2.7292 8.31777C2.1063 8.62922 1.58244 9.10797 1.21631 9.70038C0.85018 10.2928 0.65625 10.9755 0.65625 11.6719L0.65625 13.5469C0.65625 13.8919 0.93625 14.1719 1.28125 14.1719H2.53125L1.91125 13.6244L2.53625 18.6244C2.55514 18.7755 2.62856 18.9145 2.74273 19.0154C2.85689 19.1162 3.00394 19.1718 3.15625 19.1719H5.65625C5.80856 19.1718 5.95561 19.1162 6.06977 19.0154C6.18394 18.9145 6.25736 18.7755 6.27625 18.6244L6.43292 17.3744C6.44932 17.212 6.40156 17.0497 6.29985 16.922C6.19814 16.7944 6.05054 16.7116 5.8886 16.6914C5.72667 16.6711 5.56323 16.715 5.43323 16.8137C5.30324 16.9124 5.21699 17.058 5.19292 17.2194ZM11.9062 7.92187C11.9062 8.2534 11.7746 8.57134 11.5401 8.80576C11.3057 9.04018 10.9878 9.17187 10.6562 9.17187C10.3247 9.17187 10.0068 9.04018 9.77237 8.80576C9.53795 8.57134 9.40625 8.2534 9.40625 7.92187C9.40625 7.59035 9.53795 7.27241 9.77237 7.03799C10.0068 6.80357 10.3247 6.67187 10.6562 6.67187C10.9878 6.67187 11.3057 6.80357 11.5401 7.03799C11.7746 7.27241 11.9062 7.59035 11.9062 7.92187ZM13.1562 7.92187C13.1562 7.25883 12.8929 6.62295 12.424 6.15411C11.9552 5.68527 11.3193 5.42187 10.6562 5.42187C9.99321 5.42187 9.35732 5.68527 8.88848 6.15411C8.41964 6.62295 8.15625 7.25883 8.15625 7.92187C8.15625 8.58492 8.41964 9.2208 8.88848 9.68964C9.35732 10.1585 9.99321 10.4219 10.6562 10.4219C11.3193 10.4219 11.9552 10.1585 12.424 9.68964C12.8929 9.2208 13.1562 8.58492 13.1562 7.92187ZM10.6562 10.4219C9.66169 10.4219 8.70786 10.817 8.0046 11.5202C7.30134 12.2235 6.90625 13.1773 6.90625 14.1719V14.7969C6.90625 15.1419 7.18625 15.4219 7.53125 15.4219H8.78125L8.16458 14.8994L8.78958 18.6494C8.81386 18.7954 8.88916 18.928 9.00209 19.0237C9.11502 19.1194 9.25824 19.1719 9.40625 19.1719H10.6562C10.822 19.1719 10.981 19.106 11.0982 18.9888C11.2154 18.8716 11.2812 18.7126 11.2812 18.5469C11.2812 18.3811 11.2154 18.2221 11.0982 18.1049C10.981 17.9877 10.822 17.9219 10.6562 17.9219H9.40625L10.0229 18.4444L9.39792 14.6944C9.37364 14.5484 9.29834 14.4157 9.18541 14.32C9.07248 14.2243 8.92926 14.1718 8.78125 14.1719H7.53125L8.15625 14.7969V14.1719C8.15625 13.5088 8.41964 12.8729 8.88848 12.4041C9.35732 11.9353 9.99321 11.6719 10.6562 11.6719C10.822 11.6719 10.981 11.606 11.0982 11.4888C11.2154 11.3716 11.2812 11.2126 11.2812 11.0469C11.2812 10.8811 11.2154 10.7221 11.0982 10.6049C10.981 10.4877 10.822 10.4219 10.6562 10.4219ZM10.6562 11.6719C11.3193 11.6719 11.9552 11.9353 12.424 12.4041C12.8929 12.8729 13.1562 13.5088 13.1562 14.1719V14.7969L13.7812 14.1719H12.5312C12.3832 14.1718 12.24 14.2243 12.1271 14.32C12.0142 14.4157 11.9389 14.5484 11.9146 14.6944L11.2896 18.4444L11.9062 17.9219H10.6562C10.4905 17.9219 10.3315 17.9877 10.2143 18.1049C10.0971 18.2221 10.0312 18.3811 10.0312 18.5469C10.0312 18.7126 10.0971 18.8716 10.2143 18.9888C10.3315 19.106 10.4905 19.1719 10.6562 19.1719H11.9062C12.0543 19.1719 12.1975 19.1194 12.3104 19.0237C12.4233 18.928 12.4986 18.7954 12.5229 18.6494L13.1479 14.8994L12.5312 15.4219H13.7812C13.947 15.4219 14.106 15.356 14.2232 15.2388C14.3404 15.1216 14.4062 14.9626 14.4062 14.7969V14.1719C14.4062 13.1773 14.0112 12.2235 13.3079 11.5202C12.6046 10.817 11.6508 10.4219 10.6562 10.4219C10.4905 10.4219 10.3315 10.4877 10.2143 10.6049C10.0971 10.7221 10.0312 10.8811 10.0312 11.0469C10.0312 11.2126 10.0971 11.3716 10.2143 11.4888C10.3315 11.606 10.4905 11.6719 10.6562 11.6719Z" fill="#262626"/>
</svg>
