<svg width="17" height="17" viewBox="0 0 17 17" fill="none" xmlns="http://www.w3.org/2000/svg">
<path d="M7.69745 13.453C7.56541 13.4531 7.43869 13.401 7.34495 13.308L3.2412 9.21798C3.18977 9.1729 3.14814 9.11775 3.11888 9.05594C3.08962 8.99413 3.07335 8.92698 3.07108 8.85863C3.0688 8.79028 3.08057 8.72219 3.10566 8.65858C3.13075 8.59496 3.16862 8.53716 3.21693 8.48877C3.26525 8.44037 3.32298 8.40239 3.38655 8.37719C3.45012 8.35199 3.51819 8.3401 3.58654 8.34225C3.65489 8.34441 3.72208 8.36056 3.78394 8.38971C3.8458 8.41886 3.90102 8.46039 3.9462 8.51173L7.64245 12.1942L13.3199 4.65298C13.3575 4.5959 13.4063 4.54712 13.4635 4.50965C13.5206 4.47217 13.5848 4.44681 13.6521 4.43511C13.7194 4.42342 13.7884 4.42564 13.8548 4.44165C13.9213 4.45766 13.9837 4.48711 14.0383 4.52819C14.0929 4.56926 14.1385 4.62109 14.1723 4.68047C14.2061 4.73986 14.2273 4.80554 14.2347 4.87345C14.2422 4.94137 14.2356 5.01009 14.2154 5.07537C14.1952 5.14064 14.1619 5.20109 14.1174 5.25298L8.0962 13.253C8.05342 13.3104 7.99881 13.358 7.93606 13.3925C7.8733 13.427 7.80386 13.4476 7.73245 13.453H7.69745Z" fill="#262626"/>
</svg>
