<svg width="21" height="21" viewBox="0 0 21 21" fill="none" xmlns="http://www.w3.org/2000/svg">
<path d="M19.4219 10.7656C19.4219 15.5981 15.5044 19.5156 10.6719 19.5156C5.83938 19.5156 1.92187 15.5981 1.92187 10.7656C1.92187 5.93313 5.83938 2.01562 10.6719 2.01562C15.5044 2.01562 19.4219 5.93313 19.4219 10.7656ZM20.6719 10.7656C20.6719 5.24313 16.1944 0.765625 10.6719 0.765625C5.14938 0.765625 0.671875 5.24313 0.671875 10.7656C0.671875 16.2881 5.14938 20.7656 10.6719 20.7656C16.1944 20.7656 20.6719 16.2881 20.6719 10.7656ZM12.5469 9.51562C12.5469 9.84715 12.4152 10.1651 12.1808 10.3995C11.9463 10.6339 11.6284 10.7656 11.2969 10.7656H9.42187L10.0469 11.3906V7.64062L9.42187 8.26562H11.2969C11.6284 8.26562 11.9463 8.39732 12.1808 8.63174C12.4152 8.86616 12.5469 9.1841 12.5469 9.51562ZM13.7969 9.51562C13.7969 8.85258 13.5335 8.2167 13.0646 7.74786C12.5958 7.27902 11.9599 7.01562 11.2969 7.01562H9.42187C9.25611 7.01562 9.09714 7.08147 8.97993 7.19868C8.86272 7.31589 8.79687 7.47486 8.79687 7.64062V11.3906C8.79687 11.7356 9.07687 12.0156 9.42187 12.0156H11.2969C11.9599 12.0156 12.5958 11.7522 13.0646 11.2834C13.5335 10.8146 13.7969 10.1787 13.7969 9.51562ZM10.0469 15.1406V11.3906C10.0469 11.2249 9.98103 11.0659 9.86382 10.9487C9.74661 10.8315 9.58764 10.7656 9.42187 10.7656C9.25611 10.7656 9.09714 10.8315 8.97993 10.9487C8.86272 11.0659 8.79687 11.2249 8.79687 11.3906V15.1406C8.79687 15.3064 8.86272 15.4654 8.97993 15.5826C9.09714 15.6998 9.25611 15.7656 9.42187 15.7656C9.58764 15.7656 9.74661 15.6998 9.86382 15.5826C9.98103 15.4654 10.0469 15.3064 10.0469 15.1406Z" fill="#008009"/>
</svg>
