<svg width="20" height="21" viewBox="0 0 20 21" fill="none" xmlns="http://www.w3.org/2000/svg">
<path d="M11.875 16.39C11.875 16.8873 11.6775 17.3642 11.3258 17.7158C10.9742 18.0675 10.4973 18.265 10 18.265C9.50273 18.265 9.02582 18.0675 8.67418 17.7158C8.32255 17.3642 8.12501 16.8873 8.12501 16.39C8.12501 15.8927 8.32255 15.4158 8.67418 15.0642C9.02582 14.7125 9.50273 14.515 10 14.515C10.4973 14.515 10.9742 14.7125 11.3258 15.0642C11.6775 15.4158 11.875 15.8927 11.875 16.39ZM13.125 16.39C13.125 15.5612 12.7958 14.7663 12.2097 14.1803C11.6237 13.5942 10.8288 13.265 10 13.265C9.17121 13.265 8.37635 13.5942 7.7903 14.1803C7.20425 14.7663 6.87501 15.5612 6.87501 16.39C6.87501 17.2188 7.20425 18.0137 7.7903 18.5997C8.37635 19.1858 9.17121 19.515 10 19.515C10.8288 19.515 11.6237 19.1858 12.2097 18.5997C12.7958 18.0137 13.125 17.2188 13.125 16.39ZM14.8583 11.5292C13.5691 10.2402 11.8206 9.51605 9.99751 9.51605C8.1744 9.51605 6.42595 10.2402 5.13668 11.5292C5.02628 11.6476 4.96617 11.8044 4.96903 11.9663C4.97189 12.1282 5.03748 12.2827 5.15199 12.3972C5.2665 12.5117 5.42099 12.5773 5.58291 12.5801C5.74483 12.583 5.90153 12.5229 6.02001 12.4125C6.54234 11.8902 7.16244 11.4758 7.8449 11.1931C8.52736 10.9104 9.25882 10.765 9.99751 10.765C10.7362 10.765 11.4677 10.9104 12.1501 11.1931C12.8326 11.4758 13.4527 11.8902 13.975 12.4125C14.0935 12.5229 14.2502 12.583 14.4121 12.5801C14.574 12.5773 14.7285 12.5117 14.843 12.3972C14.9575 12.2827 15.0231 12.1282 15.026 11.9663C15.0288 11.8044 14.9687 11.6476 14.8583 11.5292ZM17.5125 8.8775C13.3633 4.7275 6.63668 4.7275 2.48751 8.8775C2.4261 8.93472 2.37685 9.00372 2.34269 9.08039C2.30853 9.15705 2.29016 9.23981 2.28868 9.32373C2.2872 9.40765 2.30264 9.49101 2.33407 9.56883C2.36551 9.64666 2.4123 9.71735 2.47164 9.7767C2.53099 9.83605 2.60169 9.88284 2.67951 9.91427C2.75734 9.9457 2.84069 9.96114 2.92461 9.95966C3.00853 9.95818 3.09129 9.93981 3.16796 9.90565C3.24462 9.87149 3.31363 9.82224 3.37084 9.76083C7.03251 6.1 12.9675 6.1 16.6292 9.76083C16.6864 9.82224 16.7554 9.87149 16.8321 9.90565C16.9087 9.93981 16.9915 9.95818 17.0754 9.95966C17.1593 9.96114 17.2427 9.9457 17.3205 9.91427C17.3983 9.88284 17.469 9.83605 17.5284 9.7767C17.5877 9.71735 17.6345 9.64666 17.6659 9.56883C17.6974 9.49101 17.7128 9.40765 17.7113 9.32373C17.7099 9.23981 17.6915 9.15705 17.6573 9.08039C17.6232 9.00372 17.5739 8.93472 17.5125 8.8775ZM19.8008 5.875C14.28 0.729167 5.72001 0.729167 0.20001 5.875C0.13589 5.92972 0.0834999 5.99684 0.0459929 6.07233C0.00848588 6.14782 -0.0133633 6.23011 -0.0182402 6.31427C-0.023117 6.39842 -0.0109208 6.48269 0.0176147 6.562C0.0461503 6.64132 0.0904355 6.71405 0.147806 6.7758C0.205177 6.83756 0.274447 6.88708 0.35145 6.92137C0.428453 6.95566 0.511597 6.97402 0.59588 6.97535C0.680163 6.97667 0.763844 6.96094 0.841887 6.92909C0.919931 6.89723 0.990725 6.84992 1.05001 6.79C6.09168 2.09167 13.9075 2.09167 18.9483 6.79C19.0084 6.84592 19.0789 6.88946 19.1558 6.91813C19.2327 6.94681 19.3145 6.96005 19.3966 6.95711C19.4786 6.95417 19.5592 6.9351 19.6339 6.901C19.7085 6.86689 19.7758 6.81841 19.8317 6.75833C19.8876 6.69825 19.9311 6.62775 19.9598 6.55084C19.9885 6.47393 20.0017 6.39213 19.9988 6.31011C19.9958 6.22808 19.9768 6.14744 19.9427 6.07278C19.9086 5.99813 19.8609 5.93092 19.8008 5.875Z" fill="#008009"/>
</svg>
