<svg width="21" height="21" viewBox="0 0 21 21" fill="none" xmlns="http://www.w3.org/2000/svg">
<path d="M12.2031 16.0463C12.2031 16.5435 12.0056 17.0204 11.654 17.3721C11.3023 17.7237 10.8254 17.9212 10.3281 17.9212C9.83085 17.9212 9.35394 17.7237 9.00231 17.3721C8.65068 17.0204 8.45313 16.5435 8.45313 16.0463C8.45313 15.549 8.65068 15.0721 9.00231 14.7204C9.35394 14.3688 9.83085 14.1713 10.3281 14.1713C10.8254 14.1713 11.3023 14.3688 11.654 14.7204C12.0056 15.0721 12.2031 15.549 12.2031 16.0463ZM13.4531 16.0463C13.4531 15.2174 13.1239 14.4226 12.5378 13.8365C11.9518 13.2505 11.1569 12.9213 10.3281 12.9213C9.49933 12.9213 8.70448 13.2505 8.11843 13.8365C7.53237 14.4226 7.20313 15.2174 7.20313 16.0463C7.20313 16.8751 7.53237 17.6699 8.11843 18.256C8.70448 18.842 9.49933 19.1712 10.3281 19.1712C11.1569 19.1712 11.9518 18.842 12.5378 18.256C13.1239 17.6699 13.4531 16.8751 13.4531 16.0463ZM15.1865 11.1854C13.8972 9.89643 12.1487 9.1723 10.3256 9.1723C8.50253 9.1723 6.75407 9.89643 5.4648 11.1854C5.3544 11.3039 5.2943 11.4606 5.29716 11.6225C5.30001 11.7844 5.36561 11.9389 5.48012 12.0534C5.59463 12.1679 5.74912 12.2335 5.91103 12.2364C6.07295 12.2393 6.22966 12.1792 6.34813 12.0688C6.87047 11.5464 7.49056 11.1321 8.17302 10.8494C8.85549 10.5667 9.58694 10.4212 10.3256 10.4212C11.0643 10.4212 11.7958 10.5667 12.4782 10.8494C13.1607 11.1321 13.7808 11.5464 14.3031 12.0688C14.4216 12.1792 14.5783 12.2393 14.7402 12.2364C14.9022 12.2335 15.0566 12.1679 15.1712 12.0534C15.2857 11.9389 15.3513 11.7844 15.3541 11.6225C15.357 11.4606 15.2969 11.3039 15.1865 11.1854ZM17.8406 8.53375C13.6915 4.38375 6.9648 4.38375 2.81563 8.53375C2.75423 8.59097 2.70498 8.65997 2.67082 8.73664C2.63666 8.8133 2.61829 8.89606 2.61681 8.97998C2.61533 9.0639 2.63077 9.14726 2.6622 9.22508C2.69363 9.30291 2.74042 9.3736 2.79977 9.43295C2.85912 9.4923 2.92981 9.53909 3.00764 9.57052C3.08546 9.60195 3.16882 9.61739 3.25274 9.61591C3.33666 9.61443 3.41942 9.59606 3.49608 9.5619C3.57275 9.52774 3.64175 9.47849 3.69897 9.41708C7.36063 5.75625 13.2956 5.75625 16.9573 9.41708C17.0145 9.47849 17.0835 9.52774 17.1602 9.5619C17.2369 9.59606 17.3196 9.61443 17.4035 9.61591C17.4875 9.61739 17.5708 9.60195 17.6486 9.57052C17.7265 9.53909 17.7972 9.4923 17.8565 9.43295C17.9158 9.3736 17.9626 9.30291 17.9941 9.22508C18.0255 9.14726 18.0409 9.0639 18.0395 8.97998C18.038 8.89606 18.0196 8.8133 17.9855 8.73664C17.9513 8.65997 17.902 8.59097 17.8406 8.53375ZM20.129 5.53125C14.6081 0.385417 6.04813 0.385417 0.528135 5.53125C0.464015 5.58597 0.411625 5.65309 0.374118 5.72858C0.336611 5.80407 0.314762 5.88636 0.309885 5.97052C0.305008 6.05467 0.317204 6.13894 0.34574 6.21825C0.374275 6.29757 0.41856 6.3703 0.475931 6.43205C0.533302 6.49381 0.602572 6.54333 0.679575 6.57762C0.756578 6.61191 0.839722 6.63027 0.924005 6.6316C1.00829 6.63292 1.09197 6.61719 1.17001 6.58534C1.24806 6.55348 1.31885 6.50617 1.37814 6.44625C6.4198 1.74792 14.2356 1.74792 19.2765 6.44625C19.3365 6.50217 19.4071 6.54571 19.484 6.57438C19.5609 6.60306 19.6427 6.6163 19.7247 6.61336C19.8067 6.61042 19.8874 6.59135 19.962 6.55725C20.0367 6.52314 20.1039 6.47466 20.1598 6.41458C20.2157 6.3545 20.2593 6.284 20.2879 6.20709C20.3166 6.13018 20.3299 6.04838 20.3269 5.96636C20.324 5.88433 20.3049 5.80369 20.2708 5.72903C20.2367 5.65438 20.189 5.58717 20.129 5.53125Z" fill="#262626"/>
</svg>
