<svg width="17" height="17" viewBox="0 0 17 17" fill="none" xmlns="http://www.w3.org/2000/svg">
<path d="M14.0938 7.79688H9.09375V2.79688C9.09375 2.66427 9.04107 2.53709 8.9473 2.44332C8.85354 2.34955 8.72636 2.29688 8.59375 2.29688C8.46114 2.29688 8.33397 2.34955 8.2402 2.44332C8.14643 2.53709 8.09375 2.66427 8.09375 2.79688V7.79688H3.09375C2.96114 7.79688 2.83396 7.84955 2.7402 7.94332C2.64643 8.03709 2.59375 8.16427 2.59375 8.29688C2.59375 8.42948 2.64643 8.55666 2.7402 8.65043C2.83396 8.7442 2.96114 8.79688 3.09375 8.79688H8.09375V13.7969C8.09375 13.9295 8.14643 14.0567 8.2402 14.1504C8.33397 14.2442 8.46114 14.2969 8.59375 14.2969C8.72636 14.2969 8.85354 14.2442 8.9473 14.1504C9.04107 14.0567 9.09375 13.9295 9.09375 13.7969V8.79688H14.0938C14.2264 8.79688 14.3535 8.7442 14.4473 8.65043C14.5411 8.55666 14.5938 8.42948 14.5938 8.29688C14.5938 8.16427 14.5411 8.03709 14.4473 7.94332C14.3535 7.84955 14.2264 7.79688 14.0938 7.79688Z" fill="#262626"/>
</svg>
