<svg width="17" height="17" viewBox="0 0 17 17" fill="none" xmlns="http://www.w3.org/2000/svg">
<path d="M13.7188 7.79688H8.71875V2.79688C8.71875 2.66427 8.66607 2.53709 8.5723 2.44332C8.47854 2.34955 8.35136 2.29688 8.21875 2.29688C8.08614 2.29688 7.95897 2.34955 7.8652 2.44332C7.77143 2.53709 7.71875 2.66427 7.71875 2.79688V7.79688H2.71875C2.58614 7.79688 2.45896 7.84955 2.3652 7.94332C2.27143 8.03709 2.21875 8.16427 2.21875 8.29688C2.21875 8.42948 2.27143 8.55666 2.3652 8.65043C2.45896 8.7442 2.58614 8.79688 2.71875 8.79688H7.71875V13.7969C7.71875 13.9295 7.77143 14.0567 7.8652 14.1504C7.95897 14.2442 8.08614 14.2969 8.21875 14.2969C8.35136 14.2969 8.47854 14.2442 8.5723 14.1504C8.66607 14.0567 8.71875 13.9295 8.71875 13.7969V8.79688H13.7188C13.8514 8.79688 13.9785 8.7442 14.0723 8.65043C14.1661 8.55666 14.2188 8.42948 14.2188 8.29688C14.2188 8.16427 14.1661 8.03709 14.0723 7.94332C13.9785 7.84955 13.8514 7.79688 13.7188 7.79688Z" fill="#262626"/>
</svg>
