<svg width="63" height="63" viewBox="0 0 63 63" fill="none" xmlns="http://www.w3.org/2000/svg">
<mask id="mask0_53_35" style="mask-type:luminance" maskUnits="userSpaceOnUse" x="14" y="14" width="34" height="34">
<path d="M47.9099 14.3906H14.5938V47.7067H47.9099V14.3906Z" fill="white"/>
</mask>
<g mask="url(#mask0_53_35)">
<path d="M47.5557 31.4234C47.5557 30.3267 47.4585 29.2856 47.2919 28.2722H31.6056V34.5329H40.5871C40.1845 36.5874 39.0045 38.3226 37.2555 39.5025V43.667H42.6138C45.7511 40.7657 47.5557 36.4902 47.5557 31.4234Z" fill="#4285F4"/>
<path d="M31.6056 47.7067C36.1033 47.7067 39.8652 46.2074 42.6138 43.6671L37.2555 39.5026C35.7563 40.5021 33.8545 41.1129 31.6056 41.1129C27.2607 41.1129 23.582 38.1838 22.2632 34.2275H16.7383V38.517C19.473 43.9586 25.0951 47.7067 31.6056 47.7067Z" fill="#34A853"/>
<path d="M22.2632 34.2276C21.9162 33.2281 21.7357 32.1592 21.7357 31.0486C21.7357 29.9381 21.93 28.8692 22.2632 27.8697V23.5803H16.7383C15.6 25.8291 14.9476 28.3556 14.9476 31.0486C14.9476 33.7417 15.6 36.2682 16.7383 38.517L22.2632 34.2276Z" fill="#FBBC05"/>
<path d="M31.6056 20.9844C34.0627 20.9844 36.256 21.8312 37.9912 23.4831L42.7388 18.7356C39.8652 16.0425 36.1033 14.3906 31.6056 14.3906C25.0951 14.3906 19.473 18.1387 16.7383 23.5803L22.2632 27.8697C23.582 23.9135 27.2607 20.9844 31.6056 20.9844Z" fill="#EA4335"/>
</g>
</svg>
