<svg width="63" height="63" viewBox="0 0 63 63" fill="none" xmlns="http://www.w3.org/2000/svg">
<path d="M28.7863 47.077C21.0791 45.6978 15.2378 39.0453 15.2378 31.0135C15.2378 22.0893 22.5394 14.7878 31.4636 14.7878C40.3878 14.7878 47.6894 22.0893 47.6894 31.0135C47.6894 39.0453 41.8481 45.6978 34.1408 47.077L33.2484 46.3468H29.6788L28.7863 47.077Z" fill="url(#paint0_linear_52_1248)"/>
<path d="M37.7916 35.5566L38.5217 31.0134H34.2219V27.8494C34.2219 26.5513 34.7087 25.5778 36.6558 25.5778H38.7651V21.4402C37.6293 21.278 36.3312 21.1157 35.1954 21.1157C31.4635 21.1157 28.8674 23.3873 28.8674 27.4438V31.0134H24.811V35.5566H28.8674V46.9958C29.7598 47.1581 30.6522 47.2392 31.5446 47.2392C32.4371 47.2392 33.3295 47.158 34.2219 46.9958V35.5566H37.7916Z" fill="white"/>
<defs>
<linearGradient id="paint0_linear_52_1248" x1="31.4646" y1="46.1101" x2="31.4646" y2="14.7815" gradientUnits="userSpaceOnUse">
<stop stop-color="#0062E0"/>
<stop offset="1" stop-color="#19AFFF"/>
</linearGradient>
</defs>
</svg>
