<svg width="63" height="63" viewBox="0 0 63 63" fill="none" xmlns="http://www.w3.org/2000/svg">
<mask id="mask0_55_58" style="mask-type:luminance" maskUnits="userSpaceOnUse" x="13" y="16" width="37" height="30">
<path d="M49.049 16.3906H13.2031V45.5217H49.049V16.3906Z" fill="white"/>
</mask>
<g mask="url(#mask0_55_58)">
<path d="M49.049 20.6886C47.7302 21.2736 46.3127 21.6688 44.8253 21.8466C46.3435 20.9364 47.5098 19.4952 48.0588 17.7779C46.6377 18.6208 45.0638 19.2327 43.3886 19.5625C42.0472 18.1331 40.1359 17.2402 38.0206 17.2402C33.9593 17.2402 30.6663 20.5328 30.6663 24.5941C30.6663 25.1706 30.7314 25.7319 30.8568 26.2701C24.7447 25.9635 19.3259 23.0356 15.6986 18.5862C15.0656 19.6723 14.7028 20.9355 14.7028 22.2833C14.7028 24.8349 16.0012 27.0858 17.9745 28.4046C16.769 28.3664 15.635 28.0355 14.6435 27.4848C14.6427 27.5154 14.6427 27.5462 14.6427 27.5773C14.6427 31.1403 17.1777 34.1125 20.542 34.7886C19.9249 34.9567 19.2752 35.0465 18.6045 35.0465C18.1307 35.0465 17.6701 35.0002 17.2209 34.9146C18.1568 37.8362 20.8727 39.9624 24.091 40.0215C21.574 41.9941 18.4031 43.1699 14.9574 43.1699C14.3638 43.1699 13.7784 43.1349 13.2031 43.067C16.4577 45.1538 20.3234 46.3713 24.4765 46.3713C38.0035 46.3713 45.4008 35.1653 45.4008 25.4467C45.4008 25.1279 45.3937 24.8108 45.3795 24.4952C46.8162 23.4585 48.063 22.1634 49.049 20.6886Z" fill="#1DA1F2"/>
</g>
</svg>
