<svg width="62" height="63" viewBox="0 0 62 63" fill="none" xmlns="http://www.w3.org/2000/svg">
<mask id="mask0_53_51" style="mask-type:luminance" maskUnits="userSpaceOnUse" x="17" y="14" width="29" height="36">
<path d="M45.4166 14.3906H17V49.3004H45.4166V14.3906Z" fill="white"/>
</mask>
<g mask="url(#mask0_53_51)">
<path d="M44.5124 26.2914C44.3099 26.4485 40.7351 28.4628 40.7351 32.9417C40.7351 38.1223 45.2839 39.9551 45.42 40.0005C45.3991 40.1122 44.6974 42.5105 43.0217 44.9542C41.5276 47.1046 39.9671 49.2516 37.5933 49.2516C35.2194 49.2516 34.6085 47.8726 31.868 47.8726C29.1974 47.8726 28.2479 49.297 26.0765 49.297C23.9051 49.297 22.39 47.3071 20.648 44.8634C18.6302 41.9938 16.9999 37.5358 16.9999 33.3048C16.9999 26.5183 21.4125 22.9191 25.7553 22.9191C28.0629 22.9191 29.9864 24.4342 31.4352 24.4342C32.8141 24.4342 34.9645 22.8283 37.5898 22.8283C38.5847 22.8283 42.1595 22.9191 44.5124 26.2914ZM36.3435 19.9552C37.4292 18.6671 38.1972 16.8797 38.1972 15.0923C38.1972 14.8444 38.1762 14.5931 38.1309 14.3906C36.3644 14.4569 34.2629 15.5671 32.9956 17.0368C32.0007 18.1678 31.0721 19.9552 31.0721 21.7671C31.0721 22.0393 31.1175 22.3116 31.1384 22.3989C31.2501 22.4199 31.4317 22.4443 31.6132 22.4443C33.1981 22.4443 35.1915 21.383 36.3435 19.9552Z" fill="black"/>
</g>
</svg>
