<svg width="17" height="16" viewBox="0 0 17 16" fill="none" xmlns="http://www.w3.org/2000/svg">
<g clip-path="url(#clip0_179_2601)">
<path d="M7.52179 12.0003C7.42392 11.9989 7.32861 11.9689 7.24768 11.9138C7.16674 11.8588 7.10373 11.7812 7.06647 11.6907C7.0292 11.6002 7.01932 11.5008 7.03804 11.4047C7.05676 11.3087 7.10327 11.2202 7.17179 11.1503L10.3218 8.00031L7.17179 4.85031C7.08633 4.75446 7.04103 4.6294 7.04527 4.50105C7.04952 4.3727 7.10298 4.25091 7.19459 4.16091C7.28619 4.07091 7.40891 4.01961 7.53732 4.01764C7.66572 4.01566 7.78996 4.06317 7.88429 4.15031L11.7343 8.00031L7.88429 11.8503C7.8371 11.8985 7.78066 11.9366 7.71836 11.9623C7.65607 11.9881 7.5892 12.001 7.52179 12.0003Z" fill="black"/>
</g>
<defs>
<clipPath id="clip0_179_2601">
<rect width="16" height="16" fill="white" transform="translate(0.734375)"/>
</clipPath>
</defs>
</svg>
