<svg width="15" height="15" viewBox="0 0 15 15" fill="none" xmlns="http://www.w3.org/2000/svg">
<g clip-path="url(#clip0_179_2608)">
<path d="M7.09378 10.2809L3.72503 6.91211C3.64878 6.82957 3.60721 6.72086 3.60894 6.60851C3.61066 6.49616 3.65555 6.38878 3.7343 6.30863C3.81305 6.22847 3.91962 6.18169 4.03192 6.17797C4.14423 6.17426 4.25366 6.2139 4.33753 6.28867L7.09378 9.04492L9.85003 6.28867C9.9339 6.2139 10.0433 6.17426 10.1556 6.17797C10.2679 6.18169 10.3745 6.22847 10.4533 6.30863C10.532 6.38878 10.5769 6.49616 10.5786 6.60851C10.5803 6.72086 10.5388 6.82957 10.4625 6.91211L7.09378 10.2809Z" fill="#BDBDBD"/>
</g>
<defs>
<clipPath id="clip0_179_2608">
<rect width="14" height="14" fill="white" transform="translate(0.09375 0.65625)"/>
</clipPath>
</defs>
</svg>
