<svg width="25" height="25" viewBox="0 0 25 25" fill="none" xmlns="http://www.w3.org/2000/svg">
<g clip-path="url(#clip0_179_2730)">
<path d="M23.375 8.38445C23.1961 7.29802 22.6916 6.29149 21.9283 5.498C21.1649 4.70452 20.1787 4.16147 19.1 3.9407C17.9527 3.74482 16.7737 3.86866 15.6921 4.29863C14.6106 4.72859 13.6684 5.44809 12.9687 6.3782C12.2705 5.44647 11.3285 4.72576 10.2465 4.29563C9.16458 3.8655 7.98483 3.74267 6.83748 3.9407C5.75879 4.16147 4.77253 4.70452 4.00918 5.498C3.24583 6.29149 2.74135 7.29802 2.56248 8.38445C2.31873 9.73445 2.44998 11.9094 4.32498 14.6282C6.55351 17.5495 9.37051 19.9705 12.5937 21.7344C12.7056 21.8063 12.8358 21.8445 12.9687 21.8445C13.1017 21.8445 13.2319 21.8063 13.3437 21.7344C17.1312 19.4844 19.9062 17.0844 21.6125 14.6094C23.4875 11.9094 23.6187 9.73445 23.3937 8.38445H23.375ZM12.9687 20.1969C6.78123 16.4282 3.44373 12.1344 4.02498 8.64695C4.14058 7.84416 4.50478 7.09775 5.0664 6.51258C5.62803 5.92742 6.35886 5.5329 7.15623 5.38445C7.43422 5.33095 7.71692 5.30582 7.99998 5.30945C9.64998 5.30945 11.2437 6.28445 12.35 8.04695C12.4193 8.15225 12.5141 8.23838 12.6255 8.29737C12.7369 8.35636 12.8614 8.38631 12.9875 8.38445C13.1135 8.38631 13.238 8.35636 13.3495 8.29737C13.4609 8.23838 13.5557 8.15225 13.625 8.04695C14.75 6.28445 16.325 5.30945 17.975 5.30945C18.2587 5.31199 18.5414 5.3434 18.8187 5.4032C19.6073 5.55292 20.3301 5.94345 20.8875 6.52102C21.445 7.09859 21.8096 7.83478 21.9312 8.6282C22.4937 12.1157 19.1562 16.4282 12.9687 20.1969Z" fill="#0071C2"/>
</g>
<defs>
<clipPath id="clip0_179_2730">
<rect width="24" height="24" fill="white" transform="translate(0.96875 0.828125)"/>
</clipPath>
</defs>
</svg>
