<svg width="21" height="21" viewBox="0 0 21 21" fill="none" xmlns="http://www.w3.org/2000/svg">
<g clip-path="url(#clip0_179_2817)">
<path d="M10.4062 20.2969C10.1999 20.2969 9.99666 20.2459 9.81481 20.1483C9.63295 20.0507 9.4781 19.9095 9.36406 19.7375C8.70625 18.7453 7.23594 16.3734 5.90313 13.7844C4.32969 10.7281 3.53125 8.50313 3.53125 7.17188C3.53125 3.375 6.60938 0.296875 10.4062 0.296875C14.2031 0.296875 17.2812 3.375 17.2812 7.17188C17.2812 8.50313 16.4828 10.7281 14.9094 13.7844C13.5766 16.3734 12.1062 18.7453 11.4484 19.7375C11.3344 19.9095 11.1795 20.0507 10.9977 20.1483C10.8158 20.2459 10.6126 20.2969 10.4062 20.2969ZM10.4062 1.54688C7.29969 1.54688 4.78125 4.06531 4.78125 7.17188C4.78125 9.57187 8.44531 16.0906 10.4062 19.0469C12.3672 16.0906 16.0312 9.57187 16.0312 7.17188C16.0312 4.06531 13.5128 1.54688 10.4062 1.54688ZM10.4062 10.9219C10.3219 10.922 10.2384 10.905 10.1608 10.872C10.0832 10.8389 10.0131 10.7905 9.95469 10.7297L7.1125 7.76094C6.235 6.83891 6.27125 5.38 7.19328 4.50266C8.08859 3.65078 9.49625 3.65656 10.3844 4.51562L10.4062 4.5375L10.4297 4.51562C11.3108 3.59687 12.7697 3.56656 13.6883 4.44766C14.607 5.32859 14.6373 6.78766 13.7564 7.70625C13.7339 7.72969 13.7109 7.7525 13.6875 7.775L10.8609 10.7281C10.8023 10.7896 10.7317 10.8385 10.6536 10.8719C10.5754 10.9052 10.4912 10.9222 10.4062 10.9219ZM8.75312 5.08906C8.69665 5.08934 8.64027 5.09352 8.58438 5.10156C8.39261 5.13293 8.21321 5.2166 8.06593 5.34335C7.91864 5.4701 7.80918 5.63502 7.74957 5.81997C7.68997 6.00491 7.68254 6.20272 7.7281 6.39162C7.77366 6.58052 7.87045 6.75318 8.00781 6.89063L10.4062 9.39375L12.7937 6.90156C12.9931 6.70514 13.1062 6.43757 13.1083 6.15773C13.1103 5.87789 13.0011 5.6087 12.8047 5.40938C12.6083 5.21005 12.3407 5.09692 12.0609 5.09486C11.781 5.09281 11.5118 5.20201 11.3125 5.39844L10.8438 5.86719C10.7266 5.98407 10.5678 6.04971 10.4023 6.04971C10.2368 6.04971 10.0781 5.98407 9.96094 5.86719L9.49219 5.39844C9.29612 5.20211 9.03058 5.09096 8.75312 5.08906Z" fill="#262626"/>
</g>
<defs>
<clipPath id="clip0_179_2817">
<rect width="20" height="20" fill="white" transform="translate(0.40625 0.296875)"/>
</clipPath>
</defs>
</svg>
