<svg width="15" height="15" viewBox="0 0 15 15" fill="none" xmlns="http://www.w3.org/2000/svg">
<g clip-path="url(#clip0_179_2618)">
<path d="M7.45315 10.2809L4.0844 6.91211C4.00815 6.82957 3.96659 6.72086 3.96831 6.60851C3.97004 6.49616 4.01493 6.38878 4.09368 6.30863C4.17242 6.22847 4.27899 6.18169 4.3913 6.17797C4.5036 6.17426 4.61303 6.2139 4.6969 6.28867L7.45315 9.04492L10.2094 6.28867C10.2933 6.2139 10.4027 6.17426 10.515 6.17797C10.6273 6.18169 10.7339 6.22847 10.8126 6.30863C10.8914 6.38878 10.9363 6.49616 10.938 6.60851C10.9397 6.72086 10.8982 6.82957 10.8219 6.91211L7.45315 10.2809Z" fill="#BDBDBD"/>
</g>
<defs>
<clipPath id="clip0_179_2618">
<rect width="14" height="14" fill="white" transform="translate(0.453125 0.65625)"/>
</clipPath>
</defs>
</svg>
