<svg width="17" height="16" viewBox="0 0 17 16" fill="none" xmlns="http://www.w3.org/2000/svg">
<g clip-path="url(#clip0_179_2621)">
<path d="M7.24054 12.0003C7.14267 11.9989 7.04736 11.9689 6.96643 11.9138C6.88549 11.8588 6.82248 11.7812 6.78522 11.6907C6.74795 11.6002 6.73807 11.5008 6.75679 11.4047C6.77551 11.3087 6.82202 11.2202 6.89054 11.1503L10.0405 8.00031L6.89054 4.85031C6.80508 4.75446 6.75978 4.6294 6.76402 4.50105C6.76827 4.3727 6.82173 4.25091 6.91334 4.16091C7.00494 4.07091 7.12766 4.01961 7.25607 4.01764C7.38447 4.01566 7.50871 4.06317 7.60304 4.15031L11.453 8.00031L7.60304 11.8503C7.55585 11.8985 7.49941 11.9366 7.43711 11.9623C7.37482 11.9881 7.30795 12.001 7.24054 12.0003Z" fill="black"/>
</g>
<defs>
<clipPath id="clip0_179_2621">
<rect width="16" height="16" fill="white" transform="translate(0.453125)"/>
</clipPath>
</defs>
</svg>
