<svg width="16" height="17" viewBox="0 0 16 17" fill="none" xmlns="http://www.w3.org/2000/svg">
<g clip-path="url(#clip0_179_2847)">
<path d="M8 11.0938C7.80109 11.0938 7.61032 11.1728 7.46967 11.3134C7.32902 11.4541 7.25 11.6448 7.25 11.8438C7.25 12.0427 7.32902 12.2334 7.46967 12.3741C7.61032 12.5147 7.80109 12.5938 8 12.5938C8.19891 12.5938 8.38968 12.5147 8.53033 12.3741C8.67098 12.2334 8.75 12.0427 8.75 11.8438C8.75 11.6448 8.67098 11.4541 8.53033 11.3134C8.38968 11.1728 8.19891 11.0938 8 11.0938C7.86739 11.0938 7.74022 11.1464 7.64645 11.2402C7.55268 11.334 7.5 11.4611 7.5 11.5938C7.5 11.7264 7.55268 11.8535 7.64645 11.9473C7.74022 12.0411 7.86739 12.0938 8 12.0938C7.9337 12.0938 7.87011 12.0674 7.82322 12.0205C7.77634 11.9736 7.75 11.9101 7.75 11.8438C7.75 11.7774 7.77634 11.7139 7.82322 11.667C7.87011 11.6201 7.9337 11.5938 8 11.5938C8.0663 11.5938 8.12989 11.6201 8.17678 11.667C8.22366 11.7139 8.25 11.7774 8.25 11.8438C8.25 11.9101 8.22366 11.9736 8.17678 12.0205C8.12989 12.0674 8.0663 12.0938 8 12.0938C8.13261 12.0938 8.25979 12.0411 8.35355 11.9473C8.44732 11.8535 8.5 11.7264 8.5 11.5938C8.5 11.4611 8.44732 11.334 8.35355 11.2402C8.25979 11.1464 8.13261 11.0938 8 11.0938ZM8.5 9.59375V4.09375C8.5 3.96114 8.44732 3.83396 8.35355 3.7402C8.25979 3.64643 8.13261 3.59375 8 3.59375C7.86739 3.59375 7.74022 3.64643 7.64645 3.7402C7.55268 3.83396 7.5 3.96114 7.5 4.09375V9.59375C7.5 9.72636 7.55268 9.85354 7.64645 9.9473C7.74022 10.0411 7.86739 10.0938 8 10.0938C8.13261 10.0938 8.25979 10.0411 8.35355 9.9473C8.44732 9.85354 8.5 9.72636 8.5 9.59375ZM15 8.59375C15 12.4598 11.866 15.5938 8 15.5938C4.134 15.5938 1 12.4598 1 8.59375C1 4.72775 4.134 1.59375 8 1.59375C11.866 1.59375 15 4.72775 15 8.59375ZM16 8.59375C16 4.17575 12.418 0.59375 8 0.59375C3.582 0.59375 0 4.17575 0 8.59375C0 13.0118 3.582 16.5938 8 16.5938C12.418 16.5938 16 13.0118 16 8.59375Z" fill="#CC0000"/>
</g>
<defs>
<clipPath id="clip0_179_2847">
<rect width="16" height="16" fill="white" transform="translate(0 0.59375)"/>
</clipPath>
</defs>
</svg>
