<svg width="21" height="21" viewBox="0 0 21 21" fill="none" xmlns="http://www.w3.org/2000/svg">
<g clip-path="url(#clip0_179_2825)">
<path d="M19.1562 10.2969C19.1562 15.1294 15.2387 19.0469 10.4062 19.0469C5.57375 19.0469 1.65625 15.1294 1.65625 10.2969C1.65625 5.46438 5.57375 1.54687 10.4062 1.54687C15.2387 1.54687 19.1562 5.46438 19.1562 10.2969ZM20.4062 10.2969C20.4062 4.77438 15.9287 0.296875 10.4062 0.296875C4.88375 0.296875 0.40625 4.77438 0.40625 10.2969C0.40625 15.8194 4.88375 20.2969 10.4062 20.2969C15.9287 20.2969 20.4062 15.8194 20.4062 10.2969ZM12.2812 9.04687C12.2812 9.3784 12.1496 9.69634 11.9151 9.93076C11.6807 10.1652 11.3628 10.2969 11.0312 10.2969H9.15625L9.78125 10.9219V7.17187L9.15625 7.79687H11.0312C11.3628 7.79687 11.6807 7.92857 11.9151 8.16299C12.1496 8.39741 12.2812 8.71535 12.2812 9.04687ZM13.5312 9.04687C13.5312 8.38383 13.2679 7.74795 12.799 7.27911C12.3302 6.81027 11.6943 6.54687 11.0312 6.54687H9.15625C8.99049 6.54687 8.83152 6.61272 8.71431 6.72993C8.5971 6.84714 8.53125 7.00611 8.53125 7.17187V10.9219C8.53125 11.2669 8.81125 11.5469 9.15625 11.5469H11.0312C11.6943 11.5469 12.3302 11.2835 12.799 10.8146C13.2679 10.3458 13.5312 9.70992 13.5312 9.04687ZM9.78125 14.6719V10.9219C9.78125 10.7561 9.7154 10.5971 9.59819 10.4799C9.48098 10.3627 9.32201 10.2969 9.15625 10.2969C8.99049 10.2969 8.83152 10.3627 8.71431 10.4799C8.5971 10.5971 8.53125 10.7561 8.53125 10.9219V14.6719C8.53125 14.8376 8.5971 14.9966 8.71431 15.1138C8.83152 15.231 8.99049 15.2969 9.15625 15.2969C9.32201 15.2969 9.48098 15.231 9.59819 15.1138C9.7154 14.9966 9.78125 14.8376 9.78125 14.6719Z" fill="#262626"/>
</g>
<defs>
<clipPath id="clip0_179_2825">
<rect width="20" height="20" fill="white" transform="translate(0.40625 0.296875)"/>
</clipPath>
</defs>
</svg>
