<svg width="25" height="40" viewBox="0 0 25 40" fill="none" xmlns="http://www.w3.org/2000/svg">
<g clip-path="url(#clip0_179_2695)">
<path d="M12.4922 39.7552C16.9105 39.7552 20.4922 38.5613 20.4922 37.0885C20.4922 35.6158 16.9105 34.4219 12.4922 34.4219C8.07391 34.4219 4.49219 35.6158 4.49219 37.0885C4.49219 38.5613 8.07391 39.7552 12.4922 39.7552Z" fill="black" fill-opacity="0.24"/>
<path d="M12.4922 37.0889C9.82552 37.0889 0.492188 23.7161 0.492188 13.0889C0.492188 6.46145 5.86477 1.08887 12.4922 1.08887C19.1196 1.08887 24.4922 6.46145 24.4922 13.0889C24.4922 23.7161 15.1589 37.0889 12.4922 37.0889ZM12.4922 18.4222C15.4377 18.4222 17.8255 16.0344 17.8255 13.0889C17.8255 10.1433 15.4377 7.75553 12.4922 7.75553C9.54667 7.75553 7.15885 10.1433 7.15885 13.0889C7.15885 16.0344 9.54667 18.4222 12.4922 18.4222Z" fill="#0071C2" stroke="white" stroke-width="1.33333"/>
</g>
<defs>
<clipPath id="clip0_179_2695">
<rect width="24" height="39" fill="white" transform="translate(0.492188 0.921875)"/>
</clipPath>
</defs>
</svg>
