<svg width="17" height="16" viewBox="0 0 17 16" fill="none" xmlns="http://www.w3.org/2000/svg">
<g clip-path="url(#clip0_179_2611)">
<path d="M6.88116 12.0003C6.7833 11.9989 6.68799 11.9689 6.60705 11.9138C6.52612 11.8588 6.46311 11.7812 6.42584 11.6907C6.38858 11.6002 6.3787 11.5008 6.39742 11.4047C6.41614 11.3087 6.46264 11.2202 6.53116 11.1503L9.68116 8.00031L6.53116 4.85031C6.4457 4.75446 6.4004 4.6294 6.40465 4.50105C6.40889 4.3727 6.46236 4.25091 6.55396 4.16091C6.64557 4.07091 6.76829 4.01961 6.89669 4.01764C7.02509 4.01566 7.14933 4.06317 7.24366 4.15031L11.0937 8.00031L7.24366 11.8503C7.19647 11.8985 7.14003 11.9366 7.07774 11.9623C7.01544 11.9881 6.94858 12.001 6.88116 12.0003Z" fill="black"/>
</g>
<defs>
<clipPath id="clip0_179_2611">
<rect width="16" height="16" fill="white" transform="translate(0.09375)"/>
</clipPath>
</defs>
</svg>
