<svg width="20" height="21" viewBox="0 0 20 21" fill="none" xmlns="http://www.w3.org/2000/svg">
<g clip-path="url(#clip0_179_3549)">
<path d="M18.125 4.64062C18.125 5.13791 17.9275 5.61482 17.5758 5.96645C17.2242 6.31808 16.7473 6.51562 16.25 6.51562C15.7527 6.51562 15.2758 6.31808 14.9242 5.96645C14.5725 5.61482 14.375 5.13791 14.375 4.64062C14.375 4.14334 14.5725 3.66643 14.9242 3.3148C15.2758 2.96317 15.7527 2.76562 16.25 2.76562C16.7473 2.76562 17.2242 2.96317 17.5758 3.3148C17.9275 3.66643 18.125 4.14334 18.125 4.64062ZM19.375 4.64062C19.375 3.81182 19.0458 3.01697 18.4597 2.43092C17.8737 1.84487 17.0788 1.51563 16.25 1.51562C15.4212 1.51563 14.6263 1.84487 14.0403 2.43092C13.4542 3.01697 13.125 3.81182 13.125 4.64062C13.125 5.46943 13.4542 6.26428 14.0403 6.85033C14.6263 7.43638 15.4212 7.76562 16.25 7.76562C17.0788 7.76562 17.8737 7.43638 18.4597 6.85033C19.0458 6.26428 19.375 5.46943 19.375 4.64062ZM14.2233 17.2181L14.38 18.4681C14.3989 18.6193 14.4723 18.7583 14.5865 18.8591C14.7006 18.9599 14.8477 19.0156 15 19.0156H17.5C17.6523 19.0156 17.7994 18.9599 17.9135 18.8591C18.0277 18.7583 18.1011 18.6193 18.12 18.4681L18.745 13.4681L18.125 14.0156H19.375C19.5408 14.0156 19.6997 13.9498 19.8169 13.8326C19.9342 13.7154 20 13.5564 20 13.3906V11.5156C20 10.8192 19.8061 10.1365 19.4399 9.54413C19.0738 8.95172 18.5499 8.47297 17.9271 8.16152C17.3042 7.85007 16.6068 7.71823 15.9132 7.78078C15.2196 7.84332 14.5571 8.09777 14 8.51562C13.9343 8.56487 13.879 8.62657 13.8372 8.69719C13.7954 8.76782 13.7679 8.84599 13.7563 8.92724C13.7447 9.00849 13.7492 9.09123 13.7696 9.17074C13.7899 9.25025 13.8258 9.32496 13.875 9.39062C13.9242 9.45629 13.9859 9.5116 14.0566 9.55342C14.1272 9.59524 14.2054 9.62274 14.2866 9.63434C14.3679 9.64595 14.4506 9.64144 14.5301 9.62107C14.6096 9.6007 14.6843 9.56487 14.75 9.51563C15.1214 9.23706 15.5631 9.06742 16.0255 9.02573C16.4879 8.98403 16.9528 9.07192 17.368 9.27956C17.7833 9.48719 18.1325 9.80636 18.3766 10.2013C18.6207 10.5962 18.75 11.0513 18.75 11.5156V13.3906L19.375 12.7656H18.125C17.9727 12.7657 17.8256 12.8213 17.7115 12.9221C17.5973 13.023 17.5239 13.162 17.505 13.3131L16.88 18.3131L17.5 17.7656H15L15.62 18.3131L15.4633 17.0631C15.4393 16.9017 15.353 16.7561 15.223 16.6575C15.093 16.5588 14.9296 16.5149 14.7676 16.5351C14.6057 16.5554 14.4581 16.6381 14.3564 16.7658C14.2547 16.8934 14.2069 17.0558 14.2233 17.2181ZM5.625 4.64062C5.625 5.13791 5.42746 5.61482 5.07582 5.96645C4.72419 6.31808 4.24728 6.51562 3.75 6.51562C3.25272 6.51562 2.77581 6.31808 2.42417 5.96645C2.07254 5.61482 1.875 5.13791 1.875 4.64062C1.875 4.14334 2.07254 3.66643 2.42417 3.3148C2.77581 2.96317 3.25272 2.76562 3.75 2.76562C4.24728 2.76562 4.72419 2.96317 5.07582 3.3148C5.42746 3.66643 5.625 4.14334 5.625 4.64062ZM6.875 4.64062C6.875 3.81182 6.54576 3.01697 5.95971 2.43092C5.37366 1.84487 4.5788 1.51563 3.75 1.51562C2.9212 1.51563 2.12634 1.84487 1.54029 2.43092C0.95424 3.01697 0.625 3.81182 0.625 4.64062C0.625 5.46943 0.95424 6.26428 1.54029 6.85033C2.12634 7.43638 2.9212 7.76562 3.75 7.76562C4.5788 7.76562 5.37366 7.43638 5.95971 6.85033C6.54576 6.26428 6.875 5.46943 6.875 4.64062ZM4.53667 17.0631L4.38 18.3131L5 17.7656H2.5L3.12 18.3131L2.495 13.3131C2.47611 13.162 2.40269 13.023 2.28852 12.9221C2.17436 12.8213 2.02731 12.7657 1.875 12.7656H0.625L1.25 13.3906V11.5156C1.25 11.0513 1.37929 10.5962 1.62337 10.2013C1.86746 9.80636 2.2167 9.48719 2.63197 9.27956C3.04723 9.07192 3.51211 8.98403 3.97451 9.02573C4.43692 9.06742 4.87858 9.23706 5.25 9.51563C5.31566 9.56487 5.39038 9.6007 5.46989 9.62107C5.5494 9.64144 5.63214 9.64595 5.71339 9.63434C5.79464 9.62274 5.87281 9.59524 5.94343 9.55342C6.01406 9.5116 6.07575 9.45629 6.125 9.39062C6.17425 9.32496 6.21008 9.25025 6.23045 9.17074C6.25082 9.09123 6.25533 9.00849 6.24372 8.92724C6.23211 8.84599 6.20461 8.76782 6.1628 8.69719C6.12098 8.62657 6.06566 8.56487 6 8.51562C5.44286 8.09777 4.78038 7.84332 4.08677 7.78078C3.39317 7.71823 2.69585 7.85007 2.07295 8.16152C1.45005 8.47297 0.926189 8.95172 0.560059 9.54413C0.19393 10.1365 0 10.8192 0 11.5156L0 13.3906C0 13.7356 0.28 14.0156 0.625 14.0156H1.875L1.255 13.4681L1.88 18.4681C1.89889 18.6193 1.97231 18.7583 2.08648 18.8591C2.20064 18.9599 2.34769 19.0156 2.5 19.0156H5C5.15231 19.0156 5.29936 18.9599 5.41352 18.8591C5.52769 18.7583 5.60111 18.6193 5.62 18.4681L5.77667 17.2181C5.79307 17.0558 5.74531 16.8934 5.6436 16.7658C5.54189 16.6381 5.39429 16.5554 5.23235 16.5351C5.07042 16.5149 4.90698 16.5588 4.77698 16.6575C4.64699 16.7561 4.56074 16.9017 4.53667 17.0631ZM11.25 7.76562C11.25 8.09715 11.1183 8.41509 10.8839 8.64951C10.6495 8.88393 10.3315 9.01562 10 9.01562C9.66848 9.01562 9.35054 8.88393 9.11612 8.64951C8.8817 8.41509 8.75 8.09715 8.75 7.76562C8.75 7.4341 8.8817 7.11616 9.11612 6.88174C9.35054 6.64732 9.66848 6.51562 10 6.51562C10.3315 6.51562 10.6495 6.64732 10.8839 6.88174C11.1183 7.11616 11.25 7.4341 11.25 7.76562ZM12.5 7.76562C12.5 7.10258 12.2366 6.4667 11.7678 5.99786C11.2989 5.52902 10.663 5.26562 10 5.26562C9.33696 5.26562 8.70107 5.52902 8.23223 5.99786C7.76339 6.4667 7.5 7.10258 7.5 7.76562C7.5 8.42867 7.76339 9.06455 8.23223 9.53339C8.70107 10.0022 9.33696 10.2656 10 10.2656C10.663 10.2656 11.2989 10.0022 11.7678 9.53339C12.2366 9.06455 12.5 8.42867 12.5 7.76562ZM10 10.2656C9.00544 10.2656 8.05161 10.6607 7.34835 11.364C6.64509 12.0672 6.25 13.0211 6.25 14.0156V14.6406C6.25 14.9856 6.53 15.2656 6.875 15.2656H8.125L7.50833 14.7431L8.13333 18.4931C8.15761 18.6391 8.23291 18.7718 8.34584 18.8675C8.45877 18.9632 8.60199 19.0157 8.75 19.0156H10C10.1658 19.0156 10.3247 18.9498 10.4419 18.8326C10.5592 18.7154 10.625 18.5564 10.625 18.3906C10.625 18.2249 10.5592 18.0659 10.4419 17.9487C10.3247 17.8315 10.1658 17.7656 10 17.7656H8.75L9.36667 18.2881L8.74167 14.5381C8.71739 14.3921 8.64209 14.2595 8.52916 14.1638C8.41623 14.0681 8.27301 14.0156 8.125 14.0156H6.875L7.5 14.6406V14.0156C7.5 13.3526 7.76339 12.7167 8.23223 12.2479C8.70107 11.779 9.33696 11.5156 10 11.5156C10.1658 11.5156 10.3247 11.4498 10.4419 11.3326C10.5592 11.2154 10.625 11.0564 10.625 10.8906C10.625 10.7249 10.5592 10.5659 10.4419 10.4487C10.3247 10.3315 10.1658 10.2656 10 10.2656ZM10 11.5156C10.663 11.5156 11.2989 11.779 11.7678 12.2479C12.2366 12.7167 12.5 13.3526 12.5 14.0156V14.6406L13.125 14.0156H11.875C11.727 14.0156 11.5838 14.0681 11.4708 14.1638C11.3579 14.2595 11.2826 14.3921 11.2583 14.5381L10.6333 18.2881L11.25 17.7656H10C9.83424 17.7656 9.67527 17.8315 9.55806 17.9487C9.44085 18.0659 9.375 18.2249 9.375 18.3906C9.375 18.5564 9.44085 18.7154 9.55806 18.8326C9.67527 18.9498 9.83424 19.0156 10 19.0156H11.25C11.398 19.0157 11.5412 18.9632 11.6542 18.8675C11.7671 18.7718 11.8424 18.6391 11.8667 18.4931L12.4917 14.7431L11.875 15.2656H13.125C13.2908 15.2656 13.4497 15.1998 13.5669 15.0826C13.6842 14.9654 13.75 14.8064 13.75 14.6406V14.0156C13.75 13.0211 13.3549 12.0672 12.6516 11.364C11.9484 10.6607 10.9946 10.2656 10 10.2656C9.83424 10.2656 9.67527 10.3315 9.55806 10.4487C9.44085 10.5659 9.375 10.7249 9.375 10.8906C9.375 11.0564 9.44085 11.2154 9.55806 11.3326C9.67527 11.4498 9.83424 11.5156 10 11.5156Z" fill="black"/>
</g>
<defs>
<clipPath id="clip0_179_3549">
<rect width="20" height="20" fill="white" transform="translate(0 0.265625)"/>
</clipPath>
</defs>
</svg>
