<svg width="20" height="21" viewBox="0 0 20 21" fill="none" xmlns="http://www.w3.org/2000/svg">
<g clip-path="url(#clip0_179_2865)">
<path d="M18.7517 11.5469V18.4219C18.7517 18.5876 18.6859 18.7466 18.5686 18.8638C18.4514 18.981 18.2925 19.0469 18.1267 19.0469H1.87671C1.71095 19.0469 1.55198 18.981 1.43477 18.8638C1.31756 18.7466 1.25171 18.5876 1.25171 18.4219V4.67187C1.25171 4.50611 1.31756 4.34714 1.43477 4.22993C1.55198 4.11272 1.71095 4.04687 1.87671 4.04687H18.1267C18.2925 4.04687 18.4514 4.11272 18.5686 4.22993C18.6859 4.34714 18.7517 4.50611 18.7517 4.67187V11.5469ZM20.0017 11.5469V4.67187C20.0017 4.17459 19.8042 3.69768 19.4525 3.34605C19.1009 2.99442 18.624 2.79687 18.1267 2.79687H1.87671C1.37943 2.79687 0.902514 2.99442 0.550884 3.34605C0.199253 3.69768 0.00170898 4.17459 0.00170898 4.67187V18.4219C0.00170898 18.9192 0.199253 19.3961 0.550884 19.7477C0.724994 19.9218 0.931692 20.0599 1.15918 20.1541C1.38666 20.2484 1.63048 20.2969 1.87671 20.2969H18.1267C18.624 20.2969 19.1009 20.0993 19.4525 19.7477C19.8042 19.3961 20.0017 18.9192 20.0017 18.4219V11.5469ZM0.626709 9.04687H19.3767C19.5425 9.04687 19.7014 8.98103 19.8186 8.86382C19.9359 8.74661 20.0017 8.58764 20.0017 8.42187C20.0017 8.25611 19.9359 8.09714 19.8186 7.97993C19.7014 7.86272 19.5425 7.79687 19.3767 7.79687H0.626709C0.460949 7.79687 0.301977 7.86272 0.184767 7.97993C0.067557 8.09714 0.00170898 8.25611 0.00170898 8.42187C0.00170898 8.58764 0.067557 8.74661 0.184767 8.86382C0.301977 8.98103 0.460949 9.04687 0.626709 9.04687ZM6.25171 5.29687V0.921875C6.25171 0.756115 6.18586 0.597143 6.06865 0.479933C5.95144 0.362723 5.79247 0.296875 5.62671 0.296875C5.46095 0.296875 5.30198 0.362723 5.18477 0.479933C5.06756 0.597143 5.00171 0.756115 5.00171 0.921875V5.29687C5.00171 5.46264 5.06756 5.62161 5.18477 5.73882C5.30198 5.85603 5.46095 5.92187 5.62671 5.92187C5.79247 5.92187 5.95144 5.85603 6.06865 5.73882C6.18586 5.62161 6.25171 5.46264 6.25171 5.29687ZM15.0017 5.29687V0.921875C15.0017 0.756115 14.9359 0.597143 14.8186 0.479933C14.7014 0.362723 14.5425 0.296875 14.3767 0.296875C14.2109 0.296875 14.052 0.362723 13.9348 0.479933C13.8176 0.597143 13.7517 0.756115 13.7517 0.921875V5.29687C13.7517 5.46264 13.8176 5.62161 13.9348 5.73882C14.052 5.85603 14.2109 5.92187 14.3767 5.92187C14.5425 5.92187 14.7014 5.85603 14.8186 5.73882C14.9359 5.62161 15.0017 5.46264 15.0017 5.29687Z" fill="#BDBDBD"/>
</g>
<defs>
<clipPath id="clip0_179_2865">
<rect width="20" height="20" fill="white" transform="translate(0 0.296875)"/>
</clipPath>
</defs>
</svg>
