<svg width="20" height="21" viewBox="0 0 20 21" fill="none" xmlns="http://www.w3.org/2000/svg">
<g clip-path="url(#clip0_179_3540)">
<path d="M11.875 13.7187H11.25C11.0842 13.7187 10.9253 13.6529 10.8081 13.5357C10.6908 13.4185 10.625 13.2595 10.625 13.0937V9.96875C10.625 9.63723 10.4933 9.31929 10.2589 9.08487C10.0245 8.85045 9.70652 8.71875 9.375 8.71875H8.75C8.58424 8.71875 8.42527 8.7846 8.30806 8.90181C8.19085 9.01902 8.125 9.17799 8.125 9.34375C8.125 9.50951 8.19085 9.66848 8.30806 9.78569C8.42527 9.9029 8.58424 9.96875 8.75 9.96875H9.375V13.0937C9.375 13.591 9.57254 14.0679 9.92417 14.4196C10.2758 14.7712 10.7527 14.9687 11.25 14.9687H11.875C12.0408 14.9687 12.1997 14.9029 12.3169 14.7857C12.4342 14.6685 12.5 14.5095 12.5 14.3437C12.5 14.178 12.4342 14.019 12.3169 13.9018C12.1997 13.7846 12.0408 13.7187 11.875 13.7187ZM9.6875 5.59375C9.43886 5.59375 9.2004 5.69252 9.02459 5.86834C8.84877 6.04415 8.75 6.28261 8.75 6.53125C8.75 6.77989 8.84877 7.01835 9.02459 7.19416C9.2004 7.36998 9.43886 7.46875 9.6875 7.46875C9.93614 7.46875 10.1746 7.36998 10.3504 7.19416C10.5262 7.01835 10.625 6.77989 10.625 6.53125C10.625 6.28261 10.5262 6.04415 10.3504 5.86834C10.1746 5.69252 9.93614 5.59375 9.6875 5.59375C9.52174 5.59375 9.36277 5.6596 9.24556 5.77681C9.12835 5.89402 9.0625 6.05299 9.0625 6.21875C9.0625 6.38451 9.12835 6.54348 9.24556 6.66069C9.36277 6.7779 9.52174 6.84375 9.6875 6.84375C9.60462 6.84375 9.52513 6.81083 9.46653 6.75222C9.40792 6.69362 9.375 6.61413 9.375 6.53125C9.375 6.44837 9.40792 6.36888 9.46653 6.31028C9.52513 6.25167 9.60462 6.21875 9.6875 6.21875C9.77038 6.21875 9.84987 6.25167 9.90847 6.31028C9.96708 6.36888 10 6.44837 10 6.53125C10 6.61413 9.96708 6.69362 9.90847 6.75222C9.84987 6.81083 9.77038 6.84375 9.6875 6.84375C9.85326 6.84375 10.0122 6.7779 10.1294 6.66069C10.2467 6.54348 10.3125 6.38451 10.3125 6.21875C10.3125 6.05299 10.2467 5.89402 10.1294 5.77681C10.0122 5.6596 9.85326 5.59375 9.6875 5.59375ZM18.75 10.5937C18.75 15.4262 14.8325 19.3437 10 19.3437C5.1675 19.3437 1.25 15.4262 1.25 10.5937C1.25 5.76125 5.1675 1.84375 10 1.84375C14.8325 1.84375 18.75 5.76125 18.75 10.5937ZM20 10.5937C20 5.07125 15.5225 0.59375 10 0.59375C4.4775 0.59375 0 5.07125 0 10.5937C0 16.1162 4.4775 20.5937 10 20.5937C15.5225 20.5937 20 16.1162 20 10.5937Z" fill="black"/>
</g>
<defs>
<clipPath id="clip0_179_3540">
<rect width="20" height="20" fill="white" transform="translate(0 0.59375)"/>
</clipPath>
</defs>
</svg>
