<svg width="20" height="21" viewBox="0 0 20 21" fill="none" xmlns="http://www.w3.org/2000/svg">
<g clip-path="url(#clip0_179_3515)">
<path d="M13.6453 11.2844C13.6547 11.2688 13.6625 11.2531 13.6703 11.2375C13.6823 11.218 13.6927 11.1977 13.7016 11.1766C13.71 11.1558 13.7167 11.1344 13.7219 11.1125C13.7281 11.095 13.7333 11.0773 13.7375 11.0594C13.7531 10.9789 13.7531 10.8961 13.7375 10.8156C13.7332 10.7977 13.728 10.7799 13.7219 10.7625C13.7168 10.7407 13.71 10.7192 13.7016 10.6984C13.6927 10.6774 13.6823 10.657 13.6703 10.6375C13.6703 10.6219 13.6547 10.6062 13.6453 10.5906C13.6219 10.5568 13.5957 10.5249 13.5672 10.4953L9.81719 6.74531C9.69991 6.62804 9.54085 6.56215 9.375 6.56215C9.20915 6.56215 9.05009 6.62804 8.93281 6.74531C8.81554 6.86259 8.74965 7.02165 8.74965 7.1875C8.74965 7.35335 8.81554 7.51241 8.93281 7.62969L11.6156 10.3125H3.125C2.95924 10.3125 2.80027 10.3783 2.68306 10.4956C2.56585 10.6128 2.5 10.7717 2.5 10.9375C2.5 11.1033 2.56585 11.2622 2.68306 11.3794C2.80027 11.4967 2.95924 11.5625 3.125 11.5625H11.6156L8.93281 14.2453C8.87474 14.3034 8.82868 14.3723 8.79725 14.4482C8.76583 14.5241 8.74965 14.6054 8.74965 14.6875C8.74965 14.7696 8.76583 14.8509 8.79725 14.9268C8.82868 15.0027 8.87474 15.0716 8.93281 15.1297C8.99088 15.1878 9.05982 15.2338 9.13569 15.2652C9.21156 15.2967 9.29288 15.3128 9.375 15.3128C9.45712 15.3128 9.53844 15.2967 9.61431 15.2652C9.69018 15.2338 9.75912 15.1878 9.81719 15.1297L13.5672 11.3797C13.5958 11.35 13.6219 11.3181 13.6453 11.2844ZM14.375 0.9375H13.125C12.9592 0.9375 12.8003 1.00335 12.6831 1.12056C12.5658 1.23777 12.5 1.39674 12.5 1.5625C12.5 1.72826 12.5658 1.88723 12.6831 2.00444C12.8003 2.12165 12.9592 2.1875 13.125 2.1875H14.375C15.4105 2.1875 16.25 3.02703 16.25 4.0625V17.8125C16.25 18.848 15.4105 19.6875 14.375 19.6875H13.125C12.9592 19.6875 12.8003 19.7533 12.6831 19.8706C12.5658 19.9878 12.5 20.1467 12.5 20.3125C12.5 20.4783 12.5658 20.6372 12.6831 20.7544C12.8003 20.8717 12.9592 20.9375 13.125 20.9375H14.375C16.1009 20.9375 17.5 19.5384 17.5 17.8125V4.0625C17.5 2.33656 16.1009 0.9375 14.375 0.9375Z" fill="black"/>
</g>
<defs>
<clipPath id="clip0_179_3515">
<rect width="20" height="20" fill="white" transform="translate(0 0.9375)"/>
</clipPath>
</defs>
</svg>
