<svg width="24" height="25" viewBox="0 0 24 25" fill="none" xmlns="http://www.w3.org/2000/svg">
<g clip-path="url(#clip0_179_2986)">
<path d="M20.25 4.79688H3.75C3.15326 4.79688 2.58097 5.03393 2.15901 5.45588C1.73705 5.87784 1.5 6.45014 1.5 7.04688V17.5469C1.5 18.1436 1.73705 18.7159 2.15901 19.1379C2.58097 19.5598 3.15326 19.7969 3.75 19.7969H20.25C20.8467 19.7969 21.419 19.5598 21.841 19.1379C22.2629 18.7159 22.5 18.1436 22.5 17.5469V7.04688C22.5 6.45014 22.2629 5.87784 21.841 5.45588C21.419 5.03393 20.8467 4.79688 20.25 4.79688ZM3.75 6.29688H20.25C20.4489 6.29687 20.6397 6.37589 20.7803 6.51655C20.921 6.6572 21 6.84796 21 7.04688V7.79688H3V7.04688C3 6.84796 3.07902 6.6572 3.21967 6.51655C3.36032 6.37589 3.55109 6.29687 3.75 6.29688ZM20.25 18.2969H3.75C3.55109 18.2969 3.36032 18.2179 3.21967 18.0772C3.07902 17.9366 3 17.7458 3 17.5469V10.7969H21V17.5469C21 17.7458 20.921 17.9366 20.7803 18.0772C20.6397 18.2179 20.4489 18.2969 20.25 18.2969ZM4.5 13.7969H13.5V15.2969H4.5V13.7969Z" fill="#008009"/>
</g>
<defs>
<clipPath id="clip0_179_2986">
<rect width="24" height="24" fill="white" transform="translate(0 0.296875)"/>
</clipPath>
</defs>
</svg>
