<svg width="20" height="21" viewBox="0 0 20 21" fill="none" xmlns="http://www.w3.org/2000/svg">
<g clip-path="url(#clip0_179_3528)">
<path d="M17.3953 10.6125C17.4047 10.5969 17.4125 10.5812 17.4203 10.5656C17.4281 10.55 17.4437 10.5266 17.4531 10.5047C17.4625 10.4828 17.4656 10.4625 17.4719 10.4406C17.478 10.4231 17.4833 10.4055 17.4875 10.3875C17.5031 10.307 17.5031 10.2242 17.4875 10.1438C17.4832 10.1258 17.478 10.108 17.4719 10.0906C17.4719 10.0688 17.4609 10.0469 17.4531 10.0266C17.4453 10.0063 17.4312 9.98594 17.4203 9.96563C17.4094 9.94531 17.4047 9.93437 17.3953 9.91875C17.3719 9.88493 17.3458 9.85305 17.3172 9.82344L13.5672 6.07344C13.5091 6.01537 13.4402 5.96931 13.3643 5.93788C13.2884 5.90645 13.2071 5.89028 13.125 5.89028C13.0429 5.89028 12.9616 5.90645 12.8857 5.93788C12.8098 5.96931 12.7409 6.01537 12.6828 6.07344C12.6247 6.13151 12.5787 6.20044 12.5473 6.27631C12.5158 6.35219 12.4997 6.4335 12.4997 6.51562C12.4997 6.59775 12.5158 6.67906 12.5473 6.75494C12.5787 6.83081 12.6247 6.89974 12.6828 6.95781L15.3656 9.64062H6.875C6.70924 9.64062 6.55027 9.70647 6.43306 9.82368C6.31585 9.94089 6.25 10.0999 6.25 10.2656C6.25 10.4314 6.31585 10.5904 6.43306 10.7076C6.55027 10.8248 6.70924 10.8906 6.875 10.8906H15.3656L12.6828 13.5734C12.6247 13.6315 12.5787 13.7004 12.5473 13.7763C12.5158 13.8522 12.4997 13.9335 12.4997 14.0156C12.4997 14.0977 12.5158 14.1791 12.5473 14.2549C12.5787 14.3308 12.6247 14.3997 12.6828 14.4578C12.7409 14.5159 12.8098 14.5619 12.8857 14.5934C12.9616 14.6248 13.0429 14.641 13.125 14.641C13.2071 14.641 13.2884 14.6248 13.3643 14.5934C13.4402 14.5619 13.5091 14.5159 13.5672 14.4578L17.3172 10.7078C17.3458 10.6781 17.3719 10.6463 17.3953 10.6125ZM6.875 19.0156H5.625C4.58953 19.0156 3.75 18.1761 3.75 17.1406V3.39062C3.75 2.35516 4.58953 1.51562 5.625 1.51562H6.875C7.04076 1.51562 7.19973 1.44978 7.31694 1.33257C7.43415 1.21536 7.5 1.05639 7.5 0.890625C7.5 0.724865 7.43415 0.565894 7.31694 0.448683C7.19973 0.331473 7.04076 0.265625 6.875 0.265625H5.625C3.89906 0.265625 2.5 1.66469 2.5 3.39062V17.1406C2.5 18.8666 3.89906 20.2656 5.625 20.2656H6.875C7.04076 20.2656 7.19973 20.1998 7.31694 20.0826C7.43415 19.9654 7.5 19.8064 7.5 19.6406C7.5 19.4749 7.43415 19.3159 7.31694 19.1987C7.19973 19.0815 7.04076 19.0156 6.875 19.0156Z" fill="black"/>
</g>
<defs>
<clipPath id="clip0_179_3528">
<rect width="20" height="20" fill="white" transform="translate(0 0.265625)"/>
</clipPath>
</defs>
</svg>
