<svg width="20" height="21" viewBox="0 0 20 21" fill="none" xmlns="http://www.w3.org/2000/svg">
<g clip-path="url(#clip0_179_3585)">
<path d="M13.3416 13.0781C13.3416 12.0836 12.9465 11.1297 12.2432 10.4265C11.5399 9.72321 10.5861 9.32812 9.59155 9.32812C8.59699 9.32812 7.64316 9.72321 6.9399 10.4265C6.23664 11.1297 5.84155 12.0836 5.84155 13.0781L6.46655 12.4531C5.63775 12.4531 4.8429 12.7824 4.25684 13.3684C3.67079 13.9545 3.34155 14.7493 3.34155 15.5781C3.34155 16.4069 3.67079 17.2018 4.25684 17.7878C4.8429 18.3739 5.63775 18.7031 6.46655 18.7031C7.12027 18.6895 7.76144 18.521 8.33739 18.2115C8.72625 18.0106 9.1577 17.9061 9.59539 17.9068C10.0331 17.9075 10.4642 18.0134 10.8524 18.2156C11.4166 18.5198 12.0524 18.6881 12.7024 18.7031C13.1128 18.7041 13.5193 18.6243 13.8988 18.4681C14.2784 18.312 14.6234 18.0826 14.9143 17.7931C15.2052 17.5036 15.4362 17.1597 15.5941 16.7809C15.7521 16.4022 15.8339 15.996 15.8349 15.5856C15.8359 15.1752 15.756 14.7687 15.5999 14.3892C15.4437 14.0096 15.2144 13.6646 14.9249 13.3737C14.6354 13.0828 14.2915 12.8518 13.9127 12.6939C13.5339 12.5359 13.1278 12.4541 12.7174 12.4531L13.3416 13.0781ZM12.0916 13.0781C12.0916 13.4231 12.3716 13.7031 12.7166 13.7031C13.2138 13.7031 13.6907 13.9007 14.0424 14.2523C14.394 14.6039 14.5916 15.0808 14.5916 15.5781C14.5916 16.0754 14.394 16.5523 14.0424 16.9039C13.6907 17.2556 13.2138 17.4531 12.7166 17.4531C12.269 17.4409 11.8306 17.3239 11.4366 17.1115C10.8681 16.8147 10.2366 16.6594 9.5954 16.6587C8.95421 16.658 8.32229 16.8119 7.75322 17.1073C7.35275 17.3238 6.90667 17.4423 6.45155 17.4531C5.95667 17.4498 5.48322 17.2507 5.13469 16.8994C4.78615 16.5481 4.59088 16.073 4.59155 15.5781C4.59155 15.0808 4.7891 14.6039 5.14073 14.2523C5.49236 13.9007 5.96927 13.7031 6.46655 13.7031C6.63231 13.7031 6.79128 13.6373 6.90849 13.5201C7.0257 13.4029 7.09155 13.2439 7.09155 13.0781C7.09155 12.7498 7.15622 12.4247 7.28185 12.1214C7.40749 11.8181 7.59164 11.5425 7.82379 11.3104C8.05593 11.0782 8.33153 10.8941 8.63484 10.7684C8.93816 10.6428 9.26325 10.5781 9.59155 10.5781C9.91986 10.5781 10.2449 10.6428 10.5483 10.7684C10.8516 10.8941 11.1272 11.0782 11.3593 11.3104C11.5915 11.5425 11.7756 11.8181 11.9013 12.1214C12.0269 12.4247 12.0916 12.7498 12.0916 13.0781ZM3.96655 9.95312C3.96655 10.2846 3.83486 10.6026 3.60044 10.837C3.36602 11.0714 3.04807 11.2031 2.71655 11.2031C2.38503 11.2031 2.06709 11.0714 1.83267 10.837C1.59825 10.6026 1.46655 10.2846 1.46655 9.95312C1.46655 9.6216 1.59825 9.30366 1.83267 9.06924C2.06709 8.83482 2.38503 8.70312 2.71655 8.70312C3.04807 8.70312 3.36602 8.83482 3.60044 9.06924C3.83486 9.30366 3.96655 9.6216 3.96655 9.95312ZM5.21655 9.95312C5.21655 9.62482 5.15189 9.29973 5.02625 8.99642C4.90061 8.6931 4.71647 8.4175 4.48432 8.18536C4.25217 7.95321 3.97658 7.76906 3.67326 7.64343C3.36995 7.51779 3.04486 7.45312 2.71655 7.45312C2.38825 7.45312 2.06316 7.51779 1.75984 7.64343C1.45653 7.76906 1.18093 7.95321 0.948786 8.18536C0.716639 8.4175 0.532491 8.6931 0.406854 8.99642C0.281217 9.29973 0.216553 9.62482 0.216553 9.95312C0.216553 10.6162 0.479945 11.2521 0.948786 11.7209C1.41763 12.1897 2.05351 12.4531 2.71655 12.4531C3.37959 12.4531 4.01548 12.1897 4.48432 11.7209C4.95316 11.2521 5.21655 10.6162 5.21655 9.95312ZM7.71655 4.95312C7.71655 5.28465 7.58486 5.60259 7.35044 5.83701C7.11602 6.07143 6.79807 6.20312 6.46655 6.20312C6.13503 6.20312 5.81709 6.07143 5.58267 5.83701C5.34825 5.60259 5.21655 5.28465 5.21655 4.95312C5.21655 4.6216 5.34825 4.30366 5.58267 4.06924C5.81709 3.83482 6.13503 3.70312 6.46655 3.70312C6.79807 3.70312 7.11602 3.83482 7.35044 4.06924C7.58486 4.30366 7.71655 4.6216 7.71655 4.95312ZM8.96655 4.95312C8.96655 4.62482 8.90189 4.29973 8.77625 3.99642C8.65061 3.6931 8.46647 3.4175 8.23432 3.18536C8.00217 2.95321 7.72658 2.76906 7.42326 2.64343C7.11995 2.51779 6.79486 2.45313 6.46655 2.45312C6.13825 2.45313 5.81316 2.51779 5.50984 2.64343C5.20653 2.76906 4.93093 2.95321 4.69879 3.18536C4.46664 3.4175 4.28249 3.6931 4.15685 3.99642C4.03122 4.29973 3.96655 4.62482 3.96655 4.95312C3.96655 5.61617 4.22994 6.25205 4.69879 6.72089C5.16763 7.18973 5.80351 7.45312 6.46655 7.45312C7.12959 7.45312 7.76548 7.18973 8.23432 6.72089C8.70316 6.25205 8.96655 5.61617 8.96655 4.95312ZM13.9666 4.95312C13.9666 5.28465 13.8349 5.60259 13.6004 5.83701C13.366 6.07143 13.0481 6.20312 12.7166 6.20312C12.385 6.20312 12.0671 6.07143 11.8327 5.83701C11.5982 5.60259 11.4666 5.28465 11.4666 4.95312C11.4666 4.6216 11.5982 4.30366 11.8327 4.06924C12.0671 3.83482 12.385 3.70312 12.7166 3.70312C13.0481 3.70312 13.366 3.83482 13.6004 4.06924C13.8349 4.30366 13.9666 4.6216 13.9666 4.95312ZM15.2166 4.95312C15.2166 4.29008 14.9532 3.6542 14.4843 3.18536C14.0155 2.71652 13.3796 2.45313 12.7166 2.45312C12.0535 2.45313 11.4176 2.71652 10.9488 3.18536C10.4799 3.6542 10.2166 4.29008 10.2166 4.95312C10.2166 5.61617 10.4799 6.25205 10.9488 6.72089C11.4176 7.18973 12.0535 7.45312 12.7166 7.45312C13.3796 7.45312 14.0155 7.18973 14.4843 6.72089C14.9532 6.25205 15.2166 5.61617 15.2166 4.95312ZM18.3416 9.95312C18.3416 10.2846 18.2099 10.6026 17.9754 10.837C17.741 11.0714 17.4231 11.2031 17.0916 11.2031C16.76 11.2031 16.4421 11.0714 16.2077 10.837C15.9732 10.6026 15.8416 10.2846 15.8416 9.95312C15.8416 9.6216 15.9732 9.30366 16.2077 9.06924C16.4421 8.83482 16.76 8.70312 17.0916 8.70312C17.4231 8.70312 17.741 8.83482 17.9754 9.06924C18.2099 9.30366 18.3416 9.6216 18.3416 9.95312ZM19.5916 9.95312C19.5916 9.29008 19.3282 8.6542 18.8593 8.18536C18.3905 7.71652 17.7546 7.45312 17.0916 7.45312C16.4285 7.45312 15.7926 7.71652 15.3238 8.18536C14.8549 8.6542 14.5916 9.29008 14.5916 9.95312C14.5916 10.6162 14.8549 11.2521 15.3238 11.7209C15.7926 12.1897 16.4285 12.4531 17.0916 12.4531C17.7546 12.4531 18.3905 12.1897 18.8593 11.7209C19.3282 11.2521 19.5916 10.6162 19.5916 9.95312Z" fill="black"/>
</g>
<defs>
<clipPath id="clip0_179_3585">
<rect width="20" height="20" fill="white" transform="translate(0 0.578125)"/>
</clipPath>
</defs>
</svg>
