<svg width="20" height="21" viewBox="0 0 20 21" fill="none" xmlns="http://www.w3.org/2000/svg">
<g clip-path="url(#clip0_179_3592)">
<path d="M18.75 10.5V16.125C18.75 16.2908 18.6842 16.4497 18.5669 16.5669C18.4497 16.6842 18.2908 16.75 18.125 16.75H1.875C1.70924 16.75 1.55027 16.6842 1.43306 16.5669C1.31585 16.4497 1.25 16.2908 1.25 16.125V4.875C1.25 4.70924 1.31585 4.55027 1.43306 4.43306C1.55027 4.31585 1.70924 4.25 1.875 4.25H18.125C18.2908 4.25 18.4497 4.31585 18.5669 4.43306C18.6842 4.55027 18.75 4.70924 18.75 4.875V10.5ZM20 10.5V4.875C20 4.37772 19.8025 3.90081 19.4508 3.54917C19.0992 3.19754 18.6223 3 18.125 3H1.875C1.37772 3 0.900805 3.19754 0.549175 3.54917C0.197544 3.90081 0 4.37772 0 4.875L0 16.125C0 16.6223 0.197544 17.0992 0.549175 17.4508C0.900805 17.8025 1.37772 18 1.875 18H18.125C18.6223 18 19.0992 17.8025 19.4508 17.4508C19.8025 17.0992 20 16.6223 20 16.125V10.5ZM0.625 8H19.375C19.5408 8 19.6997 7.93415 19.8169 7.81694C19.9342 7.69973 20 7.54076 20 7.375C20 7.20924 19.9342 7.05027 19.8169 6.93306C19.6997 6.81585 19.5408 6.75 19.375 6.75H0.625C0.45924 6.75 0.300268 6.81585 0.183058 6.93306C0.065848 7.05027 0 7.20924 0 7.375C0 7.54076 0.065848 7.69973 0.183058 7.81694C0.300268 7.93415 0.45924 8 0.625 8ZM4.375 11.75H11.25C11.4158 11.75 11.5747 11.6842 11.6919 11.5669C11.8092 11.4497 11.875 11.2908 11.875 11.125C11.875 10.9592 11.8092 10.8003 11.6919 10.6831C11.5747 10.5658 11.4158 10.5 11.25 10.5H4.375C4.20924 10.5 4.05027 10.5658 3.93306 10.6831C3.81585 10.8003 3.75 10.9592 3.75 11.125C3.75 11.2908 3.81585 11.4497 3.93306 11.5669C4.05027 11.6842 4.20924 11.75 4.375 11.75ZM4.375 14.25H8.75C8.91576 14.25 9.07473 14.1842 9.19194 14.0669C9.30915 13.9497 9.375 13.7908 9.375 13.625C9.375 13.4592 9.30915 13.3003 9.19194 13.1831C9.07473 13.0658 8.91576 13 8.75 13H4.375C4.20924 13 4.05027 13.0658 3.93306 13.1831C3.81585 13.3003 3.75 13.4592 3.75 13.625C3.75 13.7908 3.81585 13.9497 3.93306 14.0669C4.05027 14.1842 4.20924 14.25 4.375 14.25Z" fill="black"/>
</g>
<defs>
<clipPath id="clip0_179_3592">
<rect width="20" height="20" fill="white" transform="translate(0 0.5)"/>
</clipPath>
</defs>
</svg>
