<svg width="20" height="21" viewBox="0 0 20 21" fill="none" xmlns="http://www.w3.org/2000/svg">
<g clip-path="url(#clip0_179_3578)">
<path d="M11.875 3.57812C11.875 4.07541 11.6775 4.55232 11.3258 4.90395C10.9742 5.25558 10.4973 5.45312 10 5.45312C9.50272 5.45312 9.02581 5.25558 8.67417 4.90395C8.32254 4.55232 8.125 4.07541 8.125 3.57812C8.125 3.08084 8.32254 2.60393 8.67417 2.2523C9.02581 1.90067 9.50272 1.70312 10 1.70312C10.4973 1.70312 10.9742 1.90067 11.3258 2.2523C11.6775 2.60393 11.875 3.08084 11.875 3.57812ZM13.125 3.57812C13.125 2.74932 12.7958 1.95447 12.2097 1.36842C11.6237 0.782365 10.8288 0.453125 10 0.453125C9.1712 0.453125 8.37634 0.782365 7.79029 1.36842C7.20424 1.95447 6.875 2.74932 6.875 3.57812C6.875 4.40693 7.20424 5.20178 7.79029 5.78783C8.37634 6.37388 9.1712 6.70312 10 6.70312C10.8288 6.70312 11.6237 6.37388 12.2097 5.78783C12.7958 5.20178 13.125 4.40693 13.125 3.57812ZM15 11.7031C15 10.377 14.4732 9.10527 13.5355 8.16759C12.5979 7.22991 11.3261 6.70312 10 6.70312C8.67392 6.70312 7.40215 7.22991 6.46447 8.16759C5.52678 9.10527 5 10.377 5 11.7031V13.5781C5 13.9231 5.28 14.2031 5.625 14.2031H7.5L6.87833 13.6406L7.50333 19.8906C7.51882 20.0448 7.591 20.1876 7.70586 20.2916C7.82073 20.3955 7.97009 20.4531 8.125 20.4531H11.875C12.0299 20.4531 12.1793 20.3955 12.2941 20.2916C12.409 20.1876 12.4812 20.0448 12.4967 19.8906L13.1217 13.6406L12.5 14.2031H14.375C14.5408 14.2031 14.6997 14.1373 14.8169 14.0201C14.9342 13.9029 15 13.7439 15 13.5781V11.7031ZM13.75 11.7031V13.5781L14.375 12.9531H12.5C12.3451 12.9532 12.1957 13.0107 12.0809 13.1147C11.966 13.2186 11.8938 13.3615 11.8783 13.5156L11.2533 19.7656L11.875 19.2031H8.125L8.74667 19.7656L8.12167 13.5156C8.10618 13.3615 8.034 13.2186 7.91914 13.1147C7.80427 13.0107 7.65491 12.9532 7.5 12.9531H5.625L6.25 13.5781V11.7031C6.25 10.7086 6.64509 9.75474 7.34835 9.05147C8.05161 8.34821 9.00544 7.95312 10 7.95312C10.9946 7.95312 11.9484 8.34821 12.6516 9.05147C13.3549 9.75474 13.75 10.7086 13.75 11.7031Z" fill="black"/>
</g>
<defs>
<clipPath id="clip0_179_3578">
<rect width="20" height="20" fill="white" transform="translate(0 0.453125)"/>
</clipPath>
</defs>
</svg>
