<svg width="12" height="13" viewBox="0 0 12 13" fill="none" xmlns="http://www.w3.org/2000/svg">
<g clip-path="url(#clip0_179_3702)">
<path d="M10.61 2.24827C10.5953 2.17474 10.5588 2.10732 10.5053 2.05473C10.4518 2.00215 10.3838 1.9668 10.31 1.95327C7.88503 1.50327 5.01003 2.22827 3.62503 3.63327C2.24003 5.03827 1.55003 7.75827 1.94003 10.0883L1.00003 11.0633C0.938538 11.132 0.904541 11.221 0.904541 11.3133C0.904541 11.4055 0.938538 11.4945 1.00003 11.5633C1.03465 11.5983 1.07593 11.6261 1.12144 11.645C1.16694 11.6639 1.21576 11.6735 1.26503 11.6733C1.35444 11.6676 1.43839 11.6283 1.50003 11.5633L2.50003 10.6133C2.95612 10.6892 3.41766 10.7277 3.88003 10.7283C5.92503 10.7283 7.97503 10.0633 9.05503 8.96827C10.41 7.56327 11.09 4.67327 10.61 2.24827ZM8.50003 8.43827C7.44503 9.50827 5.20503 10.1183 3.15003 9.93827L8.29503 4.79827C8.36526 4.72796 8.4047 4.63265 8.4047 4.53327C8.4047 4.4339 8.36526 4.33859 8.29503 4.26827C8.22325 4.19892 8.12734 4.16016 8.02753 4.16016C7.92772 4.16016 7.83182 4.19892 7.76003 4.26827L2.61003 9.41827C2.44503 7.46327 3.06503 5.26327 4.16003 4.15827C5.25503 3.05327 7.80503 2.34327 9.92003 2.65827C10.255 4.76827 9.65003 7.26827 8.50003 8.43827Z" fill="black"/>
</g>
<defs>
<clipPath id="clip0_179_3702">
<rect width="12" height="12" fill="white" transform="translate(0 0.5625)"/>
</clipPath>
</defs>
</svg>
