<svg width="12" height="13" viewBox="0 0 12 13" fill="none" xmlns="http://www.w3.org/2000/svg">
<g clip-path="url(#clip0_179_3678)">
<path d="M7.5 4.6875C7.5 5.08532 7.34196 5.46686 7.06066 5.74816C6.77936 6.02946 6.39782 6.1875 6 6.1875C5.60218 6.1875 5.22064 6.02946 4.93934 5.74816C4.65804 5.46686 4.5 5.08532 4.5 4.6875C4.5 4.28968 4.65804 3.90814 4.93934 3.62684C5.22064 3.34554 5.60218 3.1875 6 3.1875C6.39782 3.1875 6.77936 3.34554 7.06066 3.62684C7.34196 3.90814 7.5 4.28968 7.5 4.6875ZM8.25 4.6875C8.25 4.09076 8.01295 3.51847 7.59099 3.09651C7.16903 2.67455 6.59674 2.4375 6 2.4375C5.40326 2.4375 4.83097 2.67455 4.40901 3.09651C3.98705 3.51847 3.75 4.09076 3.75 4.6875C3.75 5.28424 3.98705 5.85653 4.40901 6.27849C4.83097 6.70045 5.40326 6.9375 6 6.9375C6.59674 6.9375 7.16903 6.70045 7.59099 6.27849C8.01295 5.85653 8.25 5.28424 8.25 4.6875ZM6 1.3125C6.89511 1.3125 7.75355 1.66808 8.38649 2.30101C9.01942 2.93395 9.375 3.79239 9.375 4.6875C9.375 5.956 7.6065 9.3905 6 11.8125C4.393 9.3905 2.625 5.956 2.625 4.6875C2.625 3.79239 2.98058 2.93395 3.61351 2.30101C4.24645 1.66808 5.10489 1.3125 6 1.3125ZM6 0.5625C4.90598 0.5625 3.85677 0.997097 3.08318 1.77068C2.3096 2.54427 1.875 3.59348 1.875 4.6875C1.875 6.17 3.672 9.66 5.375 12.2275C5.44341 12.3306 5.53629 12.4152 5.64534 12.4738C5.75439 12.5323 5.87623 12.5629 6 12.5629C6.12377 12.5629 6.24561 12.5323 6.35466 12.4738C6.46371 12.4152 6.55659 12.3306 6.625 12.2275C8.328 9.66 10.125 6.17 10.125 4.6875C10.125 3.59348 9.6904 2.54427 8.91682 1.77068C8.14323 0.997097 7.09402 0.5625 6 0.5625Z" fill="black"/>
</g>
<defs>
<clipPath id="clip0_179_3678">
<rect width="12" height="12" fill="white" transform="translate(0 0.5625)"/>
</clipPath>
</defs>
</svg>
