<svg width="24" height="25" viewBox="0 0 24 25" fill="none" xmlns="http://www.w3.org/2000/svg">
<g clip-path="url(#clip0_179_3628)">
<path d="M12 17.0632L6.22498 11.2882C6.09427 11.1467 6.02301 10.9604 6.02597 10.7678C6.02893 10.5752 6.10588 10.3911 6.24088 10.2537C6.37587 10.1163 6.55856 10.0361 6.75108 10.0297C6.94361 10.0233 7.1312 10.0913 7.27498 10.2195L12 14.9445L16.725 10.2195C16.8688 10.0913 17.0563 10.0233 17.2489 10.0297C17.4414 10.0361 17.6241 10.1163 17.7591 10.2537C17.8941 10.3911 17.971 10.5752 17.974 10.7678C17.9769 10.9604 17.9057 11.1467 17.775 11.2882L12 17.0632Z" fill="#6B6B6B"/>
</g>
<defs>
<clipPath id="clip0_179_3628">
<rect width="24" height="24" fill="white" transform="translate(0 0.5625)"/>
</clipPath>
</defs>
</svg>
