<svg width="24" height="25" viewBox="0 0 24 25" fill="none" xmlns="http://www.w3.org/2000/svg">
<g clip-path="url(#clip0_179_3709)">
<path d="M10.1812 18.562C10.0344 18.5599 9.89148 18.5148 9.77008 18.4323C9.64867 18.3497 9.55416 18.2334 9.49826 18.0976C9.44237 17.9619 9.42754 17.8127 9.45562 17.6686C9.4837 17.5245 9.55346 17.3918 9.65624 17.287L14.3812 12.562L9.65624 7.83699C9.52805 7.69321 9.4601 7.50562 9.46647 7.3131C9.47284 7.12058 9.55304 6.93788 9.69044 6.80289C9.82785 6.66789 10.0119 6.59094 10.2045 6.58798C10.3971 6.58502 10.5835 6.65628 10.725 6.78699L16.5 12.562L10.725 18.337C10.6542 18.4092 10.5695 18.4664 10.4761 18.505C10.3827 18.5437 10.2824 18.5631 10.1812 18.562Z" fill="black"/>
</g>
<defs>
<clipPath id="clip0_179_3709">
<rect width="24" height="24" fill="white" transform="translate(0 0.5625)"/>
</clipPath>
</defs>
</svg>
