<svg width="17" height="16" viewBox="0 0 17 16" fill="none" xmlns="http://www.w3.org/2000/svg">
<g clip-path="url(#clip0_179_2581)">
<path d="M6.80304 12.0003C6.70517 11.9989 6.60986 11.9689 6.52893 11.9138C6.44799 11.8588 6.38498 11.7812 6.34772 11.6907C6.31045 11.6002 6.30057 11.5008 6.31929 11.4047C6.33801 11.3087 6.38452 11.2202 6.45304 11.1503L9.60304 8.00031L6.45304 4.85031C6.36758 4.75446 6.32228 4.6294 6.32652 4.50105C6.33077 4.3727 6.38423 4.25091 6.47584 4.16091C6.56744 4.07091 6.69016 4.01961 6.81857 4.01764C6.94697 4.01566 7.07121 4.06317 7.16554 4.15031L11.0155 8.00031L7.16554 11.8503C7.11835 11.8985 7.06191 11.9366 6.99961 11.9623C6.93732 11.9881 6.87045 12.001 6.80304 12.0003Z" fill="black"/>
</g>
<defs>
<clipPath id="clip0_179_2581">
<rect width="16" height="16" fill="white" transform="translate(0.015625)"/>
</clipPath>
</defs>
</svg>
