<svg width="15" height="15" viewBox="0 0 15 15" fill="none" xmlns="http://www.w3.org/2000/svg">
<g clip-path="url(#clip0_179_2588)">
<path d="M7.37503 10.2809L4.00628 6.91211C3.93003 6.82957 3.88846 6.72086 3.89019 6.60851C3.89191 6.49616 3.9368 6.38878 4.01555 6.30863C4.0943 6.22847 4.20087 6.18169 4.31317 6.17797C4.42548 6.17426 4.53491 6.2139 4.61878 6.28867L7.37503 9.04492L10.1313 6.28867C10.2152 6.2139 10.3246 6.17426 10.4369 6.17797C10.5492 6.18169 10.6558 6.22847 10.7345 6.30863C10.8133 6.38878 10.8581 6.49616 10.8599 6.60851C10.8616 6.72086 10.82 6.82957 10.7438 6.91211L7.37503 10.2809Z" fill="#BDBDBD"/>
</g>
<defs>
<clipPath id="clip0_179_2588">
<rect width="14" height="14" fill="white" transform="translate(0.375 0.65625)"/>
</clipPath>
</defs>
</svg>
