<svg width="17" height="16" viewBox="0 0 17 16" fill="none" xmlns="http://www.w3.org/2000/svg">
<g clip-path="url(#clip0_179_2591)">
<path d="M7.16241 12.0003C7.06455 11.9989 6.96924 11.9689 6.8883 11.9138C6.80737 11.8588 6.74436 11.7812 6.70709 11.6907C6.66983 11.6002 6.65995 11.5008 6.67867 11.4047C6.69739 11.3087 6.74389 11.2202 6.81241 11.1503L9.96241 8.00031L6.81241 4.85031C6.72695 4.75446 6.68165 4.6294 6.6859 4.50105C6.69014 4.3727 6.74361 4.25091 6.83521 4.16091C6.92682 4.07091 7.04954 4.01961 7.17794 4.01764C7.30634 4.01566 7.43058 4.06317 7.52491 4.15031L11.3749 8.00031L7.52491 11.8503C7.47772 11.8985 7.42128 11.9366 7.35899 11.9623C7.29669 11.9881 7.22983 12.001 7.16241 12.0003Z" fill="black"/>
</g>
<defs>
<clipPath id="clip0_179_2591">
<rect width="16" height="16" fill="white" transform="translate(0.375)"/>
</clipPath>
</defs>
</svg>
