<svg width="15" height="15" viewBox="0 0 15 15" fill="none" xmlns="http://www.w3.org/2000/svg">
<g clip-path="url(#clip0_179_2598)">
<path d="M7.7344 10.2809L4.36565 6.91211C4.2894 6.82957 4.24784 6.72086 4.24956 6.60851C4.25129 6.49616 4.29618 6.38878 4.37493 6.30863C4.45367 6.22847 4.56024 6.18169 4.67255 6.17797C4.78485 6.17426 4.89428 6.2139 4.97815 6.28867L7.7344 9.04492L10.4907 6.28867C10.5745 6.2139 10.684 6.17426 10.7963 6.17797C10.9086 6.18169 11.0151 6.22847 11.0939 6.30863C11.1726 6.38878 11.2175 6.49616 11.2192 6.60851C11.221 6.72086 11.1794 6.82957 11.1032 6.91211L7.7344 10.2809Z" fill="#BDBDBD"/>
</g>
<defs>
<clipPath id="clip0_179_2598">
<rect width="14" height="14" fill="white" transform="translate(0.734375 0.65625)"/>
</clipPath>
</defs>
</svg>
