<svg width="18" height="21" viewBox="0 0 18 21" fill="none" xmlns="http://www.w3.org/2000/svg">
<g clip-path="url(#clip0_179_1683)">
<path d="M1.60106 6.10582C-0.958946 10.2658 5.06772 15.3058 8.40108 17.3058C9.06792 17.0392 10.7216 16.2658 12.0016 15.3058C13.6016 14.1058 15.6016 11.7058 16.0016 8.50586C16.4015 5.30586 14.8016 4.50562 13.2016 3.30562C11.9216 2.34561 9.46824 3.43909 8.40156 4.10582C7.20138 3.03915 4.16105 1.94582 1.60106 6.10582Z" fill="white"/>
<path fill-rule="evenodd" clip-rule="evenodd" d="M8.58874 3.33715C9.88954 2.51475 11.6175 2.28755 13.1103 2.76595C16.3575 3.81315 17.3655 7.35315 16.4639 10.17C15.0727 14.5939 9.13114 17.8939 8.87914 18.0324C8.7895 18.082 8.69032 18.1068 8.59114 18.1068C8.4919 18.1068 8.3935 18.0828 8.30392 18.034C8.05354 17.8972 2.15512 14.646 0.717521 10.1707L0.716723 10.17C-0.185678 7.35235 0.81912 3.81156 4.06312 2.76595C5.58632 2.27315 7.2463 2.48995 8.58874 3.33715ZM4.43113 3.90835C1.80632 4.75476 1.14712 7.57795 1.85992 9.80438C2.98152 13.294 7.41274 16.1155 8.5903 16.8139C9.77194 16.1083 14.2351 13.2556 15.3207 9.80756C16.0335 7.57875 15.3719 4.75555 12.7431 3.90835C11.4695 3.49956 9.98392 3.74835 8.95834 4.54195C8.7439 4.70676 8.4463 4.70995 8.2303 4.54675C7.14394 3.72996 5.72473 3.49075 4.43113 3.90835ZM11.9751 5.49708C13.0655 5.84988 13.8295 6.81547 13.9231 7.95708C13.9495 8.28747 13.7039 8.57708 13.3735 8.60348C13.3567 8.6051 13.3407 8.60588 13.3239 8.60588C13.0143 8.60588 12.7519 8.36827 12.7263 8.05467C12.6735 7.39707 12.2335 6.84187 11.6071 6.63948C11.2911 6.53707 11.1183 6.19867 11.2199 5.88427C11.3231 5.56908 11.6583 5.39787 11.9751 5.49708Z" fill="#292D32"/>
<path fill-rule="evenodd" clip-rule="evenodd" d="M11.9751 5.49786C13.0655 5.85066 13.8295 6.81625 13.9231 7.95786C13.9495 8.28826 13.7039 8.57786 13.3735 8.60426C13.3567 8.60588 13.3407 8.60666 13.3239 8.60666C13.0143 8.60666 12.7519 8.36905 12.7263 8.05546C12.6735 7.39786 12.2335 6.84265 11.6071 6.64026C11.2911 6.53785 11.1183 6.19945 11.2199 5.88505C11.3231 5.56986 11.6583 5.39866 11.9751 5.49786Z" fill="#292D32"/>
</g>
<defs>
<clipPath id="clip0_179_1683">
<rect width="18" height="20" fill="white" transform="translate(0 0.90625)"/>
</clipPath>
</defs>
</svg>
