<svg width="18" height="21" viewBox="0 0 18 21" fill="none" xmlns="http://www.w3.org/2000/svg">
<g clip-path="url(#clip0_179_2008)">
<path d="M1.60106 5.30895C-0.958946 9.46896 5.06772 14.509 8.40108 16.5089C9.06792 16.2423 10.7216 15.469 12.0016 14.509C13.6016 13.309 15.6016 10.909 16.0016 7.70898C16.4015 4.50899 14.8016 3.70874 13.2016 2.50874C11.9216 1.54874 9.46824 2.64221 8.40156 3.30894C7.20138 2.24228 4.16105 1.14894 1.60106 5.30895Z" fill="white"/>
<path fill-rule="evenodd" clip-rule="evenodd" d="M8.58874 2.54028C9.88954 1.71788 11.6175 1.49068 13.1103 1.96908C16.3575 3.01628 17.3655 6.55628 16.4639 9.37308C15.0727 13.7971 9.13114 17.0971 8.87914 17.2355C8.7895 17.2851 8.69032 17.3099 8.59114 17.3099C8.4919 17.3099 8.3935 17.2859 8.30392 17.2371C8.05354 17.1003 2.15512 13.8491 0.717521 9.37386L0.716723 9.37308C-0.185678 6.55548 0.81912 3.01468 4.06312 1.96908C5.58632 1.47628 7.2463 1.69308 8.58874 2.54028ZM4.43113 3.11148C1.80632 3.95788 1.14712 6.78108 1.85992 9.0075C2.98152 12.4971 7.41274 15.3187 8.5903 16.0171C9.77194 15.3115 14.2351 12.4587 15.3207 9.01068C16.0335 6.78188 15.3719 3.95868 12.7431 3.11148C11.4695 2.70268 9.98392 2.95148 8.95834 3.74508C8.7439 3.90988 8.4463 3.91308 8.2303 3.74988C7.14394 2.93308 5.72473 2.69388 4.43113 3.11148ZM11.9751 4.7002C13.0655 5.053 13.8295 6.0186 13.9231 7.1602C13.9495 7.4906 13.7039 7.7802 13.3735 7.8066C13.3567 7.80822 13.3407 7.809 13.3239 7.809C13.0143 7.809 12.7519 7.5714 12.7263 7.2578C12.6735 6.6002 12.2335 6.045 11.6071 5.8426C11.2911 5.7402 11.1183 5.4018 11.2199 5.0874C11.3231 4.7722 11.6583 4.601 11.9751 4.7002Z" fill="#292D32"/>
<path fill-rule="evenodd" clip-rule="evenodd" d="M11.9751 4.70098C13.0655 5.05378 13.8295 6.01938 13.9231 7.16098C13.9495 7.49138 13.7039 7.78098 13.3735 7.80738C13.3567 7.809 13.3407 7.80978 13.3239 7.80978C13.0143 7.80978 12.7519 7.57218 12.7263 7.25858C12.6735 6.60098 12.2335 6.04578 11.6071 5.84338C11.2911 5.74098 11.1183 5.40258 11.2199 5.08818C11.3231 4.77298 11.6583 4.60178 11.9751 4.70098Z" fill="#292D32"/>
</g>
<defs>
<clipPath id="clip0_179_2008">
<rect width="18" height="20" fill="white" transform="translate(0 0.109375)"/>
</clipPath>
</defs>
</svg>
