<svg width="18" height="20" viewBox="0 0 18 20" fill="none" xmlns="http://www.w3.org/2000/svg">
<g clip-path="url(#clip0_179_951)">
<path d="M1.60106 5.20006C-0.958946 9.36008 5.06772 14.4001 8.40108 16.4001C9.06792 16.1334 10.7216 15.3601 12.0016 14.4001C13.6016 13.2001 15.6016 10.8001 16.0016 7.6001C16.4015 4.4001 14.8016 3.59985 13.2016 2.39985C11.9216 1.43985 9.46824 2.53332 8.40156 3.20006C7.20138 2.13339 4.16105 1.04006 1.60106 5.20006Z" fill="white"/>
<path fill-rule="evenodd" clip-rule="evenodd" d="M8.58874 2.43139C9.88954 1.60899 11.6175 1.38179 13.1103 1.86019C16.3575 2.90739 17.3655 6.44739 16.4639 9.2642C15.0727 13.6882 9.13114 16.9882 8.87914 17.1266C8.7895 17.1762 8.69032 17.201 8.59114 17.201C8.4919 17.201 8.3935 17.177 8.30392 17.1282C8.05354 16.9914 2.15512 13.7402 0.717521 9.26498L0.716723 9.2642C-0.185678 6.44659 0.81912 2.90579 4.06312 1.86019C5.58632 1.36739 7.2463 1.58419 8.58874 2.43139ZM4.43113 3.00259C1.80632 3.84899 1.14712 6.67219 1.85992 8.89862C2.98152 12.3882 7.41274 15.2098 8.5903 15.9082C9.77194 15.2026 14.2351 12.3498 15.3207 8.9018C16.0335 6.67299 15.3719 3.84979 12.7431 3.00259C11.4695 2.59379 9.98392 2.84259 8.95834 3.63619C8.7439 3.80099 8.4463 3.80419 8.2303 3.64099C7.14394 2.82419 5.72473 2.58499 4.43113 3.00259ZM11.9751 4.59131C13.0655 4.94411 13.8295 5.90971 13.9231 7.05131C13.9495 7.38171 13.7039 7.67132 13.3735 7.69772C13.3567 7.69934 13.3407 7.70012 13.3239 7.70012C13.0143 7.70012 12.7519 7.46251 12.7263 7.14891C12.6735 6.49131 12.2335 5.93611 11.6071 5.73371C11.2911 5.63131 11.1183 5.29291 11.2199 4.97851C11.3231 4.66331 11.6583 4.49211 11.9751 4.59131Z" fill="#292D32"/>
<path fill-rule="evenodd" clip-rule="evenodd" d="M11.9751 4.59112C13.0655 4.94392 13.8295 5.90951 13.9231 7.05112C13.9495 7.38152 13.7039 7.67112 13.3735 7.69752C13.3567 7.69914 13.3407 7.69992 13.3239 7.69992C13.0143 7.69992 12.7519 7.46232 12.7263 7.14872C12.6735 6.49112 12.2335 5.93592 11.6071 5.73352C11.2911 5.63112 11.1183 5.29272 11.2199 4.97832C11.3231 4.66312 11.6583 4.49192 11.9751 4.59112Z" fill="#292D32"/>
</g>
<defs>
<clipPath id="clip0_179_951">
<rect width="18" height="20" fill="white"/>
</clipPath>
</defs>
</svg>
