<svg width="18" height="20" viewBox="0 0 18 20" fill="none" xmlns="http://www.w3.org/2000/svg">
<g clip-path="url(#clip0_179_1338)">
<path d="M1.60106 5.19957C-0.958946 9.35959 5.06772 14.3996 8.40108 16.3996C9.06792 16.1329 10.7216 15.3596 12.0016 14.3996C13.6016 13.1996 15.6016 10.7996 16.0016 7.59961C16.4015 4.39961 14.8016 3.59937 13.2016 2.39937C11.9216 1.43936 9.46824 2.53284 8.40156 3.19957C7.20138 2.1329 4.16105 1.03957 1.60106 5.19957Z" fill="white"/>
<path fill-rule="evenodd" clip-rule="evenodd" d="M8.58874 2.4309C9.88954 1.6085 11.6175 1.3813 13.1103 1.8597C16.3575 2.9069 17.3655 6.4469 16.4639 9.26371C15.0727 13.6877 9.13114 16.9877 8.87914 17.1261C8.7895 17.1757 8.69032 17.2005 8.59114 17.2005C8.4919 17.2005 8.3935 17.1765 8.30392 17.1277C8.05354 16.9909 2.15512 13.7397 0.717521 9.26449L0.716723 9.26371C-0.185678 6.4461 0.81912 2.90531 4.06312 1.8597C5.58632 1.3669 7.2463 1.5837 8.58874 2.4309ZM4.43113 3.0021C1.80632 3.84851 1.14712 6.6717 1.85992 8.89813C2.98152 12.3877 7.41274 15.2093 8.5903 15.9077C9.77194 15.2021 14.2351 12.3493 15.3207 8.90131C16.0335 6.6725 15.3719 3.8493 12.7431 3.0021C11.4695 2.59331 9.98392 2.8421 8.95834 3.6357C8.7439 3.80051 8.4463 3.8037 8.2303 3.6405C7.14394 2.82371 5.72473 2.5845 4.43113 3.0021ZM11.9751 4.59083C13.0655 4.94363 13.8295 5.90922 13.9231 7.05083C13.9495 7.38122 13.7039 7.67083 13.3735 7.69723C13.3567 7.69885 13.3407 7.69963 13.3239 7.69963C13.0143 7.69963 12.7519 7.46202 12.7263 7.14842C12.6735 6.49082 12.2335 5.93562 11.6071 5.73323C11.2911 5.63082 11.1183 5.29242 11.2199 4.97802C11.3231 4.66283 11.6583 4.49162 11.9751 4.59083Z" fill="#292D32"/>
<path fill-rule="evenodd" clip-rule="evenodd" d="M11.9751 4.59161C13.0655 4.94441 13.8295 5.91 13.9231 7.05161C13.9495 7.38201 13.7039 7.67161 13.3735 7.69801C13.3567 7.69963 13.3407 7.70041 13.3239 7.70041C13.0143 7.70041 12.7519 7.4628 12.7263 7.14921C12.6735 6.49161 12.2335 5.9364 11.6071 5.73401C11.2911 5.6316 11.1183 5.2932 11.2199 4.9788C11.3231 4.66361 11.6583 4.49241 11.9751 4.59161Z" fill="#292D32"/>
</g>
<defs>
<clipPath id="clip0_179_1338">
<rect width="18" height="20" fill="white"/>
</clipPath>
</defs>
</svg>
