<svg width="18" height="21" viewBox="0 0 18 21" fill="none" xmlns="http://www.w3.org/2000/svg">
<g clip-path="url(#clip0_179_1569)">
<path d="M1.60106 5.6527C-0.958946 9.81271 5.06772 14.8527 8.40108 16.8527C9.06792 16.5861 10.7216 15.8127 12.0016 14.8527C13.6016 13.6527 15.6016 11.2527 16.0016 8.05273C16.4015 4.85274 14.8016 4.05249 13.2016 2.85249C11.9216 1.89249 9.46824 2.98596 8.40156 3.65269C7.20138 2.58603 4.16105 1.49269 1.60106 5.6527Z" fill="white"/>
<path fill-rule="evenodd" clip-rule="evenodd" d="M8.58874 2.88403C9.88954 2.06163 11.6175 1.83443 13.1103 2.31283C16.3575 3.36003 17.3655 6.90003 16.4639 9.71683C15.0727 14.1408 9.13114 17.4408 8.87914 17.5792C8.7895 17.6289 8.69032 17.6536 8.59114 17.6536C8.4919 17.6536 8.3935 17.6296 8.30392 17.5809C8.05354 17.4441 2.15512 14.1928 0.717521 9.71761L0.716723 9.71683C-0.185678 6.89923 0.81912 3.35843 4.06312 2.31283C5.58632 1.82003 7.2463 2.03683 8.58874 2.88403ZM4.43113 3.45523C1.80632 4.30163 1.14712 7.12483 1.85992 9.35125C2.98152 12.8409 7.41274 15.6624 8.5903 16.3608C9.77194 15.6552 14.2351 12.8025 15.3207 9.35443C16.0335 7.12563 15.3719 4.30243 12.7431 3.45523C11.4695 3.04643 9.98392 3.29523 8.95834 4.08883C8.7439 4.25363 8.4463 4.25683 8.2303 4.09363C7.14394 3.27683 5.72473 3.03763 4.43113 3.45523ZM11.9751 5.04395C13.0655 5.39675 13.8295 6.36235 13.9231 7.50395C13.9495 7.83435 13.7039 8.12395 13.3735 8.15035C13.3567 8.15197 13.3407 8.15275 13.3239 8.15275C13.0143 8.15275 12.7519 7.91515 12.7263 7.60155C12.6735 6.94395 12.2335 6.38875 11.6071 6.18635C11.2911 6.08395 11.1183 5.74555 11.2199 5.43115C11.3231 5.11595 11.6583 4.94475 11.9751 5.04395Z" fill="#292D32"/>
<path fill-rule="evenodd" clip-rule="evenodd" d="M11.9751 5.04473C13.0655 5.39753 13.8295 6.36313 13.9231 7.50473C13.9495 7.83513 13.7039 8.12473 13.3735 8.15113C13.3567 8.15275 13.3407 8.15353 13.3239 8.15353C13.0143 8.15353 12.7519 7.91593 12.7263 7.60233C12.6735 6.94473 12.2335 6.38953 11.6071 6.18713C11.2911 6.08473 11.1183 5.74633 11.2199 5.43193C11.3231 5.11673 11.6583 4.94553 11.9751 5.04473Z" fill="#292D32"/>
</g>
<defs>
<clipPath id="clip0_179_1569">
<rect width="18" height="20" fill="white" transform="translate(0 0.453125)"/>
</clipPath>
</defs>
</svg>
